<?xml version="1.0" encoding="utf-8" standalone="no"?>
<!DOCTYPE svg PUBLIC "-//W3C//DTD SVG 1.1//EN"
  "http://www.w3.org/Graphics/SVG/1.1/DTD/svg11.dtd">
<svg xmlns:xlink="http://www.w3.org/1999/xlink" width="1444.32pt" height="432pt" viewBox="0 0 1444.32 432" xmlns="http://www.w3.org/2000/svg" version="1.1">
 <metadata>
  <rdf:RDF xmlns:dc="http://purl.org/dc/elements/1.1/" xmlns:cc="http://creativecommons.org/ns#" xmlns:rdf="http://www.w3.org/1999/02/22-rdf-syntax-ns#">
   <cc:Work>
    <dc:type rdf:resource="http://purl.org/dc/dcmitype/StillImage"/>
    <dc:date>2026-01-25T21:30:05.390087</dc:date>
    <dc:format>image/svg+xml</dc:format>
    <dc:creator>
     <cc:Agent>
      <dc:title>Matplotlib v3.10.7, https://matplotlib.org/</dc:title>
     </cc:Agent>
    </dc:creator>
   </cc:Work>
  </rdf:RDF>
 </metadata>
 <defs>
  <style type="text/css">*{stroke-linejoin: round; stroke-linecap: butt}</style>
 </defs>
 <g id="figure_1">
  <g id="patch_1">
   <path d="M 0 432 
L 1444.32 432 
L 1444.32 0 
L 0 0 
z
" style="fill: #ffffff"/>
  </g>
  <g id="axes_1">
   <g id="patch_2">
    <path d="M 180.54 384.48 
L 1299.888 384.48 
L 1299.888 51.84 
L 180.54 51.84 
z
" style="fill: #ffffff"/>
   </g>
   <g id="matplotlib.axis_1">
    <g id="xtick_1">
     <g id="line2d_1">
      <path d="M 180.54 384.48 
L 180.54 51.84 
" clip-path="url(#p7f53027878)" style="fill: none; stroke: #b0b0b0; stroke-width: 0.8; stroke-linecap: square"/>
     </g>
     <g id="line2d_2">
      <defs>
       <path id="m4e4cfb1176" d="M 0 0 
L 0 3.5 
" style="stroke: #000000; stroke-width: 0.8"/>
      </defs>
      <g>
       <use xlink:href="#m4e4cfb1176" x="180.54" y="384.48" style="stroke: #000000; stroke-width: 0.8"/>
      </g>
     </g>
     <g id="text_1">
      <!-- 0 -->
      <g transform="translate(176.7225 400.598125) scale(0.12 -0.12)">
       <defs>
        <path id="DejaVuSans-30" d="M 2034 4250 
Q 1547 4250 1301 3770 
Q 1056 3291 1056 2328 
Q 1056 1369 1301 889 
Q 1547 409 2034 409 
Q 2525 409 2770 889 
Q 3016 1369 3016 2328 
Q 3016 3291 2770 3770 
Q 2525 4250 2034 4250 
z
M 2034 4750 
Q 2819 4750 3233 4129 
Q 3647 3509 3647 2328 
Q 3647 1150 3233 529 
Q 2819 -91 2034 -91 
Q 1250 -91 836 529 
Q 422 1150 422 2328 
Q 422 3509 836 4129 
Q 1250 4750 2034 4750 
z
" transform="scale(0.015625)"/>
       </defs>
       <use xlink:href="#DejaVuSans-30"/>
      </g>
     </g>
    </g>
    <g id="xtick_2">
     <g id="line2d_3">
      <path d="M 331.599109 384.48 
L 331.599109 51.84 
" clip-path="url(#p7f53027878)" style="fill: none; stroke: #b0b0b0; stroke-width: 0.8; stroke-linecap: square"/>
     </g>
     <g id="line2d_4">
      <g>
       <use xlink:href="#m4e4cfb1176" x="331.599109" y="384.48" style="stroke: #000000; stroke-width: 0.8"/>
      </g>
     </g>
     <g id="text_2">
      <!-- 200 -->
      <g transform="translate(320.146609 400.598125) scale(0.12 -0.12)">
       <defs>
        <path id="DejaVuSans-32" d="M 1228 531 
L 3431 531 
L 3431 0 
L 469 0 
L 469 531 
Q 828 903 1448 1529 
Q 2069 2156 2228 2338 
Q 2531 2678 2651 2914 
Q 2772 3150 2772 3378 
Q 2772 3750 2511 3984 
Q 2250 4219 1831 4219 
Q 1534 4219 1204 4116 
Q 875 4013 500 3803 
L 500 4441 
Q 881 4594 1212 4672 
Q 1544 4750 1819 4750 
Q 2544 4750 2975 4387 
Q 3406 4025 3406 3419 
Q 3406 3131 3298 2873 
Q 3191 2616 2906 2266 
Q 2828 2175 2409 1742 
Q 1991 1309 1228 531 
z
" transform="scale(0.015625)"/>
       </defs>
       <use xlink:href="#DejaVuSans-32"/>
       <use xlink:href="#DejaVuSans-30" transform="translate(63.623047 0)"/>
       <use xlink:href="#DejaVuSans-30" transform="translate(127.246094 0)"/>
      </g>
     </g>
    </g>
    <g id="xtick_3">
     <g id="line2d_5">
      <path d="M 482.658219 384.48 
L 482.658219 51.84 
" clip-path="url(#p7f53027878)" style="fill: none; stroke: #b0b0b0; stroke-width: 0.8; stroke-linecap: square"/>
     </g>
     <g id="line2d_6">
      <g>
       <use xlink:href="#m4e4cfb1176" x="482.658219" y="384.48" style="stroke: #000000; stroke-width: 0.8"/>
      </g>
     </g>
     <g id="text_3">
      <!-- 400 -->
      <g transform="translate(471.205719 400.598125) scale(0.12 -0.12)">
       <defs>
        <path id="DejaVuSans-34" d="M 2419 4116 
L 825 1625 
L 2419 1625 
L 2419 4116 
z
M 2253 4666 
L 3047 4666 
L 3047 1625 
L 3713 1625 
L 3713 1100 
L 3047 1100 
L 3047 0 
L 2419 0 
L 2419 1100 
L 313 1100 
L 313 1709 
L 2253 4666 
z
" transform="scale(0.015625)"/>
       </defs>
       <use xlink:href="#DejaVuSans-34"/>
       <use xlink:href="#DejaVuSans-30" transform="translate(63.623047 0)"/>
       <use xlink:href="#DejaVuSans-30" transform="translate(127.246094 0)"/>
      </g>
     </g>
    </g>
    <g id="xtick_4">
     <g id="line2d_7">
      <path d="M 633.717328 384.48 
L 633.717328 51.84 
" clip-path="url(#p7f53027878)" style="fill: none; stroke: #b0b0b0; stroke-width: 0.8; stroke-linecap: square"/>
     </g>
     <g id="line2d_8">
      <g>
       <use xlink:href="#m4e4cfb1176" x="633.717328" y="384.48" style="stroke: #000000; stroke-width: 0.8"/>
      </g>
     </g>
     <g id="text_4">
      <!-- 600 -->
      <g transform="translate(622.264828 400.598125) scale(0.12 -0.12)">
       <defs>
        <path id="DejaVuSans-36" d="M 2113 2584 
Q 1688 2584 1439 2293 
Q 1191 2003 1191 1497 
Q 1191 994 1439 701 
Q 1688 409 2113 409 
Q 2538 409 2786 701 
Q 3034 994 3034 1497 
Q 3034 2003 2786 2293 
Q 2538 2584 2113 2584 
z
M 3366 4563 
L 3366 3988 
Q 3128 4100 2886 4159 
Q 2644 4219 2406 4219 
Q 1781 4219 1451 3797 
Q 1122 3375 1075 2522 
Q 1259 2794 1537 2939 
Q 1816 3084 2150 3084 
Q 2853 3084 3261 2657 
Q 3669 2231 3669 1497 
Q 3669 778 3244 343 
Q 2819 -91 2113 -91 
Q 1303 -91 875 529 
Q 447 1150 447 2328 
Q 447 3434 972 4092 
Q 1497 4750 2381 4750 
Q 2619 4750 2861 4703 
Q 3103 4656 3366 4563 
z
" transform="scale(0.015625)"/>
       </defs>
       <use xlink:href="#DejaVuSans-36"/>
       <use xlink:href="#DejaVuSans-30" transform="translate(63.623047 0)"/>
       <use xlink:href="#DejaVuSans-30" transform="translate(127.246094 0)"/>
      </g>
     </g>
    </g>
    <g id="xtick_5">
     <g id="line2d_9">
      <path d="M 784.776437 384.48 
L 784.776437 51.84 
" clip-path="url(#p7f53027878)" style="fill: none; stroke: #b0b0b0; stroke-width: 0.8; stroke-linecap: square"/>
     </g>
     <g id="line2d_10">
      <g>
       <use xlink:href="#m4e4cfb1176" x="784.776437" y="384.48" style="stroke: #000000; stroke-width: 0.8"/>
      </g>
     </g>
     <g id="text_5">
      <!-- 800 -->
      <g transform="translate(773.323937 400.598125) scale(0.12 -0.12)">
       <defs>
        <path id="DejaVuSans-38" d="M 2034 2216 
Q 1584 2216 1326 1975 
Q 1069 1734 1069 1313 
Q 1069 891 1326 650 
Q 1584 409 2034 409 
Q 2484 409 2743 651 
Q 3003 894 3003 1313 
Q 3003 1734 2745 1975 
Q 2488 2216 2034 2216 
z
M 1403 2484 
Q 997 2584 770 2862 
Q 544 3141 544 3541 
Q 544 4100 942 4425 
Q 1341 4750 2034 4750 
Q 2731 4750 3128 4425 
Q 3525 4100 3525 3541 
Q 3525 3141 3298 2862 
Q 3072 2584 2669 2484 
Q 3125 2378 3379 2068 
Q 3634 1759 3634 1313 
Q 3634 634 3220 271 
Q 2806 -91 2034 -91 
Q 1263 -91 848 271 
Q 434 634 434 1313 
Q 434 1759 690 2068 
Q 947 2378 1403 2484 
z
M 1172 3481 
Q 1172 3119 1398 2916 
Q 1625 2713 2034 2713 
Q 2441 2713 2670 2916 
Q 2900 3119 2900 3481 
Q 2900 3844 2670 4047 
Q 2441 4250 2034 4250 
Q 1625 4250 1398 4047 
Q 1172 3844 1172 3481 
z
" transform="scale(0.015625)"/>
       </defs>
       <use xlink:href="#DejaVuSans-38"/>
       <use xlink:href="#DejaVuSans-30" transform="translate(63.623047 0)"/>
       <use xlink:href="#DejaVuSans-30" transform="translate(127.246094 0)"/>
      </g>
     </g>
    </g>
    <g id="xtick_6">
     <g id="line2d_11">
      <path d="M 935.835547 384.48 
L 935.835547 51.84 
" clip-path="url(#p7f53027878)" style="fill: none; stroke: #b0b0b0; stroke-width: 0.8; stroke-linecap: square"/>
     </g>
     <g id="line2d_12">
      <g>
       <use xlink:href="#m4e4cfb1176" x="935.835547" y="384.48" style="stroke: #000000; stroke-width: 0.8"/>
      </g>
     </g>
     <g id="text_6">
      <!-- 1000 -->
      <g transform="translate(920.565547 400.598125) scale(0.12 -0.12)">
       <defs>
        <path id="DejaVuSans-31" d="M 794 531 
L 1825 531 
L 1825 4091 
L 703 3866 
L 703 4441 
L 1819 4666 
L 2450 4666 
L 2450 531 
L 3481 531 
L 3481 0 
L 794 0 
L 794 531 
z
" transform="scale(0.015625)"/>
       </defs>
       <use xlink:href="#DejaVuSans-31"/>
       <use xlink:href="#DejaVuSans-30" transform="translate(63.623047 0)"/>
       <use xlink:href="#DejaVuSans-30" transform="translate(127.246094 0)"/>
       <use xlink:href="#DejaVuSans-30" transform="translate(190.869141 0)"/>
      </g>
     </g>
    </g>
    <g id="xtick_7">
     <g id="line2d_13">
      <path d="M 1086.894656 384.48 
L 1086.894656 51.84 
" clip-path="url(#p7f53027878)" style="fill: none; stroke: #b0b0b0; stroke-width: 0.8; stroke-linecap: square"/>
     </g>
     <g id="line2d_14">
      <g>
       <use xlink:href="#m4e4cfb1176" x="1086.894656" y="384.48" style="stroke: #000000; stroke-width: 0.8"/>
      </g>
     </g>
     <g id="text_7">
      <!-- 1200 -->
      <g transform="translate(1071.624656 400.598125) scale(0.12 -0.12)">
       <use xlink:href="#DejaVuSans-31"/>
       <use xlink:href="#DejaVuSans-32" transform="translate(63.623047 0)"/>
       <use xlink:href="#DejaVuSans-30" transform="translate(127.246094 0)"/>
       <use xlink:href="#DejaVuSans-30" transform="translate(190.869141 0)"/>
      </g>
     </g>
    </g>
    <g id="xtick_8">
     <g id="line2d_15">
      <path d="M 1237.953765 384.48 
L 1237.953765 51.84 
" clip-path="url(#p7f53027878)" style="fill: none; stroke: #b0b0b0; stroke-width: 0.8; stroke-linecap: square"/>
     </g>
     <g id="line2d_16">
      <g>
       <use xlink:href="#m4e4cfb1176" x="1237.953765" y="384.48" style="stroke: #000000; stroke-width: 0.8"/>
      </g>
     </g>
     <g id="text_8">
      <!-- 1400 -->
      <g transform="translate(1222.683765 400.598125) scale(0.12 -0.12)">
       <use xlink:href="#DejaVuSans-31"/>
       <use xlink:href="#DejaVuSans-34" transform="translate(63.623047 0)"/>
       <use xlink:href="#DejaVuSans-30" transform="translate(127.246094 0)"/>
       <use xlink:href="#DejaVuSans-30" transform="translate(190.869141 0)"/>
      </g>
     </g>
    </g>
    <g id="text_9">
     <!-- Time [s] -->
     <g transform="translate(711.753531 417.731562) scale(0.14 -0.14)">
      <defs>
       <path id="DejaVuSans-54" d="M -19 4666 
L 3928 4666 
L 3928 4134 
L 2272 4134 
L 2272 0 
L 1638 0 
L 1638 4134 
L -19 4134 
L -19 4666 
z
" transform="scale(0.015625)"/>
       <path id="DejaVuSans-69" d="M 603 3500 
L 1178 3500 
L 1178 0 
L 603 0 
L 603 3500 
z
M 603 4863 
L 1178 4863 
L 1178 4134 
L 603 4134 
L 603 4863 
z
" transform="scale(0.015625)"/>
       <path id="DejaVuSans-6d" d="M 3328 2828 
Q 3544 3216 3844 3400 
Q 4144 3584 4550 3584 
Q 5097 3584 5394 3201 
Q 5691 2819 5691 2113 
L 5691 0 
L 5113 0 
L 5113 2094 
Q 5113 2597 4934 2840 
Q 4756 3084 4391 3084 
Q 3944 3084 3684 2787 
Q 3425 2491 3425 1978 
L 3425 0 
L 2847 0 
L 2847 2094 
Q 2847 2600 2669 2842 
Q 2491 3084 2119 3084 
Q 1678 3084 1418 2786 
Q 1159 2488 1159 1978 
L 1159 0 
L 581 0 
L 581 3500 
L 1159 3500 
L 1159 2956 
Q 1356 3278 1631 3431 
Q 1906 3584 2284 3584 
Q 2666 3584 2933 3390 
Q 3200 3197 3328 2828 
z
" transform="scale(0.015625)"/>
       <path id="DejaVuSans-65" d="M 3597 1894 
L 3597 1613 
L 953 1613 
Q 991 1019 1311 708 
Q 1631 397 2203 397 
Q 2534 397 2845 478 
Q 3156 559 3463 722 
L 3463 178 
Q 3153 47 2828 -22 
Q 2503 -91 2169 -91 
Q 1331 -91 842 396 
Q 353 884 353 1716 
Q 353 2575 817 3079 
Q 1281 3584 2069 3584 
Q 2775 3584 3186 3129 
Q 3597 2675 3597 1894 
z
M 3022 2063 
Q 3016 2534 2758 2815 
Q 2500 3097 2075 3097 
Q 1594 3097 1305 2825 
Q 1016 2553 972 2059 
L 3022 2063 
z
" transform="scale(0.015625)"/>
       <path id="DejaVuSans-20" transform="scale(0.015625)"/>
       <path id="DejaVuSans-5b" d="M 550 4863 
L 1875 4863 
L 1875 4416 
L 1125 4416 
L 1125 -397 
L 1875 -397 
L 1875 -844 
L 550 -844 
L 550 4863 
z
" transform="scale(0.015625)"/>
       <path id="DejaVuSans-73" d="M 2834 3397 
L 2834 2853 
Q 2591 2978 2328 3040 
Q 2066 3103 1784 3103 
Q 1356 3103 1142 2972 
Q 928 2841 928 2578 
Q 928 2378 1081 2264 
Q 1234 2150 1697 2047 
L 1894 2003 
Q 2506 1872 2764 1633 
Q 3022 1394 3022 966 
Q 3022 478 2636 193 
Q 2250 -91 1575 -91 
Q 1294 -91 989 -36 
Q 684 19 347 128 
L 347 722 
Q 666 556 975 473 
Q 1284 391 1588 391 
Q 1994 391 2212 530 
Q 2431 669 2431 922 
Q 2431 1156 2273 1281 
Q 2116 1406 1581 1522 
L 1381 1569 
Q 847 1681 609 1914 
Q 372 2147 372 2553 
Q 372 3047 722 3315 
Q 1072 3584 1716 3584 
Q 2034 3584 2315 3537 
Q 2597 3491 2834 3397 
z
" transform="scale(0.015625)"/>
       <path id="DejaVuSans-5d" d="M 1947 4863 
L 1947 -844 
L 622 -844 
L 622 -397 
L 1369 -397 
L 1369 4416 
L 622 4416 
L 622 4863 
L 1947 4863 
z
" transform="scale(0.015625)"/>
      </defs>
      <use xlink:href="#DejaVuSans-54"/>
      <use xlink:href="#DejaVuSans-69" transform="translate(57.958984 0)"/>
      <use xlink:href="#DejaVuSans-6d" transform="translate(85.742188 0)"/>
      <use xlink:href="#DejaVuSans-65" transform="translate(183.154297 0)"/>
      <use xlink:href="#DejaVuSans-20" transform="translate(244.677734 0)"/>
      <use xlink:href="#DejaVuSans-5b" transform="translate(276.464844 0)"/>
      <use xlink:href="#DejaVuSans-73" transform="translate(315.478516 0)"/>
      <use xlink:href="#DejaVuSans-5d" transform="translate(367.578125 0)"/>
     </g>
    </g>
   </g>
   <g id="matplotlib.axis_2">
    <g id="ytick_1">
     <g id="line2d_17">
      <path d="M 180.54 369.36 
L 1299.888 369.36 
" clip-path="url(#p7f53027878)" style="fill: none; stroke: #b0b0b0; stroke-width: 0.8; stroke-linecap: square"/>
     </g>
     <g id="line2d_18">
      <defs>
       <path id="ma5b5de947f" d="M 0 0 
L -3.5 0 
" style="stroke: #000000; stroke-width: 0.8"/>
      </defs>
      <g>
       <use xlink:href="#ma5b5de947f" x="180.54" y="369.36" style="stroke: #000000; stroke-width: 0.8"/>
      </g>
     </g>
     <g id="text_10">
      <!-- −1.00 -->
      <g transform="translate(136.765625 373.919062) scale(0.12 -0.12)">
       <defs>
        <path id="DejaVuSans-2212" d="M 678 2272 
L 4684 2272 
L 4684 1741 
L 678 1741 
L 678 2272 
z
" transform="scale(0.015625)"/>
        <path id="DejaVuSans-2e" d="M 684 794 
L 1344 794 
L 1344 0 
L 684 0 
L 684 794 
z
" transform="scale(0.015625)"/>
       </defs>
       <use xlink:href="#DejaVuSans-2212"/>
       <use xlink:href="#DejaVuSans-31" transform="translate(83.789062 0)"/>
       <use xlink:href="#DejaVuSans-2e" transform="translate(147.412109 0)"/>
       <use xlink:href="#DejaVuSans-30" transform="translate(179.199219 0)"/>
       <use xlink:href="#DejaVuSans-30" transform="translate(242.822266 0)"/>
      </g>
     </g>
    </g>
    <g id="ytick_2">
     <g id="line2d_19">
      <path d="M 180.54 331.56 
L 1299.888 331.56 
" clip-path="url(#p7f53027878)" style="fill: none; stroke: #b0b0b0; stroke-width: 0.8; stroke-linecap: square"/>
     </g>
     <g id="line2d_20">
      <g>
       <use xlink:href="#ma5b5de947f" x="180.54" y="331.56" style="stroke: #000000; stroke-width: 0.8"/>
      </g>
     </g>
     <g id="text_11">
      <!-- −0.75 -->
      <g transform="translate(136.765625 336.119062) scale(0.12 -0.12)">
       <defs>
        <path id="DejaVuSans-37" d="M 525 4666 
L 3525 4666 
L 3525 4397 
L 1831 0 
L 1172 0 
L 2766 4134 
L 525 4134 
L 525 4666 
z
" transform="scale(0.015625)"/>
        <path id="DejaVuSans-35" d="M 691 4666 
L 3169 4666 
L 3169 4134 
L 1269 4134 
L 1269 2991 
Q 1406 3038 1543 3061 
Q 1681 3084 1819 3084 
Q 2600 3084 3056 2656 
Q 3513 2228 3513 1497 
Q 3513 744 3044 326 
Q 2575 -91 1722 -91 
Q 1428 -91 1123 -41 
Q 819 9 494 109 
L 494 744 
Q 775 591 1075 516 
Q 1375 441 1709 441 
Q 2250 441 2565 725 
Q 2881 1009 2881 1497 
Q 2881 1984 2565 2268 
Q 2250 2553 1709 2553 
Q 1456 2553 1204 2497 
Q 953 2441 691 2322 
L 691 4666 
z
" transform="scale(0.015625)"/>
       </defs>
       <use xlink:href="#DejaVuSans-2212"/>
       <use xlink:href="#DejaVuSans-30" transform="translate(83.789062 0)"/>
       <use xlink:href="#DejaVuSans-2e" transform="translate(147.412109 0)"/>
       <use xlink:href="#DejaVuSans-37" transform="translate(179.199219 0)"/>
       <use xlink:href="#DejaVuSans-35" transform="translate(242.822266 0)"/>
      </g>
     </g>
    </g>
    <g id="ytick_3">
     <g id="line2d_21">
      <path d="M 180.54 293.76 
L 1299.888 293.76 
" clip-path="url(#p7f53027878)" style="fill: none; stroke: #b0b0b0; stroke-width: 0.8; stroke-linecap: square"/>
     </g>
     <g id="line2d_22">
      <g>
       <use xlink:href="#ma5b5de947f" x="180.54" y="293.76" style="stroke: #000000; stroke-width: 0.8"/>
      </g>
     </g>
     <g id="text_12">
      <!-- −0.50 -->
      <g transform="translate(136.765625 298.319062) scale(0.12 -0.12)">
       <use xlink:href="#DejaVuSans-2212"/>
       <use xlink:href="#DejaVuSans-30" transform="translate(83.789062 0)"/>
       <use xlink:href="#DejaVuSans-2e" transform="translate(147.412109 0)"/>
       <use xlink:href="#DejaVuSans-35" transform="translate(179.199219 0)"/>
       <use xlink:href="#DejaVuSans-30" transform="translate(242.822266 0)"/>
      </g>
     </g>
    </g>
    <g id="ytick_4">
     <g id="line2d_23">
      <path d="M 180.54 255.96 
L 1299.888 255.96 
" clip-path="url(#p7f53027878)" style="fill: none; stroke: #b0b0b0; stroke-width: 0.8; stroke-linecap: square"/>
     </g>
     <g id="line2d_24">
      <g>
       <use xlink:href="#ma5b5de947f" x="180.54" y="255.96" style="stroke: #000000; stroke-width: 0.8"/>
      </g>
     </g>
     <g id="text_13">
      <!-- −0.25 -->
      <g transform="translate(136.765625 260.519063) scale(0.12 -0.12)">
       <use xlink:href="#DejaVuSans-2212"/>
       <use xlink:href="#DejaVuSans-30" transform="translate(83.789062 0)"/>
       <use xlink:href="#DejaVuSans-2e" transform="translate(147.412109 0)"/>
       <use xlink:href="#DejaVuSans-32" transform="translate(179.199219 0)"/>
       <use xlink:href="#DejaVuSans-35" transform="translate(242.822266 0)"/>
      </g>
     </g>
    </g>
    <g id="ytick_5">
     <g id="line2d_25">
      <path d="M 180.54 218.16 
L 1299.888 218.16 
" clip-path="url(#p7f53027878)" style="fill: none; stroke: #b0b0b0; stroke-width: 0.8; stroke-linecap: square"/>
     </g>
     <g id="line2d_26">
      <g>
       <use xlink:href="#ma5b5de947f" x="180.54" y="218.16" style="stroke: #000000; stroke-width: 0.8"/>
      </g>
     </g>
     <g id="text_14">
      <!-- 0.00 -->
      <g transform="translate(146.82125 222.719062) scale(0.12 -0.12)">
       <use xlink:href="#DejaVuSans-30"/>
       <use xlink:href="#DejaVuSans-2e" transform="translate(63.623047 0)"/>
       <use xlink:href="#DejaVuSans-30" transform="translate(95.410156 0)"/>
       <use xlink:href="#DejaVuSans-30" transform="translate(159.033203 0)"/>
      </g>
     </g>
    </g>
    <g id="ytick_6">
     <g id="line2d_27">
      <path d="M 180.54 180.36 
L 1299.888 180.36 
" clip-path="url(#p7f53027878)" style="fill: none; stroke: #b0b0b0; stroke-width: 0.8; stroke-linecap: square"/>
     </g>
     <g id="line2d_28">
      <g>
       <use xlink:href="#ma5b5de947f" x="180.54" y="180.36" style="stroke: #000000; stroke-width: 0.8"/>
      </g>
     </g>
     <g id="text_15">
      <!-- 0.25 -->
      <g transform="translate(146.82125 184.919062) scale(0.12 -0.12)">
       <use xlink:href="#DejaVuSans-30"/>
       <use xlink:href="#DejaVuSans-2e" transform="translate(63.623047 0)"/>
       <use xlink:href="#DejaVuSans-32" transform="translate(95.410156 0)"/>
       <use xlink:href="#DejaVuSans-35" transform="translate(159.033203 0)"/>
      </g>
     </g>
    </g>
    <g id="ytick_7">
     <g id="line2d_29">
      <path d="M 180.54 142.56 
L 1299.888 142.56 
" clip-path="url(#p7f53027878)" style="fill: none; stroke: #b0b0b0; stroke-width: 0.8; stroke-linecap: square"/>
     </g>
     <g id="line2d_30">
      <g>
       <use xlink:href="#ma5b5de947f" x="180.54" y="142.56" style="stroke: #000000; stroke-width: 0.8"/>
      </g>
     </g>
     <g id="text_16">
      <!-- 0.50 -->
      <g transform="translate(146.82125 147.119062) scale(0.12 -0.12)">
       <use xlink:href="#DejaVuSans-30"/>
       <use xlink:href="#DejaVuSans-2e" transform="translate(63.623047 0)"/>
       <use xlink:href="#DejaVuSans-35" transform="translate(95.410156 0)"/>
       <use xlink:href="#DejaVuSans-30" transform="translate(159.033203 0)"/>
      </g>
     </g>
    </g>
    <g id="ytick_8">
     <g id="line2d_31">
      <path d="M 180.54 104.76 
L 1299.888 104.76 
" clip-path="url(#p7f53027878)" style="fill: none; stroke: #b0b0b0; stroke-width: 0.8; stroke-linecap: square"/>
     </g>
     <g id="line2d_32">
      <g>
       <use xlink:href="#ma5b5de947f" x="180.54" y="104.76" style="stroke: #000000; stroke-width: 0.8"/>
      </g>
     </g>
     <g id="text_17">
      <!-- 0.75 -->
      <g transform="translate(146.82125 109.319062) scale(0.12 -0.12)">
       <use xlink:href="#DejaVuSans-30"/>
       <use xlink:href="#DejaVuSans-2e" transform="translate(63.623047 0)"/>
       <use xlink:href="#DejaVuSans-37" transform="translate(95.410156 0)"/>
       <use xlink:href="#DejaVuSans-35" transform="translate(159.033203 0)"/>
      </g>
     </g>
    </g>
    <g id="ytick_9">
     <g id="line2d_33">
      <path d="M 180.54 66.96 
L 1299.888 66.96 
" clip-path="url(#p7f53027878)" style="fill: none; stroke: #b0b0b0; stroke-width: 0.8; stroke-linecap: square"/>
     </g>
     <g id="line2d_34">
      <g>
       <use xlink:href="#ma5b5de947f" x="180.54" y="66.96" style="stroke: #000000; stroke-width: 0.8"/>
      </g>
     </g>
     <g id="text_18">
      <!-- 1.00 -->
      <g transform="translate(146.82125 71.519062) scale(0.12 -0.12)">
       <use xlink:href="#DejaVuSans-31"/>
       <use xlink:href="#DejaVuSans-2e" transform="translate(63.623047 0)"/>
       <use xlink:href="#DejaVuSans-30" transform="translate(95.410156 0)"/>
       <use xlink:href="#DejaVuSans-30" transform="translate(159.033203 0)"/>
      </g>
     </g>
    </g>
    <g id="text_19">
     <!-- Quaternion components (q_nb) -->
     <g transform="translate(129.464687 327.286719) rotate(-90) scale(0.14 -0.14)">
      <defs>
       <path id="DejaVuSans-51" d="M 2522 4238 
Q 1834 4238 1429 3725 
Q 1025 3213 1025 2328 
Q 1025 1447 1429 934 
Q 1834 422 2522 422 
Q 3209 422 3611 934 
Q 4013 1447 4013 2328 
Q 4013 3213 3611 3725 
Q 3209 4238 2522 4238 
z
M 3406 84 
L 4238 -825 
L 3475 -825 
L 2784 -78 
Q 2681 -84 2626 -87 
Q 2572 -91 2522 -91 
Q 1538 -91 948 567 
Q 359 1225 359 2328 
Q 359 3434 948 4092 
Q 1538 4750 2522 4750 
Q 3503 4750 4090 4092 
Q 4678 3434 4678 2328 
Q 4678 1516 4351 937 
Q 4025 359 3406 84 
z
" transform="scale(0.015625)"/>
       <path id="DejaVuSans-75" d="M 544 1381 
L 544 3500 
L 1119 3500 
L 1119 1403 
Q 1119 906 1312 657 
Q 1506 409 1894 409 
Q 2359 409 2629 706 
Q 2900 1003 2900 1516 
L 2900 3500 
L 3475 3500 
L 3475 0 
L 2900 0 
L 2900 538 
Q 2691 219 2414 64 
Q 2138 -91 1772 -91 
Q 1169 -91 856 284 
Q 544 659 544 1381 
z
M 1991 3584 
L 1991 3584 
z
" transform="scale(0.015625)"/>
       <path id="DejaVuSans-61" d="M 2194 1759 
Q 1497 1759 1228 1600 
Q 959 1441 959 1056 
Q 959 750 1161 570 
Q 1363 391 1709 391 
Q 2188 391 2477 730 
Q 2766 1069 2766 1631 
L 2766 1759 
L 2194 1759 
z
M 3341 1997 
L 3341 0 
L 2766 0 
L 2766 531 
Q 2569 213 2275 61 
Q 1981 -91 1556 -91 
Q 1019 -91 701 211 
Q 384 513 384 1019 
Q 384 1609 779 1909 
Q 1175 2209 1959 2209 
L 2766 2209 
L 2766 2266 
Q 2766 2663 2505 2880 
Q 2244 3097 1772 3097 
Q 1472 3097 1187 3025 
Q 903 2953 641 2809 
L 641 3341 
Q 956 3463 1253 3523 
Q 1550 3584 1831 3584 
Q 2591 3584 2966 3190 
Q 3341 2797 3341 1997 
z
" transform="scale(0.015625)"/>
       <path id="DejaVuSans-74" d="M 1172 4494 
L 1172 3500 
L 2356 3500 
L 2356 3053 
L 1172 3053 
L 1172 1153 
Q 1172 725 1289 603 
Q 1406 481 1766 481 
L 2356 481 
L 2356 0 
L 1766 0 
Q 1100 0 847 248 
Q 594 497 594 1153 
L 594 3053 
L 172 3053 
L 172 3500 
L 594 3500 
L 594 4494 
L 1172 4494 
z
" transform="scale(0.015625)"/>
       <path id="DejaVuSans-72" d="M 2631 2963 
Q 2534 3019 2420 3045 
Q 2306 3072 2169 3072 
Q 1681 3072 1420 2755 
Q 1159 2438 1159 1844 
L 1159 0 
L 581 0 
L 581 3500 
L 1159 3500 
L 1159 2956 
Q 1341 3275 1631 3429 
Q 1922 3584 2338 3584 
Q 2397 3584 2469 3576 
Q 2541 3569 2628 3553 
L 2631 2963 
z
" transform="scale(0.015625)"/>
       <path id="DejaVuSans-6e" d="M 3513 2113 
L 3513 0 
L 2938 0 
L 2938 2094 
Q 2938 2591 2744 2837 
Q 2550 3084 2163 3084 
Q 1697 3084 1428 2787 
Q 1159 2491 1159 1978 
L 1159 0 
L 581 0 
L 581 3500 
L 1159 3500 
L 1159 2956 
Q 1366 3272 1645 3428 
Q 1925 3584 2291 3584 
Q 2894 3584 3203 3211 
Q 3513 2838 3513 2113 
z
" transform="scale(0.015625)"/>
       <path id="DejaVuSans-6f" d="M 1959 3097 
Q 1497 3097 1228 2736 
Q 959 2375 959 1747 
Q 959 1119 1226 758 
Q 1494 397 1959 397 
Q 2419 397 2687 759 
Q 2956 1122 2956 1747 
Q 2956 2369 2687 2733 
Q 2419 3097 1959 3097 
z
M 1959 3584 
Q 2709 3584 3137 3096 
Q 3566 2609 3566 1747 
Q 3566 888 3137 398 
Q 2709 -91 1959 -91 
Q 1206 -91 779 398 
Q 353 888 353 1747 
Q 353 2609 779 3096 
Q 1206 3584 1959 3584 
z
" transform="scale(0.015625)"/>
       <path id="DejaVuSans-63" d="M 3122 3366 
L 3122 2828 
Q 2878 2963 2633 3030 
Q 2388 3097 2138 3097 
Q 1578 3097 1268 2742 
Q 959 2388 959 1747 
Q 959 1106 1268 751 
Q 1578 397 2138 397 
Q 2388 397 2633 464 
Q 2878 531 3122 666 
L 3122 134 
Q 2881 22 2623 -34 
Q 2366 -91 2075 -91 
Q 1284 -91 818 406 
Q 353 903 353 1747 
Q 353 2603 823 3093 
Q 1294 3584 2113 3584 
Q 2378 3584 2631 3529 
Q 2884 3475 3122 3366 
z
" transform="scale(0.015625)"/>
       <path id="DejaVuSans-70" d="M 1159 525 
L 1159 -1331 
L 581 -1331 
L 581 3500 
L 1159 3500 
L 1159 2969 
Q 1341 3281 1617 3432 
Q 1894 3584 2278 3584 
Q 2916 3584 3314 3078 
Q 3713 2572 3713 1747 
Q 3713 922 3314 415 
Q 2916 -91 2278 -91 
Q 1894 -91 1617 61 
Q 1341 213 1159 525 
z
M 3116 1747 
Q 3116 2381 2855 2742 
Q 2594 3103 2138 3103 
Q 1681 3103 1420 2742 
Q 1159 2381 1159 1747 
Q 1159 1113 1420 752 
Q 1681 391 2138 391 
Q 2594 391 2855 752 
Q 3116 1113 3116 1747 
z
" transform="scale(0.015625)"/>
       <path id="DejaVuSans-28" d="M 1984 4856 
Q 1566 4138 1362 3434 
Q 1159 2731 1159 2009 
Q 1159 1288 1364 580 
Q 1569 -128 1984 -844 
L 1484 -844 
Q 1016 -109 783 600 
Q 550 1309 550 2009 
Q 550 2706 781 3412 
Q 1013 4119 1484 4856 
L 1984 4856 
z
" transform="scale(0.015625)"/>
       <path id="DejaVuSans-71" d="M 947 1747 
Q 947 1113 1208 752 
Q 1469 391 1925 391 
Q 2381 391 2643 752 
Q 2906 1113 2906 1747 
Q 2906 2381 2643 2742 
Q 2381 3103 1925 3103 
Q 1469 3103 1208 2742 
Q 947 2381 947 1747 
z
M 2906 525 
Q 2725 213 2448 61 
Q 2172 -91 1784 -91 
Q 1150 -91 751 415 
Q 353 922 353 1747 
Q 353 2572 751 3078 
Q 1150 3584 1784 3584 
Q 2172 3584 2448 3432 
Q 2725 3281 2906 2969 
L 2906 3500 
L 3481 3500 
L 3481 -1331 
L 2906 -1331 
L 2906 525 
z
" transform="scale(0.015625)"/>
       <path id="DejaVuSans-5f" d="M 3263 -1063 
L 3263 -1509 
L -63 -1509 
L -63 -1063 
L 3263 -1063 
z
" transform="scale(0.015625)"/>
       <path id="DejaVuSans-62" d="M 3116 1747 
Q 3116 2381 2855 2742 
Q 2594 3103 2138 3103 
Q 1681 3103 1420 2742 
Q 1159 2381 1159 1747 
Q 1159 1113 1420 752 
Q 1681 391 2138 391 
Q 2594 391 2855 752 
Q 3116 1113 3116 1747 
z
M 1159 2969 
Q 1341 3281 1617 3432 
Q 1894 3584 2278 3584 
Q 2916 3584 3314 3078 
Q 3713 2572 3713 1747 
Q 3713 922 3314 415 
Q 2916 -91 2278 -91 
Q 1894 -91 1617 61 
Q 1341 213 1159 525 
L 1159 0 
L 581 0 
L 581 4863 
L 1159 4863 
L 1159 2969 
z
" transform="scale(0.015625)"/>
       <path id="DejaVuSans-29" d="M 513 4856 
L 1013 4856 
Q 1481 4119 1714 3412 
Q 1947 2706 1947 2009 
Q 1947 1309 1714 600 
Q 1481 -109 1013 -844 
L 513 -844 
Q 928 -128 1133 580 
Q 1338 1288 1338 2009 
Q 1338 2731 1133 3434 
Q 928 4138 513 4856 
z
" transform="scale(0.015625)"/>
      </defs>
      <use xlink:href="#DejaVuSans-51"/>
      <use xlink:href="#DejaVuSans-75" transform="translate(78.710938 0)"/>
      <use xlink:href="#DejaVuSans-61" transform="translate(142.089844 0)"/>
      <use xlink:href="#DejaVuSans-74" transform="translate(203.369141 0)"/>
      <use xlink:href="#DejaVuSans-65" transform="translate(242.578125 0)"/>
      <use xlink:href="#DejaVuSans-72" transform="translate(304.101562 0)"/>
      <use xlink:href="#DejaVuSans-6e" transform="translate(343.464844 0)"/>
      <use xlink:href="#DejaVuSans-69" transform="translate(406.84375 0)"/>
      <use xlink:href="#DejaVuSans-6f" transform="translate(434.626953 0)"/>
      <use xlink:href="#DejaVuSans-6e" transform="translate(495.808594 0)"/>
      <use xlink:href="#DejaVuSans-20" transform="translate(559.1875 0)"/>
      <use xlink:href="#DejaVuSans-63" transform="translate(590.974609 0)"/>
      <use xlink:href="#DejaVuSans-6f" transform="translate(645.955078 0)"/>
      <use xlink:href="#DejaVuSans-6d" transform="translate(707.136719 0)"/>
      <use xlink:href="#DejaVuSans-70" transform="translate(804.548828 0)"/>
      <use xlink:href="#DejaVuSans-6f" transform="translate(868.025391 0)"/>
      <use xlink:href="#DejaVuSans-6e" transform="translate(929.207031 0)"/>
      <use xlink:href="#DejaVuSans-65" transform="translate(992.585938 0)"/>
      <use xlink:href="#DejaVuSans-6e" transform="translate(1054.109375 0)"/>
      <use xlink:href="#DejaVuSans-74" transform="translate(1117.488281 0)"/>
      <use xlink:href="#DejaVuSans-73" transform="translate(1156.697266 0)"/>
      <use xlink:href="#DejaVuSans-20" transform="translate(1208.796875 0)"/>
      <use xlink:href="#DejaVuSans-28" transform="translate(1240.583984 0)"/>
      <use xlink:href="#DejaVuSans-71" transform="translate(1279.597656 0)"/>
      <use xlink:href="#DejaVuSans-5f" transform="translate(1343.074219 0)"/>
      <use xlink:href="#DejaVuSans-6e" transform="translate(1393.074219 0)"/>
      <use xlink:href="#DejaVuSans-62" transform="translate(1456.453125 0)"/>
      <use xlink:href="#DejaVuSans-29" transform="translate(1519.929688 0)"/>
     </g>
    </g>
   </g>
   <g id="line2d_35">
    <path d="M 180.54 111.225917 
L 182.050591 111.337654 
L 184.920714 111.467534 
L 186.657894 111.361846 
L 190.283313 111.245119 
L 190.963079 111.278081 
L 193.682143 111.475699 
L 193.984261 111.51985 
L 199.724507 111.587436 
L 200.102155 111.549787 
L 201.084039 111.549787 
L 206.975344 111.700534 
L 213.621945 111.49097 
L 222.685491 111.580783 
L 226.915147 111.756326 
L 227.594913 111.740753 
L 238.24458 112.021229 
L 238.697757 112.051318 
L 242.625294 112.129186 
L 245.04224 111.99991 
L 245.948594 111.953491 
L 255.1632 111.91554 
L 280.163483 112.413895 
L 280.54113 112.362034 
L 281.069837 112.367628 
L 282.958076 112.368535 
L 289.529147 112.281595 
L 292.248211 112.326653 
L 292.625859 112.294901 
L 295.7981 112.302461 
L 304.33294 112.039373 
L 305.163765 112.074905 
L 309.620009 112.223383 
L 310.148716 112.195714 
L 311.885896 112.205239 
L 312.565662 112.243946 
L 320.345206 112.510814 
L 323.592977 112.619678 
L 323.970624 112.598208 
L 326.085452 112.602744 
L 344.741252 112.299286 
L 345.04337 112.247575 
L 350.028321 112.108471 
L 350.632557 112.122835 
L 364.378936 112.124347 
L 366.267175 112.090025 
L 367.324589 112.109681 
L 384.318738 111.977532 
L 388.548394 112.151412 
L 388.850512 112.128127 
L 390.88981 112.091386 
L 396.478997 112.04149 
L 397.007704 112.022136 
L 411.13173 111.592426 
L 415.285856 111.613291 
L 415.587974 111.221834 
L 415.965622 110.34049 
L 416.494329 108.548014 
L 417.702802 103.054313 
L 422.385634 80.199828 
L 423.594107 75.960029 
L 424.651521 73.020096 
L 425.633405 70.899214 
L 426.53976 69.42577 
L 427.446114 68.356786 
L 428.20141 67.727794 
L 429.032235 67.270867 
L 429.938589 67.019119 
L 430.996003 66.96635 
L 432.355535 67.147488 
L 435.376717 67.958676 
L 437.038368 68.359054 
L 439.077666 68.674154 
L 441.343552 68.778785 
L 443.760498 68.641949 
L 451.615572 67.777085 
L 453.277222 67.606229 
L 458.186643 67.242744 
L 464.984303 67.026679 
L 476.011618 66.960302 
L 634.472623 67.063118 
L 635.227919 67.35569 
L 635.907685 67.856011 
L 636.587451 68.608231 
L 637.342747 69.786684 
L 638.249101 71.6472 
L 639.155456 74.059445 
L 640.288399 77.693688 
L 641.79899 83.391206 
L 643.838288 92.101234 
L 645.424409 99.029218 
L 647.690296 108.386078 
L 649.200887 113.689267 
L 650.711478 118.272895 
L 651.919951 121.193777 
L 653.128423 123.590297 
L 654.185837 125.195436 
L 655.167721 126.362246 
L 655.46984 126.603864 
L 656.451724 127.308758 
L 657.509138 127.805753 
L 658.264433 127.899799 
L 659.246317 127.896473 
L 660.681379 127.703844 
L 661.738793 127.294394 
L 663.022795 126.631685 
L 665.213152 125.334238 
L 668.007746 123.379675 
L 668.536453 123.012713 
L 673.596933 119.484461 
L 679.563768 116.02697 
L 682.131772 114.789096 
L 683.868952 114.061673 
L 684.473189 113.842433 
L 687.267782 112.83287 
L 687.72096 112.737312 
L 689.30708 112.376246 
L 693.914383 111.289723 
L 696.708977 110.880274 
L 697.76639 110.739658 
L 700.258866 110.480954 
L 704.337462 110.183998 
L 706.980996 110.157084 
L 713.552067 110.081938 
L 721.935848 110.492294 
L 733.41634 110.54597 
L 735.833286 110.542493 
L 741.271414 110.523593 
L 741.800121 110.457367 
L 750.712608 110.365438 
L 751.014726 110.309191 
L 756.528384 110.011327 
L 758.643211 109.967026 
L 758.94533 109.933006 
L 761.286746 110.037485 
L 761.815453 110.091766 
L 768.764172 110.121098 
L 773.371474 109.965967 
L 773.749122 109.971562 
L 774.579947 109.924992 
L 777.147952 109.848787 
L 777.5256 109.845007 
L 778.507484 109.714522 
L 783.114787 109.579651 
L 793.537866 109.847578 
L 811.5139 109.647691 
L 811.891547 109.664172 
L 812.571313 109.608682 
L 814.91273 109.61987 
L 815.592496 109.620929 
L 818.689207 109.679443 
L 819.066855 109.724047 
L 819.595562 109.729944 
L 827.072988 109.788156 
L 831.227113 109.648145 
L 835.909946 109.840471 
L 839.988542 110.07211 
L 844.444785 110.320531 
L 856.378455 110.591179 
L 856.680573 110.991708 
L 857.133751 112.091234 
L 857.737987 114.34729 
L 858.568812 118.428782 
L 859.550696 124.48026 
L 860.834699 133.787376 
L 862.571879 148.108435 
L 867.783418 191.704234 
L 869.06742 201.021178 
L 870.8046 212.303071 
L 872.768368 222.659546 
L 874.052371 228.07624 
L 875.260844 232.265221 
L 876.620376 236.148718 
L 877.52673 238.011804 
L 878.357555 239.320289 
L 878.961792 240.115298 
L 879.792617 240.929208 
L 880.623442 241.471411 
L 881.454267 241.827034 
L 882.285092 241.901575 
L 883.191447 241.703806 
L 883.946743 241.383413 
L 885.608393 240.481958 
L 887.043454 239.250737 
L 887.421102 238.87697 
L 887.79875 238.512881 
L 893.161348 233.327628 
L 898.977124 227.832279 
L 901.167481 226.143753 
L 906.983257 222.458903 
L 909.475732 221.217052 
L 910.910794 220.731821 
L 912.345855 220.143094 
L 912.723503 220.006515 
L 913.101151 219.936585 
L 913.327739 219.833965 
L 915.367037 219.499984 
L 915.669155 219.464463 
L 916.877628 219.2909 
L 917.179747 219.281284 
L 921.031754 218.835221 
L 921.258343 218.90184 
L 924.883761 218.844073 
L 930.850596 218.603243 
L 932.059069 218.483122 
L 935.004721 218.278458 
L 935.382369 218.244771 
L 935.684487 218.16842 
L 937.723785 217.987116 
L 942.935325 217.784347 
L 944.068268 217.644558 
L 944.521445 217.559538 
L 946.409684 217.466034 
L 950.110632 217.423608 
L 954.642406 217.874454 
L 954.868994 217.954906 
L 959.551827 218.313521 
L 959.778415 218.257915 
L 970.80573 218.740192 
L 974.808797 218.541535 
L 976.545977 218.680728 
L 977.225743 218.784705 
L 978.962922 218.799544 
L 982.588341 218.76208 
L 983.041518 218.707137 
L 986.0627 218.625388 
L 987.120114 218.583511 
L 987.346703 218.629208 
L 989.386001 218.588921 
L 989.612589 218.632151 
L 1004.642971 218.106624 
L 1007.890742 218.335827 
L 1008.268389 218.385595 
L 1008.570508 218.379331 
L 1010.609806 218.424122 
L 1019.522293 218.692209 
L 1024.129596 219.116839 
L 1024.507244 219.095712 
L 1025.035951 219.108078 
L 1029.794313 219.172159 
L 1030.17196 219.216944 
L 1032.362317 219.389832 
L 1034.326086 219.505883 
L 1036.96962 219.574606 
L 1037.196209 219.625889 
L 1044.144928 219.490797 
L 1044.371517 219.413667 
L 1046.788462 219.267821 
L 1047.015051 219.205094 
L 1049.054349 219.17244 
L 1049.507526 219.130861 
L 1056.229657 218.720817 
L 1056.607304 218.648731 
L 1056.833893 218.677822 
L 1060.534841 218.181637 
L 1062.272021 217.951451 
L 1062.49861 217.97972 
L 1064.462378 217.840148 
L 1067.105913 217.722444 
L 1070.504743 217.874324 
L 1077.75558 218.643181 
L 1077.982168 218.61334 
L 1078.284287 218.511111 
L 1078.510875 218.29562 
L 1078.888523 217.435427 
L 1079.266171 216.044697 
L 1080.172526 210.930009 
L 1081.15441 203.764399 
L 1082.287353 194.190415 
L 1087.196774 150.056496 
L 1090.444545 127.123387 
L 1091.879606 119.30665 
L 1093.163609 113.505257 
L 1094.59867 108.116791 
L 1095.807143 104.54333 
L 1096.864557 102.036888 
L 1097.9975 99.810317 
L 1099.205973 97.94965 
L 1100.414446 96.608052 
L 1101.094212 96.063883 
L 1102.227155 95.381215 
L 1103.20904 95.041318 
L 1104.417513 94.851713 
L 1105.474926 94.89042 
L 1106.834458 95.14867 
L 1111.366232 97.166585 
L 1111.66835 97.37509 
L 1113.783177 98.673595 
L 1120.278719 102.729384 
L 1124.357315 105.084324 
L 1127.302968 106.524202 
L 1130.550738 107.796398 
L 1132.741096 108.469692 
L 1136.290985 109.442362 
L 1136.744162 109.49513 
L 1139.840874 110.061223 
L 1143.390763 110.472185 
L 1144.674765 110.429546 
L 1146.411945 110.367252 
L 1149.131009 110.3355 
L 1149.659716 110.264134 
L 1151.019248 110.301329 
L 1151.321366 110.335802 
L 1156.608435 110.23843 
L 1161.971033 110.003314 
L 1162.273151 110.022516 
L 1168.164457 109.814465 
L 1171.412228 109.827317 
L 1171.638816 109.87812 
L 1175.868471 109.880086 
L 1191.35203 109.523707 
L 1199.735811 109.886436 
L 1204.192054 110.123518 
L 1207.666414 110.005884 
L 1208.044062 109.95115 
L 1208.421709 109.946009 
L 1211.74501 109.863605 
L 1216.427842 109.833365 
L 1218.769258 109.814465 
L 1221.639381 109.890821 
L 1222.092559 109.968084 
L 1224.585034 109.935727 
L 1227.455157 109.937239 
L 1232.893285 109.97897 
L 1235.310231 110.09857 
L 1238.406943 110.113236 
L 1251.095908 110.446783 
L 1251.700144 110.518452 
L 1253.739442 110.5245 
L 1254.04156 110.496074 
L 1271.639947 110.987928 
L 1279.041843 110.736029 
L 1279.419491 110.759465 
L 1279.646079 110.714558 
L 1287.350094 110.694298 
L 1287.576683 110.740262 
L 1297.924232 110.632608 
L 1298.377409 110.705033 
L 1299.96353 110.73497 
L 1299.96353 110.73497 
" clip-path="url(#p7f53027878)" style="fill: none; stroke: #1f77b4; stroke-width: 1.5; stroke-linecap: square"/>
   </g>
   <g id="line2d_36">
    <path d="M 180.54 218.160163 
L 207.050874 218.171163 
L 262.565096 218.163591 
L 367.098 218.157076 
L 799.957878 218.161387 
L 826.921929 218.160717 
L 1078.208757 218.154925 
L 1146.336415 218.152717 
L 1201.47299 218.154914 
L 1246.866253 218.156962 
L 1299.96353 218.161786 
L 1299.96353 218.161786 
" clip-path="url(#p7f53027878)" style="fill: none; stroke: #ff7f0e; stroke-width: 1.5; stroke-linecap: square"/>
   </g>
   <g id="line2d_37">
    <path d="M 180.54 218.159921 
L 216.643127 218.148803 
L 259.997091 218.151847 
L 322.157915 218.154811 
L 415.285856 218.179089 
L 418.00492 218.149709 
L 426.313171 218.129992 
L 467.854426 218.15338 
L 529.93972 218.161763 
L 1299.96353 218.162332 
L 1299.96353 218.162332 
" clip-path="url(#p7f53027878)" style="fill: none; stroke: #9467bd; stroke-width: 1.5; stroke-linecap: square"/>
   </g>
   <g id="line2d_38">
    <path d="M 180.54 111.265078 
L 182.050591 111.153341 
L 184.920714 111.023914 
L 186.582364 111.124764 
L 190.283313 111.245875 
L 190.963079 111.212914 
L 193.682143 111.015749 
L 193.984261 110.97175 
L 199.724507 110.904466 
L 200.102155 110.942114 
L 201.084039 110.941963 
L 206.975344 110.792426 
L 213.697474 111.000629 
L 214.45277 111.004106 
L 214.754888 111.042814 
L 218.984543 110.951942 
L 219.51325 110.920795 
L 229.105504 110.656649 
L 236.43187 110.532816 
L 239.150934 110.372846 
L 241.794469 110.340943 
L 243.078471 110.428488 
L 249.196365 110.659824 
L 250.329309 110.672827 
L 251.084604 110.66058 
L 251.537781 110.661638 
L 254.861082 110.602822 
L 255.465318 110.551565 
L 259.241796 110.548692 
L 262.036389 110.492899 
L 262.338508 110.446632 
L 270.4957 110.20577 
L 279.559246 110.024179 
L 282.580428 110.144988 
L 288.924911 110.264587 
L 293.985391 110.170238 
L 304.937177 110.433024 
L 308.487066 110.314937 
L 311.05507 110.33172 
L 312.79225 110.232079 
L 319.287792 110.058502 
L 321.704738 109.950998 
L 326.236511 109.906848 
L 326.689688 109.912896 
L 337.565944 110.020702 
L 337.868062 109.980482 
L 340.964774 110.052907 
L 341.191363 110.106886 
L 344.892311 110.24478 
L 348.51773 110.335651 
L 348.970907 110.371183 
L 351.161264 110.378138 
L 351.538912 110.353342 
L 352.143148 110.359692 
L 354.711153 110.408378 
L 360.224811 110.365135 
L 360.526929 110.332022 
L 383.638972 110.59133 
L 384.167679 110.527222 
L 388.623923 110.378138 
L 391.116398 110.403238 
L 395.723701 110.418055 
L 396.176879 110.441038 
L 403.050068 110.632608 
L 412.113615 110.833553 
L 415.210326 110.822364 
L 415.512445 111.143059 
L 415.890092 111.948804 
L 416.418799 113.715274 
L 417.098565 116.807162 
L 418.00492 121.935262 
L 419.439981 131.894201 
L 421.177161 145.880201 
L 427.068466 194.907557 
L 429.107764 208.94309 
L 430.542826 217.214611 
L 431.902358 223.763744 
L 433.18636 228.974958 
L 434.319304 232.679434 
L 435.527777 235.881094 
L 436.509661 237.860906 
L 436.962838 238.564591 
L 437.944722 239.899234 
L 438.700018 240.583111 
L 439.681902 241.207265 
L 440.588257 241.448882 
L 441.64567 241.490916 
L 442.778614 241.207718 
L 443.911557 240.551662 
L 446.177444 238.899348 
L 448.594389 236.730989 
L 449.727333 235.638266 
L 451.615572 233.857433 
L 451.993219 233.418046 
L 452.219808 233.228562 
L 457.204759 228.240353 
L 460.30147 225.677195 
L 461.207825 225.003811 
L 463.322653 223.653807 
L 463.7003 223.440448 
L 464.833244 222.70353 
L 465.059832 222.606898 
L 467.854426 221.026147 
L 468.458662 220.753881 
L 471.404315 219.641154 
L 475.180793 218.670131 
L 480.921039 217.674477 
L 483.715632 217.474781 
L 484.017751 217.502729 
L 487.49211 217.268649 
L 487.718699 217.200512 
L 489.682467 217.157272 
L 495.422713 217.03863 
L 496.02695 216.990702 
L 502.220373 216.904485 
L 502.522491 216.957363 
L 507.129794 217.193434 
L 507.356383 217.252038 
L 519.063464 217.798375 
L 522.235705 218.089782 
L 522.462294 218.184563 
L 527.371715 218.659069 
L 529.788661 218.710075 
L 530.015249 218.790362 
L 535.831025 219.036526 
L 536.057614 218.991621 
L 536.963968 219.135523 
L 537.266087 219.200274 
L 539.154326 219.224416 
L 541.495742 219.265006 
L 542.099978 219.183303 
L 545.272219 219.070179 
L 545.649867 219.103774 
L 545.951985 219.067859 
L 549.048697 218.973894 
L 549.275286 218.914051 
L 553.882589 218.614813 
L 561.284485 217.849273 
L 562.568487 218.001465 
L 566.873672 218.265395 
L 568.308734 218.278546 
L 568.610852 218.340737 
L 578.127576 219.054614 
L 578.882871 219.033216 
L 579.10946 218.981061 
L 583.490174 219.016908 
L 586.435827 218.918135 
L 586.662415 218.874063 
L 591.345248 219.240543 
L 591.647366 219.316388 
L 594.668548 219.504207 
L 599.275851 219.355387 
L 599.653499 219.303916 
L 601.16409 219.290223 
L 601.390679 219.261359 
L 604.109743 219.321671 
L 611.36058 218.781574 
L 611.587168 218.703168 
L 614.306232 218.557154 
L 616.647649 218.559327 
L 617.025296 218.614382 
L 617.402944 218.61468 
L 617.705062 218.664913 
L 621.55707 218.877814 
L 621.859188 218.939581 
L 624.351663 218.974901 
L 626.693079 218.920451 
L 628.656848 219.130157 
L 631.75356 219.60306 
L 631.980148 219.713716 
L 632.659914 219.73375 
L 632.886503 219.508929 
L 633.188621 218.86691 
L 633.641798 217.214719 
L 634.246035 214.010679 
L 635.152389 207.806126 
L 636.436392 197.227418 
L 639.230985 171.681876 
L 641.496872 152.002138 
L 643.234052 138.794515 
L 644.669113 129.449146 
L 646.104175 121.432068 
L 647.237118 116.050558 
L 648.67218 110.569558 
L 649.956182 106.586345 
L 651.089126 103.79867 
L 652.146539 101.737814 
L 654.185837 98.916422 
L 655.243251 97.988054 
L 656.300665 97.370554 
L 657.282549 96.992705 
L 658.264433 96.856474 
L 659.623965 96.869628 
L 661.210086 97.128482 
L 662.645147 97.643318 
L 664.986564 98.661802 
L 665.364211 98.885426 
L 665.741859 99.057492 
L 666.874802 99.693288 
L 667.403509 99.986011 
L 677.902117 105.870262 
L 680.84777 107.257219 
L 681.452006 107.515015 
L 684.2466 108.632534 
L 685.077425 108.964116 
L 687.64543 109.770466 
L 688.098607 109.887646 
L 690.288964 110.389781 
L 690.96873 110.524198 
L 695.878151 111.560674 
L 698.597215 111.839486 
L 698.974863 111.86005 
L 699.352511 111.929148 
L 700.787572 112.07551 
L 705.017228 112.34903 
L 705.470405 112.352962 
L 712.947831 112.47241 
L 713.401008 112.430225 
L 722.766673 112.020019 
L 723.370909 112.006865 
L 729.564333 111.897698 
L 730.01751 111.915691 
L 751.014726 112.189968 
L 756.452854 112.494938 
L 759.020859 112.573865 
L 760.078273 112.556477 
L 766.573815 112.391971 
L 775.108654 112.618015 
L 776.694775 112.640242 
L 783.039257 112.940374 
L 793.688925 112.664282 
L 798.296228 112.81775 
L 798.598346 112.851014 
L 803.960944 112.791593 
L 804.338592 112.783428 
L 804.71624 112.838011 
L 807.133185 112.889419 
L 816.423321 112.914216 
L 816.725439 112.886546 
L 819.595562 112.782823 
L 826.997458 112.714632 
L 828.961227 112.819867 
L 836.438653 112.623761 
L 836.740771 112.562071 
L 839.082187 112.46742 
L 839.610894 112.461977 
L 845.049022 112.17001 
L 856.378455 111.903746 
L 856.680573 111.499891 
L 857.133751 110.406413 
L 857.737987 108.231098 
L 858.719871 103.774327 
L 862.873997 82.845223 
L 864.157999 77.876791 
L 865.215413 74.570652 
L 866.272827 71.938714 
L 867.40577 69.836882 
L 868.387654 68.561813 
L 869.294009 67.764989 
L 870.124834 67.294454 
L 871.031189 67.028796 
L 872.088602 66.964385 
L 873.372605 67.131612 
L 875.336373 67.641458 
L 877.149083 68.176102 
L 879.188381 68.597194 
L 881.227679 68.811595 
L 883.342506 68.799499 
L 886.1371 68.552136 
L 895.729353 67.491922 
L 901.922777 67.142498 
L 910.306557 66.984948 
L 932.889894 66.960151 
L 1079.945937 67.070981 
L 1080.701232 67.354783 
L 1081.380998 67.831214 
L 1082.136294 68.663117 
L 1082.891589 69.861074 
L 1083.722415 71.602898 
L 1084.704299 74.22894 
L 1085.837242 77.923512 
L 1087.272304 83.445185 
L 1089.311602 92.307773 
L 1093.163609 109.032458 
L 1095.051848 116.01684 
L 1096.33585 119.888467 
L 1097.619853 123.19385 
L 1098.903855 125.915602 
L 1099.73468 127.31148 
L 1100.792094 128.689668 
L 1101.320801 129.16489 
L 1102.302685 129.965645 
L 1102.680333 130.149504 
L 1103.057981 130.351205 
L 1105.323867 130.629413 
L 1106.758929 130.270615 
L 1107.891872 129.721457 
L 1109.629052 128.704788 
L 1111.59282 127.262642 
L 1113.632118 125.643442 
L 1114.614002 124.837546 
L 1119.447894 121.11863 
L 1123.148842 118.543543 
L 1126.623202 116.454866 
L 1127.907204 115.911605 
L 1130.626268 114.780478 
L 1130.852857 114.73799 
L 1133.420862 113.886281 
L 1136.366514 113.087794 
L 1138.179223 112.733683 
L 1138.556871 112.691196 
L 1139.387696 112.509302 
L 1142.559938 112.078382 
L 1144.221588 112.035744 
L 1144.750295 112.065379 
L 1146.109827 112.123289 
L 1146.563004 112.095166 
L 1149.055479 112.16003 
L 1151.623484 112.16003 
L 1155.70208 112.226105 
L 1162.726329 112.498416 
L 1163.632683 112.507034 
L 1169.977166 112.714632 
L 1171.789875 112.626482 
L 1172.091994 112.592614 
L 1179.49389 112.672598 
L 1184.252252 112.913309 
L 1184.6299 112.916484 
L 1191.049912 113.025499 
L 1191.503089 112.987548 
L 1200.868754 112.557989 
L 1204.494172 112.395902 
L 1208.497239 112.560257 
L 1210.385478 112.617562 
L 1216.352313 112.715539 
L 1216.654431 112.667911 
L 1218.920317 112.697395 
L 1221.639381 112.617562 
L 1222.092559 112.538182 
L 1224.585034 112.571446 
L 1227.455157 112.569782 
L 1232.440108 112.530773 
L 1236.065526 112.40059 
L 1240.899418 112.371408 
L 1243.542952 112.264056 
L 1243.84507 112.296413 
L 1250.71826 112.083221 
L 1251.246967 112.024858 
L 1254.11709 111.99749 
L 1254.796856 112.003992 
L 1265.068875 111.561127 
L 1265.446523 111.562639 
L 1265.824171 111.511534 
L 1272.999479 111.621002 
L 1273.301597 111.66485 
L 1287.350094 111.79957 
L 1287.576683 111.753151 
L 1297.924232 111.861713 
L 1298.377409 111.788683 
L 1299.96353 111.758443 
L 1299.96353 111.758443 
" clip-path="url(#p7f53027878)" style="fill: none; stroke: #d62728; stroke-width: 1.5; stroke-linecap: square"/>
   </g>
   <g id="patch_3">
    <path d="M 180.54 384.48 
L 180.54 51.84 
" style="fill: none; stroke: #000000; stroke-width: 0.8; stroke-linejoin: miter; stroke-linecap: square"/>
   </g>
   <g id="patch_4">
    <path d="M 1299.888 384.48 
L 1299.888 51.84 
" style="fill: none; stroke: #000000; stroke-width: 0.8; stroke-linejoin: miter; stroke-linecap: square"/>
   </g>
   <g id="patch_5">
    <path d="M 180.54 384.48 
L 1299.888 384.48 
" style="fill: none; stroke: #000000; stroke-width: 0.8; stroke-linejoin: miter; stroke-linecap: square"/>
   </g>
   <g id="patch_6">
    <path d="M 180.54 51.84 
L 1299.888 51.84 
" style="fill: none; stroke: #000000; stroke-width: 0.8; stroke-linejoin: miter; stroke-linecap: square"/>
   </g>
   <g id="text_20">
    <!-- Attitude Quaternion Components over Time -->
    <g transform="translate(565.24525 45.84) scale(0.16 -0.16)">
     <defs>
      <path id="DejaVuSans-41" d="M 2188 4044 
L 1331 1722 
L 3047 1722 
L 2188 4044 
z
M 1831 4666 
L 2547 4666 
L 4325 0 
L 3669 0 
L 3244 1197 
L 1141 1197 
L 716 0 
L 50 0 
L 1831 4666 
z
" transform="scale(0.015625)"/>
      <path id="DejaVuSans-64" d="M 2906 2969 
L 2906 4863 
L 3481 4863 
L 3481 0 
L 2906 0 
L 2906 525 
Q 2725 213 2448 61 
Q 2172 -91 1784 -91 
Q 1150 -91 751 415 
Q 353 922 353 1747 
Q 353 2572 751 3078 
Q 1150 3584 1784 3584 
Q 2172 3584 2448 3432 
Q 2725 3281 2906 2969 
z
M 947 1747 
Q 947 1113 1208 752 
Q 1469 391 1925 391 
Q 2381 391 2643 752 
Q 2906 1113 2906 1747 
Q 2906 2381 2643 2742 
Q 2381 3103 1925 3103 
Q 1469 3103 1208 2742 
Q 947 2381 947 1747 
z
" transform="scale(0.015625)"/>
      <path id="DejaVuSans-43" d="M 4122 4306 
L 4122 3641 
Q 3803 3938 3442 4084 
Q 3081 4231 2675 4231 
Q 1875 4231 1450 3742 
Q 1025 3253 1025 2328 
Q 1025 1406 1450 917 
Q 1875 428 2675 428 
Q 3081 428 3442 575 
Q 3803 722 4122 1019 
L 4122 359 
Q 3791 134 3420 21 
Q 3050 -91 2638 -91 
Q 1578 -91 968 557 
Q 359 1206 359 2328 
Q 359 3453 968 4101 
Q 1578 4750 2638 4750 
Q 3056 4750 3426 4639 
Q 3797 4528 4122 4306 
z
" transform="scale(0.015625)"/>
      <path id="DejaVuSans-76" d="M 191 3500 
L 800 3500 
L 1894 563 
L 2988 3500 
L 3597 3500 
L 2284 0 
L 1503 0 
L 191 3500 
z
" transform="scale(0.015625)"/>
     </defs>
     <use xlink:href="#DejaVuSans-41"/>
     <use xlink:href="#DejaVuSans-74" transform="translate(66.658203 0)"/>
     <use xlink:href="#DejaVuSans-74" transform="translate(105.867188 0)"/>
     <use xlink:href="#DejaVuSans-69" transform="translate(145.076172 0)"/>
     <use xlink:href="#DejaVuSans-74" transform="translate(172.859375 0)"/>
     <use xlink:href="#DejaVuSans-75" transform="translate(212.068359 0)"/>
     <use xlink:href="#DejaVuSans-64" transform="translate(275.447266 0)"/>
     <use xlink:href="#DejaVuSans-65" transform="translate(338.923828 0)"/>
     <use xlink:href="#DejaVuSans-20" transform="translate(400.447266 0)"/>
     <use xlink:href="#DejaVuSans-51" transform="translate(432.234375 0)"/>
     <use xlink:href="#DejaVuSans-75" transform="translate(510.945312 0)"/>
     <use xlink:href="#DejaVuSans-61" transform="translate(574.324219 0)"/>
     <use xlink:href="#DejaVuSans-74" transform="translate(635.603516 0)"/>
     <use xlink:href="#DejaVuSans-65" transform="translate(674.8125 0)"/>
     <use xlink:href="#DejaVuSans-72" transform="translate(736.335938 0)"/>
     <use xlink:href="#DejaVuSans-6e" transform="translate(775.699219 0)"/>
     <use xlink:href="#DejaVuSans-69" transform="translate(839.078125 0)"/>
     <use xlink:href="#DejaVuSans-6f" transform="translate(866.861328 0)"/>
     <use xlink:href="#DejaVuSans-6e" transform="translate(928.042969 0)"/>
     <use xlink:href="#DejaVuSans-20" transform="translate(991.421875 0)"/>
     <use xlink:href="#DejaVuSans-43" transform="translate(1023.208984 0)"/>
     <use xlink:href="#DejaVuSans-6f" transform="translate(1093.033203 0)"/>
     <use xlink:href="#DejaVuSans-6d" transform="translate(1154.214844 0)"/>
     <use xlink:href="#DejaVuSans-70" transform="translate(1251.626953 0)"/>
     <use xlink:href="#DejaVuSans-6f" transform="translate(1315.103516 0)"/>
     <use xlink:href="#DejaVuSans-6e" transform="translate(1376.285156 0)"/>
     <use xlink:href="#DejaVuSans-65" transform="translate(1439.664062 0)"/>
     <use xlink:href="#DejaVuSans-6e" transform="translate(1501.1875 0)"/>
     <use xlink:href="#DejaVuSans-74" transform="translate(1564.566406 0)"/>
     <use xlink:href="#DejaVuSans-73" transform="translate(1603.775391 0)"/>
     <use xlink:href="#DejaVuSans-20" transform="translate(1655.875 0)"/>
     <use xlink:href="#DejaVuSans-6f" transform="translate(1687.662109 0)"/>
     <use xlink:href="#DejaVuSans-76" transform="translate(1748.84375 0)"/>
     <use xlink:href="#DejaVuSans-65" transform="translate(1808.023438 0)"/>
     <use xlink:href="#DejaVuSans-72" transform="translate(1869.546875 0)"/>
     <use xlink:href="#DejaVuSans-20" transform="translate(1910.660156 0)"/>
     <use xlink:href="#DejaVuSans-54" transform="translate(1942.447266 0)"/>
     <use xlink:href="#DejaVuSans-69" transform="translate(2000.40625 0)"/>
     <use xlink:href="#DejaVuSans-6d" transform="translate(2028.189453 0)"/>
     <use xlink:href="#DejaVuSans-65" transform="translate(2125.601562 0)"/>
    </g>
   </g>
   <g id="legend_1">
    <g id="patch_7">
     <path d="M 190.34 377.48 
L 255.477187 377.48 
Q 258.277187 377.48 258.277187 374.68 
L 258.277187 293.8825 
Q 258.277187 291.0825 255.477187 291.0825 
L 190.34 291.0825 
Q 187.54 291.0825 187.54 293.8825 
L 187.54 374.68 
Q 187.54 377.48 190.34 377.48 
z
" style="fill: #ffffff; opacity: 0.8; stroke: #cccccc; stroke-linejoin: miter"/>
    </g>
    <g id="line2d_39">
     <path d="M 193.14 302.420313 
L 207.14 302.420313 
L 221.14 302.420313 
" style="fill: none; stroke: #1f77b4; stroke-width: 1.5; stroke-linecap: square"/>
    </g>
    <g id="text_21">
     <!-- qw -->
     <g transform="translate(232.34 307.320312) scale(0.14 -0.14)">
      <defs>
       <path id="DejaVuSans-77" d="M 269 3500 
L 844 3500 
L 1563 769 
L 2278 3500 
L 2956 3500 
L 3675 769 
L 4391 3500 
L 4966 3500 
L 4050 0 
L 3372 0 
L 2619 2869 
L 1863 0 
L 1184 0 
L 269 3500 
z
" transform="scale(0.015625)"/>
      </defs>
      <use xlink:href="#DejaVuSans-71"/>
      <use xlink:href="#DejaVuSans-77" transform="translate(63.476562 0)"/>
     </g>
    </g>
    <g id="line2d_40">
     <path d="M 193.14 322.969688 
L 207.14 322.969688 
L 221.14 322.969688 
" style="fill: none; stroke: #ff7f0e; stroke-width: 1.5; stroke-linecap: square"/>
    </g>
    <g id="text_22">
     <!-- qx -->
     <g transform="translate(232.34 327.869687) scale(0.14 -0.14)">
      <defs>
       <path id="DejaVuSans-78" d="M 3513 3500 
L 2247 1797 
L 3578 0 
L 2900 0 
L 1881 1375 
L 863 0 
L 184 0 
L 1544 1831 
L 300 3500 
L 978 3500 
L 1906 2253 
L 2834 3500 
L 3513 3500 
z
" transform="scale(0.015625)"/>
      </defs>
      <use xlink:href="#DejaVuSans-71"/>
      <use xlink:href="#DejaVuSans-78" transform="translate(63.476562 0)"/>
     </g>
    </g>
    <g id="line2d_41">
     <path d="M 193.14 343.519063 
L 207.14 343.519063 
L 221.14 343.519063 
" style="fill: none; stroke: #9467bd; stroke-width: 1.5; stroke-linecap: square"/>
    </g>
    <g id="text_23">
     <!-- qy -->
     <g transform="translate(232.34 348.419062) scale(0.14 -0.14)">
      <defs>
       <path id="DejaVuSans-79" d="M 2059 -325 
Q 1816 -950 1584 -1140 
Q 1353 -1331 966 -1331 
L 506 -1331 
L 506 -850 
L 844 -850 
Q 1081 -850 1212 -737 
Q 1344 -625 1503 -206 
L 1606 56 
L 191 3500 
L 800 3500 
L 1894 763 
L 2988 3500 
L 3597 3500 
L 2059 -325 
z
" transform="scale(0.015625)"/>
      </defs>
      <use xlink:href="#DejaVuSans-71"/>
      <use xlink:href="#DejaVuSans-79" transform="translate(63.476562 0)"/>
     </g>
    </g>
    <g id="line2d_42">
     <path d="M 193.14 364.068438 
L 207.14 364.068438 
L 221.14 364.068438 
" style="fill: none; stroke: #d62728; stroke-width: 1.5; stroke-linecap: square"/>
    </g>
    <g id="text_24">
     <!-- qz -->
     <g transform="translate(232.34 368.968437) scale(0.14 -0.14)">
      <defs>
       <path id="DejaVuSans-7a" d="M 353 3500 
L 3084 3500 
L 3084 2975 
L 922 459 
L 3084 459 
L 3084 0 
L 275 0 
L 275 525 
L 2438 3041 
L 353 3041 
L 353 3500 
z
" transform="scale(0.015625)"/>
      </defs>
      <use xlink:href="#DejaVuSans-71"/>
      <use xlink:href="#DejaVuSans-7a" transform="translate(63.476562 0)"/>
     </g>
    </g>
   </g>
  </g>
 </g>
 <defs>
  <clipPath id="p7f53027878">
   <rect x="180.54" y="51.84" width="1119.348" height="332.64"/>
  </clipPath>
 </defs>
</svg>
