<?xml version="1.0" encoding="utf-8" standalone="no"?>
<!DOCTYPE svg PUBLIC "-//W3C//DTD SVG 1.1//EN"
  "http://www.w3.org/Graphics/SVG/1.1/DTD/svg11.dtd">
<svg xmlns:xlink="http://www.w3.org/1999/xlink" width="460.8pt" height="345.6pt" viewBox="0 0 460.8 345.6" xmlns="http://www.w3.org/2000/svg" version="1.1">
 <metadata>
  <rdf:RDF xmlns:dc="http://purl.org/dc/elements/1.1/" xmlns:cc="http://creativecommons.org/ns#" xmlns:rdf="http://www.w3.org/1999/02/22-rdf-syntax-ns#">
   <cc:Work>
    <dc:type rdf:resource="http://purl.org/dc/dcmitype/StillImage"/>
    <dc:date>2026-01-17T05:38:49.383921</dc:date>
    <dc:format>image/svg+xml</dc:format>
    <dc:creator>
     <cc:Agent>
      <dc:title>Matplotlib v3.10.7, https://matplotlib.org/</dc:title>
     </cc:Agent>
    </dc:creator>
   </cc:Work>
  </rdf:RDF>
 </metadata>
 <defs>
  <style type="text/css">*{stroke-linejoin: round; stroke-linecap: butt}</style>
 </defs>
 <g id="figure_1">
  <g id="patch_1">
   <path d="M 0 345.6 
L 460.8 345.6 
L 460.8 0 
L 0 0 
z
" style="fill: #ffffff"/>
  </g>
  <g id="axes_1">
   <g id="patch_2">
    <path d="M 55.779096 303.64 
L 450 303.64 
L 450 25.44 
L 55.779096 25.44 
z
" style="fill: #ffffff"/>
   </g>
   <g id="matplotlib.axis_1">
    <g id="xtick_1">
     <g id="line2d_1">
      <path d="M 73.099927 303.64 
L 73.099927 25.44 
" clip-path="url(#p9ef7b63613)" style="fill: none; stroke: #b0b0b0; stroke-opacity: 0.3; stroke-width: 0.8; stroke-linecap: square"/>
     </g>
     <g id="line2d_2">
      <defs>
       <path id="mea9ae787b4" d="M 0 0 
L 0 3.5 
" style="stroke: #000000; stroke-width: 0.8"/>
      </defs>
      <g>
       <use xlink:href="#mea9ae787b4" x="73.099927" y="303.64" style="stroke: #000000; stroke-width: 0.8"/>
      </g>
     </g>
     <g id="text_1">
      <!-- 0 -->
      <g transform="translate(69.918677 318.238437) scale(0.1 -0.1)">
       <defs>
        <path id="DejaVuSans-30" d="M 2034 4250 
Q 1547 4250 1301 3770 
Q 1056 3291 1056 2328 
Q 1056 1369 1301 889 
Q 1547 409 2034 409 
Q 2525 409 2770 889 
Q 3016 1369 3016 2328 
Q 3016 3291 2770 3770 
Q 2525 4250 2034 4250 
z
M 2034 4750 
Q 2819 4750 3233 4129 
Q 3647 3509 3647 2328 
Q 3647 1150 3233 529 
Q 2819 -91 2034 -91 
Q 1250 -91 836 529 
Q 422 1150 422 2328 
Q 422 3509 836 4129 
Q 1250 4750 2034 4750 
z
" transform="scale(0.015625)"/>
       </defs>
       <use xlink:href="#DejaVuSans-30"/>
      </g>
     </g>
    </g>
    <g id="xtick_2">
     <g id="line2d_3">
      <path d="M 132.930083 303.64 
L 132.930083 25.44 
" clip-path="url(#p9ef7b63613)" style="fill: none; stroke: #b0b0b0; stroke-opacity: 0.3; stroke-width: 0.8; stroke-linecap: square"/>
     </g>
     <g id="line2d_4">
      <g>
       <use xlink:href="#mea9ae787b4" x="132.930083" y="303.64" style="stroke: #000000; stroke-width: 0.8"/>
      </g>
     </g>
     <g id="text_2">
      <!-- 100 -->
      <g transform="translate(123.386333 318.238437) scale(0.1 -0.1)">
       <defs>
        <path id="DejaVuSans-31" d="M 794 531 
L 1825 531 
L 1825 4091 
L 703 3866 
L 703 4441 
L 1819 4666 
L 2450 4666 
L 2450 531 
L 3481 531 
L 3481 0 
L 794 0 
L 794 531 
z
" transform="scale(0.015625)"/>
       </defs>
       <use xlink:href="#DejaVuSans-31"/>
       <use xlink:href="#DejaVuSans-30" transform="translate(63.623047 0)"/>
       <use xlink:href="#DejaVuSans-30" transform="translate(127.246094 0)"/>
      </g>
     </g>
    </g>
    <g id="xtick_3">
     <g id="line2d_5">
      <path d="M 192.76024 303.64 
L 192.76024 25.44 
" clip-path="url(#p9ef7b63613)" style="fill: none; stroke: #b0b0b0; stroke-opacity: 0.3; stroke-width: 0.8; stroke-linecap: square"/>
     </g>
     <g id="line2d_6">
      <g>
       <use xlink:href="#mea9ae787b4" x="192.76024" y="303.64" style="stroke: #000000; stroke-width: 0.8"/>
      </g>
     </g>
     <g id="text_3">
      <!-- 200 -->
      <g transform="translate(183.21649 318.238437) scale(0.1 -0.1)">
       <defs>
        <path id="DejaVuSans-32" d="M 1228 531 
L 3431 531 
L 3431 0 
L 469 0 
L 469 531 
Q 828 903 1448 1529 
Q 2069 2156 2228 2338 
Q 2531 2678 2651 2914 
Q 2772 3150 2772 3378 
Q 2772 3750 2511 3984 
Q 2250 4219 1831 4219 
Q 1534 4219 1204 4116 
Q 875 4013 500 3803 
L 500 4441 
Q 881 4594 1212 4672 
Q 1544 4750 1819 4750 
Q 2544 4750 2975 4387 
Q 3406 4025 3406 3419 
Q 3406 3131 3298 2873 
Q 3191 2616 2906 2266 
Q 2828 2175 2409 1742 
Q 1991 1309 1228 531 
z
" transform="scale(0.015625)"/>
       </defs>
       <use xlink:href="#DejaVuSans-32"/>
       <use xlink:href="#DejaVuSans-30" transform="translate(63.623047 0)"/>
       <use xlink:href="#DejaVuSans-30" transform="translate(127.246094 0)"/>
      </g>
     </g>
    </g>
    <g id="xtick_4">
     <g id="line2d_7">
      <path d="M 252.590397 303.64 
L 252.590397 25.44 
" clip-path="url(#p9ef7b63613)" style="fill: none; stroke: #b0b0b0; stroke-opacity: 0.3; stroke-width: 0.8; stroke-linecap: square"/>
     </g>
     <g id="line2d_8">
      <g>
       <use xlink:href="#mea9ae787b4" x="252.590397" y="303.64" style="stroke: #000000; stroke-width: 0.8"/>
      </g>
     </g>
     <g id="text_4">
      <!-- 300 -->
      <g transform="translate(243.046647 318.238437) scale(0.1 -0.1)">
       <defs>
        <path id="DejaVuSans-33" d="M 2597 2516 
Q 3050 2419 3304 2112 
Q 3559 1806 3559 1356 
Q 3559 666 3084 287 
Q 2609 -91 1734 -91 
Q 1441 -91 1130 -33 
Q 819 25 488 141 
L 488 750 
Q 750 597 1062 519 
Q 1375 441 1716 441 
Q 2309 441 2620 675 
Q 2931 909 2931 1356 
Q 2931 1769 2642 2001 
Q 2353 2234 1838 2234 
L 1294 2234 
L 1294 2753 
L 1863 2753 
Q 2328 2753 2575 2939 
Q 2822 3125 2822 3475 
Q 2822 3834 2567 4026 
Q 2313 4219 1838 4219 
Q 1578 4219 1281 4162 
Q 984 4106 628 3988 
L 628 4550 
Q 988 4650 1302 4700 
Q 1616 4750 1894 4750 
Q 2613 4750 3031 4423 
Q 3450 4097 3450 3541 
Q 3450 3153 3228 2886 
Q 3006 2619 2597 2516 
z
" transform="scale(0.015625)"/>
       </defs>
       <use xlink:href="#DejaVuSans-33"/>
       <use xlink:href="#DejaVuSans-30" transform="translate(63.623047 0)"/>
       <use xlink:href="#DejaVuSans-30" transform="translate(127.246094 0)"/>
      </g>
     </g>
    </g>
    <g id="xtick_5">
     <g id="line2d_9">
      <path d="M 312.420554 303.64 
L 312.420554 25.44 
" clip-path="url(#p9ef7b63613)" style="fill: none; stroke: #b0b0b0; stroke-opacity: 0.3; stroke-width: 0.8; stroke-linecap: square"/>
     </g>
     <g id="line2d_10">
      <g>
       <use xlink:href="#mea9ae787b4" x="312.420554" y="303.64" style="stroke: #000000; stroke-width: 0.8"/>
      </g>
     </g>
     <g id="text_5">
      <!-- 400 -->
      <g transform="translate(302.876804 318.238437) scale(0.1 -0.1)">
       <defs>
        <path id="DejaVuSans-34" d="M 2419 4116 
L 825 1625 
L 2419 1625 
L 2419 4116 
z
M 2253 4666 
L 3047 4666 
L 3047 1625 
L 3713 1625 
L 3713 1100 
L 3047 1100 
L 3047 0 
L 2419 0 
L 2419 1100 
L 313 1100 
L 313 1709 
L 2253 4666 
z
" transform="scale(0.015625)"/>
       </defs>
       <use xlink:href="#DejaVuSans-34"/>
       <use xlink:href="#DejaVuSans-30" transform="translate(63.623047 0)"/>
       <use xlink:href="#DejaVuSans-30" transform="translate(127.246094 0)"/>
      </g>
     </g>
    </g>
    <g id="xtick_6">
     <g id="line2d_11">
      <path d="M 372.250711 303.64 
L 372.250711 25.44 
" clip-path="url(#p9ef7b63613)" style="fill: none; stroke: #b0b0b0; stroke-opacity: 0.3; stroke-width: 0.8; stroke-linecap: square"/>
     </g>
     <g id="line2d_12">
      <g>
       <use xlink:href="#mea9ae787b4" x="372.250711" y="303.64" style="stroke: #000000; stroke-width: 0.8"/>
      </g>
     </g>
     <g id="text_6">
      <!-- 500 -->
      <g transform="translate(362.706961 318.238437) scale(0.1 -0.1)">
       <defs>
        <path id="DejaVuSans-35" d="M 691 4666 
L 3169 4666 
L 3169 4134 
L 1269 4134 
L 1269 2991 
Q 1406 3038 1543 3061 
Q 1681 3084 1819 3084 
Q 2600 3084 3056 2656 
Q 3513 2228 3513 1497 
Q 3513 744 3044 326 
Q 2575 -91 1722 -91 
Q 1428 -91 1123 -41 
Q 819 9 494 109 
L 494 744 
Q 775 591 1075 516 
Q 1375 441 1709 441 
Q 2250 441 2565 725 
Q 2881 1009 2881 1497 
Q 2881 1984 2565 2268 
Q 2250 2553 1709 2553 
Q 1456 2553 1204 2497 
Q 953 2441 691 2322 
L 691 4666 
z
" transform="scale(0.015625)"/>
       </defs>
       <use xlink:href="#DejaVuSans-35"/>
       <use xlink:href="#DejaVuSans-30" transform="translate(63.623047 0)"/>
       <use xlink:href="#DejaVuSans-30" transform="translate(127.246094 0)"/>
      </g>
     </g>
    </g>
    <g id="xtick_7">
     <g id="line2d_13">
      <path d="M 432.080868 303.64 
L 432.080868 25.44 
" clip-path="url(#p9ef7b63613)" style="fill: none; stroke: #b0b0b0; stroke-opacity: 0.3; stroke-width: 0.8; stroke-linecap: square"/>
     </g>
     <g id="line2d_14">
      <g>
       <use xlink:href="#mea9ae787b4" x="432.080868" y="303.64" style="stroke: #000000; stroke-width: 0.8"/>
      </g>
     </g>
     <g id="text_7">
      <!-- 600 -->
      <g transform="translate(422.537118 318.238437) scale(0.1 -0.1)">
       <defs>
        <path id="DejaVuSans-36" d="M 2113 2584 
Q 1688 2584 1439 2293 
Q 1191 2003 1191 1497 
Q 1191 994 1439 701 
Q 1688 409 2113 409 
Q 2538 409 2786 701 
Q 3034 994 3034 1497 
Q 3034 2003 2786 2293 
Q 2538 2584 2113 2584 
z
M 3366 4563 
L 3366 3988 
Q 3128 4100 2886 4159 
Q 2644 4219 2406 4219 
Q 1781 4219 1451 3797 
Q 1122 3375 1075 2522 
Q 1259 2794 1537 2939 
Q 1816 3084 2150 3084 
Q 2853 3084 3261 2657 
Q 3669 2231 3669 1497 
Q 3669 778 3244 343 
Q 2819 -91 2113 -91 
Q 1303 -91 875 529 
Q 447 1150 447 2328 
Q 447 3434 972 4092 
Q 1497 4750 2381 4750 
Q 2619 4750 2861 4703 
Q 3103 4656 3366 4563 
z
" transform="scale(0.015625)"/>
       </defs>
       <use xlink:href="#DejaVuSans-36"/>
       <use xlink:href="#DejaVuSans-30" transform="translate(63.623047 0)"/>
       <use xlink:href="#DejaVuSans-30" transform="translate(127.246094 0)"/>
      </g>
     </g>
    </g>
    <g id="text_8">
     <!-- epoch -->
     <g transform="translate(237.661423 331.916562) scale(0.1 -0.1)">
      <defs>
       <path id="DejaVuSans-65" d="M 3597 1894 
L 3597 1613 
L 953 1613 
Q 991 1019 1311 708 
Q 1631 397 2203 397 
Q 2534 397 2845 478 
Q 3156 559 3463 722 
L 3463 178 
Q 3153 47 2828 -22 
Q 2503 -91 2169 -91 
Q 1331 -91 842 396 
Q 353 884 353 1716 
Q 353 2575 817 3079 
Q 1281 3584 2069 3584 
Q 2775 3584 3186 3129 
Q 3597 2675 3597 1894 
z
M 3022 2063 
Q 3016 2534 2758 2815 
Q 2500 3097 2075 3097 
Q 1594 3097 1305 2825 
Q 1016 2553 972 2059 
L 3022 2063 
z
" transform="scale(0.015625)"/>
       <path id="DejaVuSans-70" d="M 1159 525 
L 1159 -1331 
L 581 -1331 
L 581 3500 
L 1159 3500 
L 1159 2969 
Q 1341 3281 1617 3432 
Q 1894 3584 2278 3584 
Q 2916 3584 3314 3078 
Q 3713 2572 3713 1747 
Q 3713 922 3314 415 
Q 2916 -91 2278 -91 
Q 1894 -91 1617 61 
Q 1341 213 1159 525 
z
M 3116 1747 
Q 3116 2381 2855 2742 
Q 2594 3103 2138 3103 
Q 1681 3103 1420 2742 
Q 1159 2381 1159 1747 
Q 1159 1113 1420 752 
Q 1681 391 2138 391 
Q 2594 391 2855 752 
Q 3116 1113 3116 1747 
z
" transform="scale(0.015625)"/>
       <path id="DejaVuSans-6f" d="M 1959 3097 
Q 1497 3097 1228 2736 
Q 959 2375 959 1747 
Q 959 1119 1226 758 
Q 1494 397 1959 397 
Q 2419 397 2687 759 
Q 2956 1122 2956 1747 
Q 2956 2369 2687 2733 
Q 2419 3097 1959 3097 
z
M 1959 3584 
Q 2709 3584 3137 3096 
Q 3566 2609 3566 1747 
Q 3566 888 3137 398 
Q 2709 -91 1959 -91 
Q 1206 -91 779 398 
Q 353 888 353 1747 
Q 353 2609 779 3096 
Q 1206 3584 1959 3584 
z
" transform="scale(0.015625)"/>
       <path id="DejaVuSans-63" d="M 3122 3366 
L 3122 2828 
Q 2878 2963 2633 3030 
Q 2388 3097 2138 3097 
Q 1578 3097 1268 2742 
Q 959 2388 959 1747 
Q 959 1106 1268 751 
Q 1578 397 2138 397 
Q 2388 397 2633 464 
Q 2878 531 3122 666 
L 3122 134 
Q 2881 22 2623 -34 
Q 2366 -91 2075 -91 
Q 1284 -91 818 406 
Q 353 903 353 1747 
Q 353 2603 823 3093 
Q 1294 3584 2113 3584 
Q 2378 3584 2631 3529 
Q 2884 3475 3122 3366 
z
" transform="scale(0.015625)"/>
       <path id="DejaVuSans-68" d="M 3513 2113 
L 3513 0 
L 2938 0 
L 2938 2094 
Q 2938 2591 2744 2837 
Q 2550 3084 2163 3084 
Q 1697 3084 1428 2787 
Q 1159 2491 1159 1978 
L 1159 0 
L 581 0 
L 581 4863 
L 1159 4863 
L 1159 2956 
Q 1366 3272 1645 3428 
Q 1925 3584 2291 3584 
Q 2894 3584 3203 3211 
Q 3513 2838 3513 2113 
z
" transform="scale(0.015625)"/>
      </defs>
      <use xlink:href="#DejaVuSans-65"/>
      <use xlink:href="#DejaVuSans-70" transform="translate(61.523438 0)"/>
      <use xlink:href="#DejaVuSans-6f" transform="translate(125 0)"/>
      <use xlink:href="#DejaVuSans-63" transform="translate(186.181641 0)"/>
      <use xlink:href="#DejaVuSans-68" transform="translate(241.162109 0)"/>
     </g>
    </g>
   </g>
   <g id="matplotlib.axis_2">
    <g id="ytick_1">
     <g id="line2d_15">
      <path d="M 55.779096 245.110615 
L 450 245.110615 
" clip-path="url(#p9ef7b63613)" style="fill: none; stroke: #b0b0b0; stroke-opacity: 0.3; stroke-width: 0.8; stroke-linecap: square"/>
     </g>
     <g id="line2d_16">
      <defs>
       <path id="m760976f453" d="M 0 0 
L -3.5 0 
" style="stroke: #000000; stroke-width: 0.8"/>
      </defs>
      <g>
       <use xlink:href="#m760976f453" x="55.779096" y="245.110615" style="stroke: #000000; stroke-width: 0.8"/>
      </g>
     </g>
     <g id="text_9">
      <!-- $\mathdefault{10^{-1}}$ -->
      <g transform="translate(25.279096 248.909834) scale(0.1 -0.1)">
       <defs>
        <path id="DejaVuSans-2212" d="M 678 2272 
L 4684 2272 
L 4684 1741 
L 678 1741 
L 678 2272 
z
" transform="scale(0.015625)"/>
       </defs>
       <use xlink:href="#DejaVuSans-31" transform="translate(0 0.684375)"/>
       <use xlink:href="#DejaVuSans-30" transform="translate(63.623047 0.684375)"/>
       <use xlink:href="#DejaVuSans-2212" transform="translate(128.203125 38.965625) scale(0.7)"/>
       <use xlink:href="#DejaVuSans-31" transform="translate(186.855469 38.965625) scale(0.7)"/>
      </g>
     </g>
    </g>
    <g id="ytick_2">
     <g id="line2d_17">
      <path d="M 55.779096 127.762915 
L 450 127.762915 
" clip-path="url(#p9ef7b63613)" style="fill: none; stroke: #b0b0b0; stroke-opacity: 0.3; stroke-width: 0.8; stroke-linecap: square"/>
     </g>
     <g id="line2d_18">
      <g>
       <use xlink:href="#m760976f453" x="55.779096" y="127.762915" style="stroke: #000000; stroke-width: 0.8"/>
      </g>
     </g>
     <g id="text_10">
      <!-- $\mathdefault{10^{0}}$ -->
      <g transform="translate(31.179096 131.562133) scale(0.1 -0.1)">
       <use xlink:href="#DejaVuSans-31" transform="translate(0 0.765625)"/>
       <use xlink:href="#DejaVuSans-30" transform="translate(63.623047 0.765625)"/>
       <use xlink:href="#DejaVuSans-30" transform="translate(128.203125 39.046875) scale(0.7)"/>
      </g>
     </g>
    </g>
    <g id="ytick_3">
     <g id="line2d_19">
      <path d="M 55.779096 291.80796 
L 450 291.80796 
" clip-path="url(#p9ef7b63613)" style="fill: none; stroke: #b0b0b0; stroke-opacity: 0.3; stroke-width: 0.8; stroke-linecap: square"/>
     </g>
     <g id="line2d_20">
      <defs>
       <path id="mdb931e53f6" d="M 0 0 
L -2 0 
" style="stroke: #000000; stroke-width: 0.6"/>
      </defs>
      <g>
       <use xlink:href="#mdb931e53f6" x="55.779096" y="291.80796" style="stroke: #000000; stroke-width: 0.6"/>
      </g>
     </g>
    </g>
    <g id="ytick_4">
     <g id="line2d_21">
      <path d="M 55.779096 280.435793 
L 450 280.435793 
" clip-path="url(#p9ef7b63613)" style="fill: none; stroke: #b0b0b0; stroke-opacity: 0.3; stroke-width: 0.8; stroke-linecap: square"/>
     </g>
     <g id="line2d_22">
      <g>
       <use xlink:href="#mdb931e53f6" x="55.779096" y="280.435793" style="stroke: #000000; stroke-width: 0.6"/>
      </g>
     </g>
    </g>
    <g id="ytick_5">
     <g id="line2d_23">
      <path d="M 55.779096 271.144056 
L 450 271.144056 
" clip-path="url(#p9ef7b63613)" style="fill: none; stroke: #b0b0b0; stroke-opacity: 0.3; stroke-width: 0.8; stroke-linecap: square"/>
     </g>
     <g id="line2d_24">
      <g>
       <use xlink:href="#mdb931e53f6" x="55.779096" y="271.144056" style="stroke: #000000; stroke-width: 0.6"/>
      </g>
     </g>
    </g>
    <g id="ytick_6">
     <g id="line2d_25">
      <path d="M 55.779096 263.288004 
L 450 263.288004 
" clip-path="url(#p9ef7b63613)" style="fill: none; stroke: #b0b0b0; stroke-opacity: 0.3; stroke-width: 0.8; stroke-linecap: square"/>
     </g>
     <g id="line2d_26">
      <g>
       <use xlink:href="#mdb931e53f6" x="55.779096" y="263.288004" style="stroke: #000000; stroke-width: 0.6"/>
      </g>
     </g>
    </g>
    <g id="ytick_7">
     <g id="line2d_27">
      <path d="M 55.779096 256.482783 
L 450 256.482783 
" clip-path="url(#p9ef7b63613)" style="fill: none; stroke: #b0b0b0; stroke-opacity: 0.3; stroke-width: 0.8; stroke-linecap: square"/>
     </g>
     <g id="line2d_28">
      <g>
       <use xlink:href="#mdb931e53f6" x="55.779096" y="256.482783" style="stroke: #000000; stroke-width: 0.6"/>
      </g>
     </g>
    </g>
    <g id="ytick_8">
     <g id="line2d_29">
      <path d="M 55.779096 250.480152 
L 450 250.480152 
" clip-path="url(#p9ef7b63613)" style="fill: none; stroke: #b0b0b0; stroke-opacity: 0.3; stroke-width: 0.8; stroke-linecap: square"/>
     </g>
     <g id="line2d_30">
      <g>
       <use xlink:href="#mdb931e53f6" x="55.779096" y="250.480152" style="stroke: #000000; stroke-width: 0.6"/>
      </g>
     </g>
    </g>
    <g id="ytick_9">
     <g id="line2d_31">
      <path d="M 55.779096 209.785438 
L 450 209.785438 
" clip-path="url(#p9ef7b63613)" style="fill: none; stroke: #b0b0b0; stroke-opacity: 0.3; stroke-width: 0.8; stroke-linecap: square"/>
     </g>
     <g id="line2d_32">
      <g>
       <use xlink:href="#mdb931e53f6" x="55.779096" y="209.785438" style="stroke: #000000; stroke-width: 0.6"/>
      </g>
     </g>
    </g>
    <g id="ytick_10">
     <g id="line2d_33">
      <path d="M 55.779096 189.121533 
L 450 189.121533 
" clip-path="url(#p9ef7b63613)" style="fill: none; stroke: #b0b0b0; stroke-opacity: 0.3; stroke-width: 0.8; stroke-linecap: square"/>
     </g>
     <g id="line2d_34">
      <g>
       <use xlink:href="#mdb931e53f6" x="55.779096" y="189.121533" style="stroke: #000000; stroke-width: 0.6"/>
      </g>
     </g>
    </g>
    <g id="ytick_11">
     <g id="line2d_35">
      <path d="M 55.779096 174.46026 
L 450 174.46026 
" clip-path="url(#p9ef7b63613)" style="fill: none; stroke: #b0b0b0; stroke-opacity: 0.3; stroke-width: 0.8; stroke-linecap: square"/>
     </g>
     <g id="line2d_36">
      <g>
       <use xlink:href="#mdb931e53f6" x="55.779096" y="174.46026" style="stroke: #000000; stroke-width: 0.6"/>
      </g>
     </g>
    </g>
    <g id="ytick_12">
     <g id="line2d_37">
      <path d="M 55.779096 163.088093 
L 450 163.088093 
" clip-path="url(#p9ef7b63613)" style="fill: none; stroke: #b0b0b0; stroke-opacity: 0.3; stroke-width: 0.8; stroke-linecap: square"/>
     </g>
     <g id="line2d_38">
      <g>
       <use xlink:href="#mdb931e53f6" x="55.779096" y="163.088093" style="stroke: #000000; stroke-width: 0.6"/>
      </g>
     </g>
    </g>
    <g id="ytick_13">
     <g id="line2d_39">
      <path d="M 55.779096 153.796355 
L 450 153.796355 
" clip-path="url(#p9ef7b63613)" style="fill: none; stroke: #b0b0b0; stroke-opacity: 0.3; stroke-width: 0.8; stroke-linecap: square"/>
     </g>
     <g id="line2d_40">
      <g>
       <use xlink:href="#mdb931e53f6" x="55.779096" y="153.796355" style="stroke: #000000; stroke-width: 0.6"/>
      </g>
     </g>
    </g>
    <g id="ytick_14">
     <g id="line2d_41">
      <path d="M 55.779096 145.940304 
L 450 145.940304 
" clip-path="url(#p9ef7b63613)" style="fill: none; stroke: #b0b0b0; stroke-opacity: 0.3; stroke-width: 0.8; stroke-linecap: square"/>
     </g>
     <g id="line2d_42">
      <g>
       <use xlink:href="#mdb931e53f6" x="55.779096" y="145.940304" style="stroke: #000000; stroke-width: 0.6"/>
      </g>
     </g>
    </g>
    <g id="ytick_15">
     <g id="line2d_43">
      <path d="M 55.779096 139.135082 
L 450 139.135082 
" clip-path="url(#p9ef7b63613)" style="fill: none; stroke: #b0b0b0; stroke-opacity: 0.3; stroke-width: 0.8; stroke-linecap: square"/>
     </g>
     <g id="line2d_44">
      <g>
       <use xlink:href="#mdb931e53f6" x="55.779096" y="139.135082" style="stroke: #000000; stroke-width: 0.6"/>
      </g>
     </g>
    </g>
    <g id="ytick_16">
     <g id="line2d_45">
      <path d="M 55.779096 133.132451 
L 450 133.132451 
" clip-path="url(#p9ef7b63613)" style="fill: none; stroke: #b0b0b0; stroke-opacity: 0.3; stroke-width: 0.8; stroke-linecap: square"/>
     </g>
     <g id="line2d_46">
      <g>
       <use xlink:href="#mdb931e53f6" x="55.779096" y="133.132451" style="stroke: #000000; stroke-width: 0.6"/>
      </g>
     </g>
    </g>
    <g id="ytick_17">
     <g id="line2d_47">
      <path d="M 55.779096 92.437737 
L 450 92.437737 
" clip-path="url(#p9ef7b63613)" style="fill: none; stroke: #b0b0b0; stroke-opacity: 0.3; stroke-width: 0.8; stroke-linecap: square"/>
     </g>
     <g id="line2d_48">
      <g>
       <use xlink:href="#mdb931e53f6" x="55.779096" y="92.437737" style="stroke: #000000; stroke-width: 0.6"/>
      </g>
     </g>
    </g>
    <g id="ytick_18">
     <g id="line2d_49">
      <path d="M 55.779096 71.773832 
L 450 71.773832 
" clip-path="url(#p9ef7b63613)" style="fill: none; stroke: #b0b0b0; stroke-opacity: 0.3; stroke-width: 0.8; stroke-linecap: square"/>
     </g>
     <g id="line2d_50">
      <g>
       <use xlink:href="#mdb931e53f6" x="55.779096" y="71.773832" style="stroke: #000000; stroke-width: 0.6"/>
      </g>
     </g>
    </g>
    <g id="ytick_19">
     <g id="line2d_51">
      <path d="M 55.779096 57.112559 
L 450 57.112559 
" clip-path="url(#p9ef7b63613)" style="fill: none; stroke: #b0b0b0; stroke-opacity: 0.3; stroke-width: 0.8; stroke-linecap: square"/>
     </g>
     <g id="line2d_52">
      <g>
       <use xlink:href="#mdb931e53f6" x="55.779096" y="57.112559" style="stroke: #000000; stroke-width: 0.6"/>
      </g>
     </g>
    </g>
    <g id="ytick_20">
     <g id="line2d_53">
      <path d="M 55.779096 45.740392 
L 450 45.740392 
" clip-path="url(#p9ef7b63613)" style="fill: none; stroke: #b0b0b0; stroke-opacity: 0.3; stroke-width: 0.8; stroke-linecap: square"/>
     </g>
     <g id="line2d_54">
      <g>
       <use xlink:href="#mdb931e53f6" x="55.779096" y="45.740392" style="stroke: #000000; stroke-width: 0.6"/>
      </g>
     </g>
    </g>
    <g id="ytick_21">
     <g id="line2d_55">
      <path d="M 55.779096 36.448655 
L 450 36.448655 
" clip-path="url(#p9ef7b63613)" style="fill: none; stroke: #b0b0b0; stroke-opacity: 0.3; stroke-width: 0.8; stroke-linecap: square"/>
     </g>
     <g id="line2d_56">
      <g>
       <use xlink:href="#mdb931e53f6" x="55.779096" y="36.448655" style="stroke: #000000; stroke-width: 0.6"/>
      </g>
     </g>
    </g>
    <g id="ytick_22">
     <g id="line2d_57">
      <path d="M 55.779096 28.592603 
L 450 28.592603 
" clip-path="url(#p9ef7b63613)" style="fill: none; stroke: #b0b0b0; stroke-opacity: 0.3; stroke-width: 0.8; stroke-linecap: square"/>
     </g>
     <g id="line2d_58">
      <g>
       <use xlink:href="#mdb931e53f6" x="55.779096" y="28.592603" style="stroke: #000000; stroke-width: 0.6"/>
      </g>
     </g>
    </g>
    <g id="text_11">
     <!-- total loss (log) -->
     <g transform="translate(19.199409 200.332969) rotate(-90) scale(0.1 -0.1)">
      <defs>
       <path id="DejaVuSans-74" d="M 1172 4494 
L 1172 3500 
L 2356 3500 
L 2356 3053 
L 1172 3053 
L 1172 1153 
Q 1172 725 1289 603 
Q 1406 481 1766 481 
L 2356 481 
L 2356 0 
L 1766 0 
Q 1100 0 847 248 
Q 594 497 594 1153 
L 594 3053 
L 172 3053 
L 172 3500 
L 594 3500 
L 594 4494 
L 1172 4494 
z
" transform="scale(0.015625)"/>
       <path id="DejaVuSans-61" d="M 2194 1759 
Q 1497 1759 1228 1600 
Q 959 1441 959 1056 
Q 959 750 1161 570 
Q 1363 391 1709 391 
Q 2188 391 2477 730 
Q 2766 1069 2766 1631 
L 2766 1759 
L 2194 1759 
z
M 3341 1997 
L 3341 0 
L 2766 0 
L 2766 531 
Q 2569 213 2275 61 
Q 1981 -91 1556 -91 
Q 1019 -91 701 211 
Q 384 513 384 1019 
Q 384 1609 779 1909 
Q 1175 2209 1959 2209 
L 2766 2209 
L 2766 2266 
Q 2766 2663 2505 2880 
Q 2244 3097 1772 3097 
Q 1472 3097 1187 3025 
Q 903 2953 641 2809 
L 641 3341 
Q 956 3463 1253 3523 
Q 1550 3584 1831 3584 
Q 2591 3584 2966 3190 
Q 3341 2797 3341 1997 
z
" transform="scale(0.015625)"/>
       <path id="DejaVuSans-6c" d="M 603 4863 
L 1178 4863 
L 1178 0 
L 603 0 
L 603 4863 
z
" transform="scale(0.015625)"/>
       <path id="DejaVuSans-20" transform="scale(0.015625)"/>
       <path id="DejaVuSans-73" d="M 2834 3397 
L 2834 2853 
Q 2591 2978 2328 3040 
Q 2066 3103 1784 3103 
Q 1356 3103 1142 2972 
Q 928 2841 928 2578 
Q 928 2378 1081 2264 
Q 1234 2150 1697 2047 
L 1894 2003 
Q 2506 1872 2764 1633 
Q 3022 1394 3022 966 
Q 3022 478 2636 193 
Q 2250 -91 1575 -91 
Q 1294 -91 989 -36 
Q 684 19 347 128 
L 347 722 
Q 666 556 975 473 
Q 1284 391 1588 391 
Q 1994 391 2212 530 
Q 2431 669 2431 922 
Q 2431 1156 2273 1281 
Q 2116 1406 1581 1522 
L 1381 1569 
Q 847 1681 609 1914 
Q 372 2147 372 2553 
Q 372 3047 722 3315 
Q 1072 3584 1716 3584 
Q 2034 3584 2315 3537 
Q 2597 3491 2834 3397 
z
" transform="scale(0.015625)"/>
       <path id="DejaVuSans-28" d="M 1984 4856 
Q 1566 4138 1362 3434 
Q 1159 2731 1159 2009 
Q 1159 1288 1364 580 
Q 1569 -128 1984 -844 
L 1484 -844 
Q 1016 -109 783 600 
Q 550 1309 550 2009 
Q 550 2706 781 3412 
Q 1013 4119 1484 4856 
L 1984 4856 
z
" transform="scale(0.015625)"/>
       <path id="DejaVuSans-67" d="M 2906 1791 
Q 2906 2416 2648 2759 
Q 2391 3103 1925 3103 
Q 1463 3103 1205 2759 
Q 947 2416 947 1791 
Q 947 1169 1205 825 
Q 1463 481 1925 481 
Q 2391 481 2648 825 
Q 2906 1169 2906 1791 
z
M 3481 434 
Q 3481 -459 3084 -895 
Q 2688 -1331 1869 -1331 
Q 1566 -1331 1297 -1286 
Q 1028 -1241 775 -1147 
L 775 -588 
Q 1028 -725 1275 -790 
Q 1522 -856 1778 -856 
Q 2344 -856 2625 -561 
Q 2906 -266 2906 331 
L 2906 616 
Q 2728 306 2450 153 
Q 2172 0 1784 0 
Q 1141 0 747 490 
Q 353 981 353 1791 
Q 353 2603 747 3093 
Q 1141 3584 1784 3584 
Q 2172 3584 2450 3431 
Q 2728 3278 2906 2969 
L 2906 3500 
L 3481 3500 
L 3481 434 
z
" transform="scale(0.015625)"/>
       <path id="DejaVuSans-29" d="M 513 4856 
L 1013 4856 
Q 1481 4119 1714 3412 
Q 1947 2706 1947 2009 
Q 1947 1309 1714 600 
Q 1481 -109 1013 -844 
L 513 -844 
Q 928 -128 1133 580 
Q 1338 1288 1338 2009 
Q 1338 2731 1133 3434 
Q 928 4138 513 4856 
z
" transform="scale(0.015625)"/>
      </defs>
      <use xlink:href="#DejaVuSans-74"/>
      <use xlink:href="#DejaVuSans-6f" transform="translate(39.208984 0)"/>
      <use xlink:href="#DejaVuSans-74" transform="translate(100.390625 0)"/>
      <use xlink:href="#DejaVuSans-61" transform="translate(139.599609 0)"/>
      <use xlink:href="#DejaVuSans-6c" transform="translate(200.878906 0)"/>
      <use xlink:href="#DejaVuSans-20" transform="translate(228.662109 0)"/>
      <use xlink:href="#DejaVuSans-6c" transform="translate(260.449219 0)"/>
      <use xlink:href="#DejaVuSans-6f" transform="translate(288.232422 0)"/>
      <use xlink:href="#DejaVuSans-73" transform="translate(349.414062 0)"/>
      <use xlink:href="#DejaVuSans-73" transform="translate(401.513672 0)"/>
      <use xlink:href="#DejaVuSans-20" transform="translate(453.613281 0)"/>
      <use xlink:href="#DejaVuSans-28" transform="translate(485.400391 0)"/>
      <use xlink:href="#DejaVuSans-6c" transform="translate(524.414062 0)"/>
      <use xlink:href="#DejaVuSans-6f" transform="translate(552.197266 0)"/>
      <use xlink:href="#DejaVuSans-67" transform="translate(613.378906 0)"/>
      <use xlink:href="#DejaVuSans-29" transform="translate(676.855469 0)"/>
     </g>
    </g>
   </g>
   <g id="line2d_59">
    <path d="M 73.698228 129.848252 
L 74.29653 135.784785 
L 74.894831 139.525633 
L 75.493133 146.468672 
L 76.091434 158.660531 
L 76.689736 165.818731 
L 77.288038 169.971841 
L 77.886339 174.922404 
L 78.484641 174.293887 
L 79.082942 177.066176 
L 79.681244 176.735734 
L 80.279545 177.45101 
L 81.476149 178.304255 
L 83.869355 179.260645 
L 87.459164 180.083479 
L 88.057466 181.166542 
L 88.655767 180.239498 
L 96.433688 180.93606 
L 97.031989 180.857467 
L 97.630291 180.92253 
L 98.826894 181.268204 
L 99.425196 181.186166 
L 100.023497 181.225447 
L 100.621799 181.4686 
L 101.2201 181.320719 
L 104.80991 181.587357 
L 108.998021 181.959524 
L 109.596322 181.876325 
L 110.194624 182.670762 
L 110.792925 182.074525 
L 111.989529 182.248331 
L 113.186132 182.119161 
L 113.784433 182.298069 
L 114.382735 187.792198 
L 114.981036 183.463544 
L 115.579338 182.775053 
L 117.972544 183.261552 
L 118.570846 184.0049 
L 119.169147 183.610331 
L 119.767449 216.457399 
L 120.365751 183.812443 
L 120.964052 184.105831 
L 121.562354 185.938588 
L 122.160655 184.835433 
L 122.758957 184.919718 
L 123.95556 185.414662 
L 125.750465 186.361842 
L 126.348766 186.98665 
L 126.947068 186.602535 
L 128.741972 187.692223 
L 129.340274 188.247011 
L 129.938576 188.581199 
L 130.536877 188.348311 
L 131.135179 188.953374 
L 131.73348 190.039164 
L 132.331782 189.254231 
L 132.930083 189.270504 
L 133.528385 190.219621 
L 134.126687 190.092635 
L 135.32329 191.309242 
L 135.921591 192.042018 
L 136.519893 192.027197 
L 137.118194 221.441746 
L 137.716496 192.423468 
L 138.314798 193.340759 
L 138.913099 193.618268 
L 139.511401 224.298047 
L 140.109702 193.766752 
L 140.708004 195.607808 
L 141.306305 198.277751 
L 141.904607 195.861636 
L 142.502909 196.067599 
L 143.10121 195.821028 
L 144.297813 199.265155 
L 144.896115 199.032516 
L 145.494416 197.985457 
L 146.092718 199.072215 
L 146.69102 198.896605 
L 147.289321 199.248166 
L 147.887623 195.966998 
L 148.485924 198.566233 
L 149.084226 197.576703 
L 149.682527 200.972181 
L 150.280829 200.537511 
L 150.879131 201.588658 
L 151.477432 204.802799 
L 152.075734 203.69245 
L 152.674035 202.19824 
L 153.272337 206.037168 
L 153.870638 204.579394 
L 154.46894 206.839798 
L 155.067242 204.136895 
L 155.665543 203.454498 
L 156.263845 206.788512 
L 156.862146 208.841489 
L 157.460448 208.32586 
L 158.058749 207.502347 
L 158.657051 210.869382 
L 159.255353 209.773743 
L 159.853654 209.596013 
L 160.451956 210.241364 
L 161.050257 241.875236 
L 161.648559 208.104156 
L 162.24686 206.677884 
L 162.845162 209.503351 
L 164.041765 214.191914 
L 164.640067 211.420337 
L 165.238368 212.963845 
L 165.83667 215.579657 
L 166.434971 215.631582 
L 167.033273 214.892745 
L 168.229876 213.860969 
L 168.828178 211.122661 
L 169.426479 214.150104 
L 170.024781 215.733539 
L 170.623082 216.262681 
L 171.221384 218.775256 
L 171.819685 219.079097 
L 172.417987 218.06245 
L 173.016289 213.274303 
L 173.61459 217.851042 
L 174.212892 213.142575 
L 174.811193 220.343251 
L 175.409495 220.095925 
L 176.007796 220.097057 
L 176.606098 219.961515 
L 177.2044 218.265215 
L 177.802701 218.837224 
L 178.401003 221.152142 
L 178.999304 219.025379 
L 179.597606 221.801397 
L 180.195907 219.55463 
L 180.794209 222.792006 
L 181.392511 224.405393 
L 181.990812 225.253576 
L 182.589114 225.329888 
L 183.187415 224.356666 
L 183.785717 219.587753 
L 184.384018 223.013989 
L 184.98232 224.808821 
L 185.580622 222.28017 
L 186.178923 224.973652 
L 186.777225 225.36909 
L 187.973828 226.956654 
L 188.572129 226.782305 
L 189.768733 225.700781 
L 190.367034 225.414845 
L 190.965336 227.913772 
L 191.563637 224.938435 
L 192.161939 229.597954 
L 192.76024 227.088997 
L 193.358542 230.387334 
L 193.956844 226.165048 
L 194.555145 227.79527 
L 195.153447 228.353702 
L 195.751748 229.220155 
L 196.35005 228.97913 
L 196.948351 229.054614 
L 197.546653 232.34402 
L 198.144955 231.428639 
L 198.743256 231.509059 
L 199.341558 231.742402 
L 199.939859 231.009517 
L 200.538161 229.443798 
L 201.136462 230.008141 
L 201.734764 232.458066 
L 202.333065 230.815881 
L 202.931367 231.069561 
L 203.529669 232.030702 
L 204.726272 235.289479 
L 205.324573 233.161187 
L 205.922875 232.007407 
L 206.521176 229.957959 
L 207.119478 230.95339 
L 207.71778 232.391004 
L 208.316081 232.699506 
L 208.914383 233.575845 
L 209.512684 233.321673 
L 210.110986 234.47468 
L 210.709287 234.549163 
L 211.307589 232.698639 
L 211.905891 235.839244 
L 212.504192 235.22849 
L 213.102494 235.840565 
L 213.700795 233.916175 
L 214.299097 234.532033 
L 214.897398 237.83951 
L 215.4957 233.661104 
L 216.094002 235.458679 
L 216.692303 232.30225 
L 217.290605 237.125562 
L 217.888906 235.785349 
L 218.487208 232.594621 
L 219.085509 236.579199 
L 219.683811 237.962985 
L 220.282113 238.08349 
L 220.880414 236.82755 
L 221.478716 230.064184 
L 222.077017 237.137345 
L 222.675319 235.971757 
L 223.27362 238.739482 
L 223.871922 234.913044 
L 224.470224 238.747608 
L 225.068525 235.56806 
L 225.666827 241.366032 
L 226.86343 239.697003 
L 227.461731 240.385654 
L 228.060033 240.429228 
L 228.658335 238.864233 
L 229.256636 240.753547 
L 229.854938 241.064945 
L 230.453239 235.430254 
L 231.051541 241.368796 
L 231.649842 240.544644 
L 232.248144 239.089735 
L 232.846446 234.805738 
L 233.444747 239.573147 
L 234.043049 235.638969 
L 234.64135 241.456344 
L 235.239652 237.51333 
L 235.837953 240.885271 
L 236.436255 238.574611 
L 237.034556 243.48696 
L 237.632858 241.345317 
L 238.23116 243.197404 
L 238.829461 241.070716 
L 239.427763 244.59199 
L 240.026064 237.407904 
L 240.624366 244.149704 
L 241.820969 236.273403 
L 242.419271 241.613614 
L 243.017572 242.045072 
L 244.214175 245.518566 
L 244.812477 242.422984 
L 245.410778 245.116697 
L 246.00908 239.025278 
L 246.607382 246.708323 
L 247.803985 242.647751 
L 249.598889 245.449514 
L 250.197191 245.215539 
L 250.795493 244.690874 
L 251.992096 245.736868 
L 252.590397 246.649383 
L 253.188699 243.234439 
L 253.787 244.418654 
L 254.385302 243.151627 
L 254.983604 247.252975 
L 256.180207 248.325118 
L 256.778508 250.000289 
L 257.37681 247.062148 
L 257.975111 248.776409 
L 258.573413 239.555692 
L 259.171715 246.315203 
L 259.770016 247.574738 
L 260.368318 245.307375 
L 260.966619 247.385376 
L 261.564921 246.145812 
L 262.163222 246.602159 
L 262.761524 248.842232 
L 263.359826 249.79648 
L 263.958127 248.741646 
L 264.556429 250.408188 
L 265.15473 249.368002 
L 265.753032 251.89047 
L 266.351333 252.202877 
L 266.949635 248.852796 
L 267.547937 249.147594 
L 268.146238 247.70437 
L 268.74454 249.561178 
L 269.342841 250.080088 
L 269.941143 245.63088 
L 270.539444 250.172213 
L 271.137746 251.440506 
L 271.736047 248.250504 
L 272.334349 248.27721 
L 272.932651 249.813478 
L 274.129254 246.297289 
L 274.727555 250.299303 
L 275.325857 247.761884 
L 275.924158 251.297019 
L 276.52246 253.728212 
L 277.120762 252.406667 
L 277.719063 252.425409 
L 278.317365 253.848839 
L 278.915666 252.521428 
L 279.513968 250.334598 
L 280.112269 251.472034 
L 280.710571 290.994545 
L 281.308873 252.157825 
L 281.907174 253.158725 
L 282.505476 253.738969 
L 283.103777 251.187524 
L 283.702079 253.67831 
L 284.30038 250.701283 
L 284.898682 249.661244 
L 285.496984 249.639814 
L 286.095285 249.152649 
L 286.693587 248.151087 
L 287.291888 251.689957 
L 287.89019 253.349783 
L 288.488491 245.630522 
L 289.086793 253.571127 
L 289.685095 252.728782 
L 290.283396 248.98562 
L 290.881698 256.017083 
L 291.479999 250.536889 
L 292.078301 255.451434 
L 292.676602 254.108155 
L 293.274904 253.877554 
L 293.873206 252.843006 
L 294.471507 253.405684 
L 295.069809 253.183123 
L 296.266412 248.768603 
L 296.864713 254.3702 
L 297.463015 254.312511 
L 298.061317 251.926224 
L 298.659618 248.245336 
L 299.25792 253.166557 
L 299.856221 249.465661 
L 300.454523 254.536156 
L 301.052824 247.733369 
L 301.651126 254.108076 
L 302.249428 247.218682 
L 302.847729 253.777784 
L 303.446031 252.270201 
L 304.044332 254.664528 
L 304.642634 255.884595 
L 305.240935 252.584548 
L 305.839237 257.374524 
L 306.437539 252.851365 
L 307.03584 254.803412 
L 307.634142 250.320421 
L 308.232443 255.24628 
L 308.830745 253.58273 
L 309.429046 258.676899 
L 310.027348 257.9039 
L 310.625649 256.658609 
L 311.223951 254.667116 
L 311.822253 250.898516 
L 312.420554 253.042094 
L 313.018856 253.946238 
L 313.617157 255.605093 
L 314.215459 254.400936 
L 314.81376 256.424554 
L 316.010364 252.442349 
L 316.608665 255.088773 
L 317.206967 258.427798 
L 317.805268 259.310868 
L 318.40357 259.031458 
L 319.001871 256.265351 
L 319.600173 259.136634 
L 320.198475 259.864642 
L 320.796776 258.994048 
L 321.395078 260.128076 
L 321.993379 257.226739 
L 322.591681 257.364322 
L 323.189982 258.294712 
L 324.386586 259.439986 
L 324.984887 260.615315 
L 325.583189 255.777035 
L 326.18149 257.447272 
L 326.779792 255.797721 
L 327.378093 259.559232 
L 327.976395 255.728544 
L 328.574697 260.3844 
L 329.172998 257.844788 
L 330.369601 257.505669 
L 330.967903 257.125704 
L 332.164506 259.951419 
L 332.762808 253.844448 
L 333.361109 256.97987 
L 333.959411 257.350404 
L 334.557712 262.112307 
L 335.156014 260.548883 
L 335.754315 254.322795 
L 336.950919 262.557944 
L 337.54922 260.464864 
L 338.147522 260.076259 
L 338.745823 257.985078 
L 339.344125 258.200747 
L 340.540728 260.813818 
L 341.13903 261.511565 
L 341.737331 260.403073 
L 342.335633 258.948922 
L 343.532236 261.940446 
L 344.130537 262.052948 
L 345.32714 260.668833 
L 345.925442 257.964639 
L 346.523744 250.986846 
L 347.122045 259.272263 
L 347.720347 256.299588 
L 348.318648 261.848849 
L 348.91695 262.663283 
L 349.515251 263.810723 
L 350.113553 266.614173 
L 350.711855 263.97319 
L 351.310156 264.473524 
L 351.908458 263.892671 
L 352.506759 264.51966 
L 353.105061 261.446396 
L 353.703362 263.820197 
L 354.301664 264.318866 
L 355.498267 261.645665 
L 356.096569 263.799625 
L 356.69487 263.797058 
L 357.293172 265.548666 
L 357.891473 265.083124 
L 358.489775 263.264399 
L 359.088077 265.712019 
L 359.686378 264.089827 
L 360.28468 263.355304 
L 360.882981 267.430496 
L 361.481283 263.95563 
L 362.079584 265.407431 
L 362.677886 261.780578 
L 363.276188 266.519289 
L 364.472791 264.039631 
L 365.669394 265.879901 
L 366.267695 261.440536 
L 366.865997 264.2858 
L 367.464299 266.442944 
L 368.0626 261.906851 
L 368.660902 263.747763 
L 369.259203 264.299982 
L 369.857505 262.265426 
L 370.455806 262.232943 
L 371.054108 262.561403 
L 371.65241 262.673229 
L 372.250711 262.393537 
L 372.849013 265.978184 
L 373.447314 265.095375 
L 374.045616 265.493534 
L 375.242219 261.945517 
L 375.840521 260.859848 
L 376.438822 263.571112 
L 377.037124 264.940594 
L 377.635425 264.033943 
L 378.233727 265.266396 
L 378.832028 262.87155 
L 379.43033 264.257399 
L 380.028631 268.282711 
L 380.626933 265.515153 
L 381.225235 269.279335 
L 381.823536 268.268059 
L 382.421838 268.288902 
L 383.020139 265.502359 
L 383.618441 266.841466 
L 385.413346 263.539654 
L 386.011647 263.52432 
L 386.609949 264.644221 
L 387.20825 267.921559 
L 387.806552 257.557734 
L 388.404853 269.568772 
L 389.003155 268.051066 
L 389.601457 269.042413 
L 390.199758 265.198841 
L 391.396361 266.013223 
L 391.994663 269.399527 
L 392.592964 269.382886 
L 393.191266 258.774994 
L 393.789568 268.721112 
L 394.387869 264.599432 
L 395.584472 266.416113 
L 396.182774 267.872044 
L 396.781075 267.850924 
L 397.379377 270.034889 
L 397.977679 269.932982 
L 398.57598 269.105973 
L 399.174282 267.366322 
L 399.772583 268.565475 
L 400.370885 270.38162 
L 400.969186 267.642689 
L 401.567488 270.834826 
L 402.16579 270.978044 
L 402.764091 271.493179 
L 403.362393 271.04809 
L 403.960694 272.821562 
L 404.558996 267.982363 
L 405.157297 271.74489 
L 405.755599 266.21004 
L 406.353901 265.231985 
L 406.952202 262.657961 
L 407.550504 271.753283 
L 408.148805 271.47073 
L 408.747107 254.801796 
L 409.345408 268.919755 
L 409.94371 274.90756 
L 410.542012 273.069141 
L 411.140313 269.035092 
L 411.738615 274.06558 
L 412.336916 273.900337 
L 412.935218 272.765626 
L 413.533519 270.709676 
L 414.131821 273.270311 
L 414.730123 272.335661 
L 415.926726 268.561887 
L 416.525027 267.186301 
L 417.123329 261.120856 
L 417.72163 270.370831 
L 418.319932 273.209989 
L 418.918233 265.044 
L 419.516535 273.43772 
L 420.713138 270.08441 
L 421.31144 273.860378 
L 421.909741 273.421919 
L 422.508043 273.795661 
L 423.106344 271.710666 
L 423.704646 273.020779 
L 424.302948 273.832832 
L 424.901249 272.692086 
L 425.499551 274.501039 
L 426.097852 259.547023 
L 426.696154 269.069428 
L 427.294455 269.498794 
L 427.892757 271.320359 
L 428.491059 271.77841 
L 429.08936 271.634142 
L 429.687662 270.729576 
L 430.285963 271.546329 
L 430.884265 275.358284 
L 431.482566 261.103202 
L 432.080868 272.008203 
L 432.080868 272.008203 
" clip-path="url(#p9ef7b63613)" style="fill: none; stroke: #1f77b4; stroke-width: 1.5; stroke-linecap: square"/>
   </g>
   <g id="line2d_60">
    <path d="M 73.698228 141.015554 
L 74.29653 148.35777 
L 74.894831 153.201825 
L 76.091434 183.218148 
L 77.288038 196.098924 
L 77.886339 200.141342 
L 78.484641 202.394577 
L 79.082942 205.26145 
L 79.681244 207.052559 
L 80.279545 208.34106 
L 80.877847 209.206077 
L 82.07445 210.187239 
L 82.672752 210.426153 
L 83.271053 211.06271 
L 83.869355 211.167492 
L 84.467656 211.649159 
L 85.065958 211.689469 
L 86.262561 212.219563 
L 86.860863 212.462859 
L 87.459164 212.38948 
L 88.057466 212.763966 
L 90.450672 213.141691 
L 91.048974 213.441087 
L 91.647275 213.23618 
L 92.245577 213.644869 
L 92.843878 213.692587 
L 93.44218 213.885563 
L 94.040481 213.813414 
L 94.638783 213.986425 
L 95.237085 213.921494 
L 95.835386 214.120658 
L 96.433688 213.903185 
L 97.031989 213.851897 
L 97.630291 214.328219 
L 98.228592 214.431107 
L 98.826894 214.36549 
L 99.425196 214.625972 
L 100.023497 214.72169 
L 101.2201 214.778927 
L 101.818402 214.976974 
L 103.613307 215.114664 
L 104.211608 215.194548 
L 104.80991 215.002735 
L 105.408211 215.312145 
L 106.604814 215.26439 
L 107.203116 215.335029 
L 107.801418 215.524911 
L 108.399719 215.41549 
L 108.998021 215.529724 
L 109.596322 215.371885 
L 110.792925 215.665827 
L 111.989529 215.56935 
L 112.58783 214.827741 
L 113.186132 215.614653 
L 113.784433 215.088942 
L 114.382735 215.626145 
L 114.981036 215.684694 
L 115.579338 215.972718 
L 116.775941 216.057933 
L 118.570846 216.645499 
L 119.169147 216.201919 
L 119.767449 216.216149 
L 120.365751 215.797767 
L 120.964052 216.44698 
L 121.562354 216.286707 
L 122.160655 216.992362 
L 122.758957 215.582819 
L 123.357258 217.127 
L 123.95556 216.847313 
L 125.152163 216.934652 
L 125.750465 217.11558 
L 126.348766 216.581847 
L 126.947068 216.723959 
L 127.545369 217.271865 
L 128.143671 217.367571 
L 128.741972 216.888191 
L 129.340274 217.793755 
L 129.938576 216.213258 
L 130.536877 217.173082 
L 131.135179 217.070451 
L 131.73348 215.373657 
L 132.331782 214.127778 
L 132.930083 216.456355 
L 133.528385 213.217489 
L 134.126687 214.619516 
L 134.724988 215.040385 
L 135.32329 212.955346 
L 135.921591 214.013044 
L 137.118194 211.217731 
L 137.716496 213.317599 
L 138.314798 211.029405 
L 138.913099 207.322459 
L 139.511401 208.519369 
L 140.109702 211.173697 
L 140.708004 206.796316 
L 141.306305 208.180319 
L 141.904607 207.402871 
L 142.502909 201.323261 
L 143.10121 202.774427 
L 143.699512 206.423664 
L 144.297813 201.56496 
L 144.896115 193.938164 
L 145.494416 197.979855 
L 146.092718 175.395532 
L 146.69102 188.447605 
L 147.289321 204.459987 
L 147.887623 168.031962 
L 148.485924 199.559064 
L 149.084226 189.573399 
L 149.682527 184.708606 
L 150.280829 186.752778 
L 150.879131 171.433672 
L 151.477432 183.600485 
L 152.075734 168.576126 
L 152.674035 183.411556 
L 153.272337 174.406046 
L 153.870638 159.435137 
L 154.46894 167.44771 
L 155.067242 163.587301 
L 155.665543 185.182007 
L 156.263845 167.799422 
L 156.862146 170.237672 
L 157.460448 168.54704 
L 158.058749 167.237925 
L 158.657051 160.400667 
L 159.255353 170.559757 
L 159.853654 168.824539 
L 160.451956 134.909959 
L 161.050257 162.427181 
L 161.648559 134.17758 
L 162.24686 183.829522 
L 162.845162 149.838049 
L 163.443463 144.890231 
L 164.041765 147.302598 
L 164.640067 161.720069 
L 165.238368 149.195863 
L 165.83667 140.84441 
L 166.434971 124.044171 
L 167.033273 154.7204 
L 167.631574 138.535568 
L 168.229876 152.415641 
L 168.828178 139.331721 
L 169.426479 157.798405 
L 170.024781 142.932037 
L 170.623082 139.869139 
L 171.221384 134.976271 
L 171.819685 134.084604 
L 172.417987 138.588761 
L 173.016289 148.219657 
L 173.61459 100.789593 
L 174.212892 140.634289 
L 174.811193 128.970184 
L 175.409495 120.465439 
L 176.007796 129.942132 
L 176.606098 127.499003 
L 177.2044 116.032785 
L 177.802701 128.83765 
L 178.401003 130.692793 
L 178.999304 122.814965 
L 179.597606 134.761607 
L 180.195907 111.478825 
L 180.794209 123.54635 
L 181.392511 112.086079 
L 181.990812 113.236911 
L 182.589114 93.292003 
L 183.187415 101.203436 
L 183.785717 120.974593 
L 184.98232 109.823695 
L 185.580622 116.00746 
L 186.178923 111.260379 
L 187.973828 109.488696 
L 189.170431 126.050283 
L 189.768733 103.485873 
L 190.367034 110.610054 
L 190.965336 111.411625 
L 191.563637 94.666279 
L 192.161939 92.459829 
L 192.76024 89.440758 
L 193.358542 99.309182 
L 193.956844 99.493972 
L 195.153447 101.72317 
L 195.751748 96.672981 
L 196.35005 117.733462 
L 196.948351 91.796387 
L 197.546653 95.156682 
L 198.144955 94.199427 
L 198.743256 92.717713 
L 199.341558 97.136245 
L 199.939859 81.275041 
L 200.538161 107.389182 
L 201.136462 91.271775 
L 201.734764 98.36989 
L 202.333065 74.463841 
L 202.931367 96.907646 
L 203.529669 100.051688 
L 204.12797 79.692663 
L 204.726272 94.040276 
L 205.324573 95.224054 
L 205.922875 108.286741 
L 206.521176 97.045755 
L 207.119478 100.505885 
L 207.71778 85.50372 
L 208.316081 96.350356 
L 208.914383 104.040819 
L 209.512684 92.544925 
L 210.110986 96.705013 
L 210.709287 77.348031 
L 211.307589 103.231118 
L 211.905891 96.933277 
L 212.504192 95.371044 
L 213.102494 85.387004 
L 213.700795 96.623336 
L 214.299097 95.141149 
L 214.897398 103.270983 
L 215.4957 80.34766 
L 216.094002 104.944599 
L 216.692303 82.72975 
L 217.290605 85.534364 
L 217.888906 84.65745 
L 218.487208 95.720636 
L 219.085509 97.860278 
L 219.683811 83.555053 
L 220.282113 98.412084 
L 220.880414 83.227093 
L 221.478716 96.260465 
L 222.077017 83.80756 
L 222.675319 89.247372 
L 223.27362 85.382659 
L 223.871922 88.438578 
L 224.470224 89.851538 
L 225.068525 79.935248 
L 225.666827 85.933257 
L 226.265128 80.806102 
L 226.86343 87.412016 
L 227.461731 84.816495 
L 228.060033 84.904255 
L 228.658335 88.813216 
L 229.256636 83.94277 
L 229.854938 76.729189 
L 230.453239 71.907565 
L 231.051541 71.385088 
L 231.649842 92.534055 
L 232.248144 77.468691 
L 232.846446 98.729209 
L 233.444747 80.893182 
L 234.043049 84.156175 
L 234.64135 72.027383 
L 235.239652 87.04949 
L 235.837953 86.302173 
L 237.034556 77.666152 
L 237.632858 87.626848 
L 238.23116 69.651265 
L 238.829461 85.246411 
L 240.026064 64.566714 
L 240.624366 81.892997 
L 241.222667 81.997023 
L 241.820969 83.904505 
L 242.419271 69.498269 
L 243.017572 83.029784 
L 243.615874 72.006954 
L 244.214175 73.6082 
L 244.812477 84.501306 
L 245.410778 78.579575 
L 246.00908 71.111436 
L 246.607382 78.616982 
L 247.205683 74.181382 
L 247.803985 77.862818 
L 248.402286 74.337629 
L 249.000588 87.266608 
L 249.598889 79.508695 
L 250.197191 80.830707 
L 250.795493 81.115944 
L 251.393794 70.599766 
L 251.992096 81.514217 
L 252.590397 62.074315 
L 253.188699 80.682063 
L 253.787 71.777128 
L 254.385302 77.602373 
L 254.983604 65.116855 
L 255.581905 74.018458 
L 256.180207 80.550531 
L 256.778508 70.780934 
L 257.37681 79.850318 
L 257.975111 67.556304 
L 258.573413 70.680619 
L 259.171715 81.955658 
L 259.770016 71.306164 
L 260.368318 72.398782 
L 260.966619 80.697068 
L 261.564921 74.405343 
L 262.163222 80.124971 
L 262.761524 68.99796 
L 263.359826 78.775295 
L 263.958127 76.5111 
L 264.556429 75.720938 
L 265.15473 77.416975 
L 265.753032 61.528125 
L 266.949635 77.271963 
L 267.547937 64.706508 
L 268.146238 71.93792 
L 268.74454 70.389302 
L 269.342841 70.633681 
L 269.941143 62.837826 
L 270.539444 78.097311 
L 271.137746 74.4195 
L 271.736047 66.586988 
L 272.334349 70.261318 
L 272.932651 77.155537 
L 273.530952 73.083117 
L 274.129254 76.275942 
L 274.727555 78.843481 
L 275.325857 75.958208 
L 275.924158 65.274789 
L 276.52246 76.644214 
L 277.120762 68.871067 
L 277.719063 76.451908 
L 278.317365 71.207599 
L 278.915666 76.861 
L 279.513968 75.841825 
L 280.112269 75.367017 
L 280.710571 70.806027 
L 281.308873 69.946679 
L 281.907174 74.386028 
L 282.505476 66.284551 
L 283.103777 61.47654 
L 283.702079 73.476661 
L 284.30038 62.207464 
L 284.898682 69.206147 
L 285.496984 65.724769 
L 286.095285 71.99825 
L 286.693587 66.316757 
L 287.291888 73.719552 
L 287.89019 76.387407 
L 288.488491 69.840819 
L 289.086793 76.490877 
L 289.685095 77.974758 
L 290.283396 69.473153 
L 290.881698 69.093288 
L 291.479999 68.515693 
L 292.078301 65.310958 
L 292.676602 63.749406 
L 293.274904 83.458488 
L 293.873206 59.309973 
L 294.471507 70.616092 
L 295.069809 62.040198 
L 295.66811 73.625672 
L 296.266412 59.921973 
L 296.864713 71.205283 
L 297.463015 72.617764 
L 298.061317 68.681636 
L 298.659618 73.813144 
L 299.25792 62.841877 
L 299.856221 72.541043 
L 300.454523 53.851083 
L 301.052824 78.285813 
L 301.651126 64.264474 
L 302.249428 76.145056 
L 302.847729 67.263107 
L 303.446031 75.19982 
L 304.044332 61.167545 
L 305.240935 70.774489 
L 305.839237 68.4826 
L 306.437539 77.149083 
L 307.03584 66.618462 
L 307.634142 72.469131 
L 308.232443 67.83048 
L 308.830745 64.892293 
L 309.429046 68.752924 
L 310.027348 62.793999 
L 310.625649 66.931994 
L 311.822253 77.817748 
L 312.420554 64.625964 
L 313.018856 63.440455 
L 313.617157 59.617542 
L 314.215459 76.125041 
L 314.81376 56.878518 
L 315.412062 75.145532 
L 316.010364 77.421847 
L 316.608665 63.290122 
L 317.206967 71.285964 
L 317.805268 67.693688 
L 318.40357 67.452843 
L 319.001871 68.478896 
L 319.600173 60.175778 
L 320.198475 66.948697 
L 320.796776 61.745353 
L 321.395078 61.303594 
L 321.993379 64.703886 
L 322.591681 65.078716 
L 323.189982 61.553594 
L 323.788284 65.719161 
L 324.386586 59.223655 
L 324.984887 70.207829 
L 325.583189 72.801999 
L 326.18149 64.930989 
L 326.779792 70.102531 
L 327.378093 65.002456 
L 327.976395 66.142232 
L 328.574697 65.930332 
L 329.172998 62.716636 
L 329.7713 61.858132 
L 330.369601 71.828812 
L 330.967903 67.961326 
L 331.566204 62.944841 
L 332.164506 67.682094 
L 332.762808 73.795675 
L 333.361109 65.207366 
L 333.959411 66.473175 
L 334.557712 57.541987 
L 335.156014 64.187608 
L 335.754315 67.146629 
L 336.352617 60.915901 
L 336.950919 64.112197 
L 337.54922 60.697338 
L 338.147522 63.913515 
L 338.745823 70.871746 
L 339.344125 65.494802 
L 339.942426 58.894062 
L 340.540728 60.532858 
L 341.13903 67.513799 
L 341.737331 66.101989 
L 342.335633 69.859044 
L 342.933934 65.731757 
L 343.532236 60.368633 
L 344.130537 64.898036 
L 344.728839 61.290364 
L 345.32714 63.840829 
L 345.925442 69.227704 
L 346.523744 58.854952 
L 347.122045 69.5546 
L 347.720347 61.602808 
L 348.318648 64.226425 
L 348.91695 65.271434 
L 349.515251 61.267529 
L 350.113553 63.692995 
L 350.711855 60.632255 
L 351.310156 59.702038 
L 352.506759 63.186834 
L 353.105061 63.579935 
L 353.703362 59.226262 
L 354.301664 65.63171 
L 354.899966 59.962656 
L 355.498267 64.242416 
L 356.096569 64.173523 
L 356.69487 61.607464 
L 357.293172 56.251199 
L 357.891473 63.795433 
L 358.489775 61.944572 
L 359.088077 59.658316 
L 359.686378 53.161038 
L 360.28468 64.850952 
L 360.882981 59.4438 
L 361.481283 60.003488 
L 362.079584 60.350657 
L 362.677886 59.364323 
L 363.276188 59.068556 
L 363.874489 59.39921 
L 364.472791 54.023113 
L 365.071092 64.05096 
L 365.669394 58.62211 
L 366.267695 57.455263 
L 366.865997 60.407342 
L 367.464299 64.915929 
L 368.0626 56.736651 
L 368.660902 61.29096 
L 369.259203 59.207137 
L 369.857505 54.098062 
L 370.455806 57.476817 
L 371.054108 58.748648 
L 371.65241 56.802022 
L 372.250711 60.386151 
L 372.849013 59.305276 
L 374.045616 52.372686 
L 374.643917 51.505535 
L 375.242219 50.110868 
L 375.840521 58.001482 
L 376.438822 62.001693 
L 377.037124 60.534968 
L 377.635425 53.915933 
L 378.233727 52.796984 
L 378.832028 57.882402 
L 379.43033 58.651696 
L 380.028631 53.983471 
L 380.626933 59.170574 
L 381.225235 53.642993 
L 381.823536 58.798154 
L 382.421838 57.504078 
L 383.020139 52.095052 
L 383.618441 55.857581 
L 384.216742 55.934156 
L 384.815044 58.655567 
L 385.413346 52.603845 
L 386.011647 56.693028 
L 386.609949 57.867569 
L 387.806552 51.303736 
L 388.404853 57.751114 
L 389.003155 52.605446 
L 389.601457 57.359447 
L 390.199758 56.610537 
L 390.79806 56.634835 
L 391.396361 52.202777 
L 391.994663 52.677748 
L 392.592964 41.389041 
L 393.191266 54.990412 
L 393.789568 53.450184 
L 394.387869 63.696553 
L 394.986171 58.463717 
L 395.584472 58.41252 
L 396.182774 52.997722 
L 396.781075 51.791558 
L 397.379377 52.055241 
L 397.977679 53.204268 
L 398.57598 52.545612 
L 399.174282 45.797796 
L 399.772583 55.496939 
L 400.370885 57.410318 
L 400.969186 52.840844 
L 401.567488 43.77861 
L 402.16579 55.104606 
L 402.764091 52.135924 
L 403.362393 48.337584 
L 403.960694 51.106004 
L 404.558996 49.712846 
L 405.157297 51.93864 
L 405.755599 62.892806 
L 406.353901 38.085455 
L 406.952202 52.118773 
L 407.550504 57.365763 
L 408.148805 50.173668 
L 408.747107 51.175678 
L 409.345408 49.717257 
L 409.94371 50.895701 
L 410.542012 46.905457 
L 411.738615 49.339556 
L 412.336916 50.071697 
L 412.935218 57.16777 
L 413.533519 45.81554 
L 414.131821 51.084166 
L 414.730123 53.590428 
L 415.328424 49.037437 
L 415.926726 57.66058 
L 416.525027 51.738975 
L 417.123329 43.844055 
L 417.72163 48.209048 
L 418.319932 48.878371 
L 418.918233 45.481744 
L 419.516535 49.735364 
L 420.114837 47.679961 
L 420.713138 48.163333 
L 421.31144 44.887674 
L 421.909741 51.729018 
L 422.508043 47.260437 
L 423.106344 45.470421 
L 423.704646 40.398757 
L 424.901249 52.920251 
L 425.499551 45.65275 
L 426.097852 46.378392 
L 426.696154 51.20548 
L 427.294455 54.587024 
L 427.892757 50.766407 
L 428.491059 43.894594 
L 429.08936 55.675696 
L 429.687662 44.061578 
L 430.285963 40.483532 
L 430.884265 51.292981 
L 431.482566 48.023453 
L 432.080868 38.630743 
L 432.080868 38.630743 
" clip-path="url(#p9ef7b63613)" style="fill: none; stroke: #ff7f0e; stroke-width: 1.5; stroke-linecap: square"/>
   </g>
   <g id="patch_3">
    <path d="M 55.779096 303.64 
L 55.779096 25.44 
" style="fill: none; stroke: #000000; stroke-width: 0.8; stroke-linejoin: miter; stroke-linecap: square"/>
   </g>
   <g id="patch_4">
    <path d="M 450 303.64 
L 450 25.44 
" style="fill: none; stroke: #000000; stroke-width: 0.8; stroke-linejoin: miter; stroke-linecap: square"/>
   </g>
   <g id="patch_5">
    <path d="M 55.779096 303.64 
L 450 303.64 
" style="fill: none; stroke: #000000; stroke-width: 0.8; stroke-linejoin: miter; stroke-linecap: square"/>
   </g>
   <g id="patch_6">
    <path d="M 55.779096 25.44 
L 450 25.44 
" style="fill: none; stroke: #000000; stroke-width: 0.8; stroke-linejoin: miter; stroke-linecap: square"/>
   </g>
   <g id="text_12">
    <!-- Total Loss (log) -->
    <g transform="translate(208.074236 19.44) scale(0.12 -0.12)">
     <defs>
      <path id="DejaVuSans-54" d="M -19 4666 
L 3928 4666 
L 3928 4134 
L 2272 4134 
L 2272 0 
L 1638 0 
L 1638 4134 
L -19 4134 
L -19 4666 
z
" transform="scale(0.015625)"/>
      <path id="DejaVuSans-4c" d="M 628 4666 
L 1259 4666 
L 1259 531 
L 3531 531 
L 3531 0 
L 628 0 
L 628 4666 
z
" transform="scale(0.015625)"/>
     </defs>
     <use xlink:href="#DejaVuSans-54"/>
     <use xlink:href="#DejaVuSans-6f" transform="translate(44.083984 0)"/>
     <use xlink:href="#DejaVuSans-74" transform="translate(105.265625 0)"/>
     <use xlink:href="#DejaVuSans-61" transform="translate(144.474609 0)"/>
     <use xlink:href="#DejaVuSans-6c" transform="translate(205.753906 0)"/>
     <use xlink:href="#DejaVuSans-20" transform="translate(233.537109 0)"/>
     <use xlink:href="#DejaVuSans-4c" transform="translate(265.324219 0)"/>
     <use xlink:href="#DejaVuSans-6f" transform="translate(319.287109 0)"/>
     <use xlink:href="#DejaVuSans-73" transform="translate(380.46875 0)"/>
     <use xlink:href="#DejaVuSans-73" transform="translate(432.568359 0)"/>
     <use xlink:href="#DejaVuSans-20" transform="translate(484.667969 0)"/>
     <use xlink:href="#DejaVuSans-28" transform="translate(516.455078 0)"/>
     <use xlink:href="#DejaVuSans-6c" transform="translate(555.46875 0)"/>
     <use xlink:href="#DejaVuSans-6f" transform="translate(583.251953 0)"/>
     <use xlink:href="#DejaVuSans-67" transform="translate(644.433594 0)"/>
     <use xlink:href="#DejaVuSans-29" transform="translate(707.910156 0)"/>
    </g>
   </g>
   <g id="legend_1">
    <g id="patch_7">
     <path d="M 62.779096 62.79625 
L 144.097846 62.79625 
Q 146.097846 62.79625 146.097846 60.79625 
L 146.097846 32.44 
Q 146.097846 30.44 144.097846 30.44 
L 62.779096 30.44 
Q 60.779096 30.44 60.779096 32.44 
L 60.779096 60.79625 
Q 60.779096 62.79625 62.779096 62.79625 
z
" style="fill: #ffffff; opacity: 0.8; stroke: #cccccc; stroke-linejoin: miter"/>
    </g>
    <g id="line2d_61">
     <path d="M 64.779096 38.538437 
L 74.779096 38.538437 
L 84.779096 38.538437 
" style="fill: none; stroke: #1f77b4; stroke-width: 1.5; stroke-linecap: square"/>
    </g>
    <g id="text_13">
     <!-- train total -->
     <g transform="translate(92.779096 42.038437) scale(0.1 -0.1)">
      <defs>
       <path id="DejaVuSans-72" d="M 2631 2963 
Q 2534 3019 2420 3045 
Q 2306 3072 2169 3072 
Q 1681 3072 1420 2755 
Q 1159 2438 1159 1844 
L 1159 0 
L 581 0 
L 581 3500 
L 1159 3500 
L 1159 2956 
Q 1341 3275 1631 3429 
Q 1922 3584 2338 3584 
Q 2397 3584 2469 3576 
Q 2541 3569 2628 3553 
L 2631 2963 
z
" transform="scale(0.015625)"/>
       <path id="DejaVuSans-69" d="M 603 3500 
L 1178 3500 
L 1178 0 
L 603 0 
L 603 3500 
z
M 603 4863 
L 1178 4863 
L 1178 4134 
L 603 4134 
L 603 4863 
z
" transform="scale(0.015625)"/>
       <path id="DejaVuSans-6e" d="M 3513 2113 
L 3513 0 
L 2938 0 
L 2938 2094 
Q 2938 2591 2744 2837 
Q 2550 3084 2163 3084 
Q 1697 3084 1428 2787 
Q 1159 2491 1159 1978 
L 1159 0 
L 581 0 
L 581 3500 
L 1159 3500 
L 1159 2956 
Q 1366 3272 1645 3428 
Q 1925 3584 2291 3584 
Q 2894 3584 3203 3211 
Q 3513 2838 3513 2113 
z
" transform="scale(0.015625)"/>
      </defs>
      <use xlink:href="#DejaVuSans-74"/>
      <use xlink:href="#DejaVuSans-72" transform="translate(39.208984 0)"/>
      <use xlink:href="#DejaVuSans-61" transform="translate(80.322266 0)"/>
      <use xlink:href="#DejaVuSans-69" transform="translate(141.601562 0)"/>
      <use xlink:href="#DejaVuSans-6e" transform="translate(169.384766 0)"/>
      <use xlink:href="#DejaVuSans-20" transform="translate(232.763672 0)"/>
      <use xlink:href="#DejaVuSans-74" transform="translate(264.550781 0)"/>
      <use xlink:href="#DejaVuSans-6f" transform="translate(303.759766 0)"/>
      <use xlink:href="#DejaVuSans-74" transform="translate(364.941406 0)"/>
      <use xlink:href="#DejaVuSans-61" transform="translate(404.150391 0)"/>
      <use xlink:href="#DejaVuSans-6c" transform="translate(465.429688 0)"/>
     </g>
    </g>
    <g id="line2d_62">
     <path d="M 64.779096 53.216562 
L 74.779096 53.216562 
L 84.779096 53.216562 
" style="fill: none; stroke: #ff7f0e; stroke-width: 1.5; stroke-linecap: square"/>
    </g>
    <g id="text_14">
     <!-- val total -->
     <g transform="translate(92.779096 56.716562) scale(0.1 -0.1)">
      <defs>
       <path id="DejaVuSans-76" d="M 191 3500 
L 800 3500 
L 1894 563 
L 2988 3500 
L 3597 3500 
L 2284 0 
L 1503 0 
L 191 3500 
z
" transform="scale(0.015625)"/>
      </defs>
      <use xlink:href="#DejaVuSans-76"/>
      <use xlink:href="#DejaVuSans-61" transform="translate(59.179688 0)"/>
      <use xlink:href="#DejaVuSans-6c" transform="translate(120.458984 0)"/>
      <use xlink:href="#DejaVuSans-20" transform="translate(148.242188 0)"/>
      <use xlink:href="#DejaVuSans-74" transform="translate(180.029297 0)"/>
      <use xlink:href="#DejaVuSans-6f" transform="translate(219.238281 0)"/>
      <use xlink:href="#DejaVuSans-74" transform="translate(280.419922 0)"/>
      <use xlink:href="#DejaVuSans-61" transform="translate(319.628906 0)"/>
      <use xlink:href="#DejaVuSans-6c" transform="translate(380.908203 0)"/>
     </g>
    </g>
   </g>
  </g>
 </g>
 <defs>
  <clipPath id="p9ef7b63613">
   <rect x="55.779096" y="25.44" width="394.220904" height="278.2"/>
  </clipPath>
 </defs>
</svg>
