<?xml version="1.0" encoding="utf-8" standalone="no"?>
<!DOCTYPE svg PUBLIC "-//W3C//DTD SVG 1.1//EN"
  "http://www.w3.org/Graphics/SVG/1.1/DTD/svg11.dtd">
<svg xmlns:xlink="http://www.w3.org/1999/xlink" width="460.8pt" height="345.6pt" viewBox="0 0 460.8 345.6" xmlns="http://www.w3.org/2000/svg" version="1.1">
 <metadata>
  <rdf:RDF xmlns:dc="http://purl.org/dc/elements/1.1/" xmlns:cc="http://creativecommons.org/ns#" xmlns:rdf="http://www.w3.org/1999/02/22-rdf-syntax-ns#">
   <cc:Work>
    <dc:type rdf:resource="http://purl.org/dc/dcmitype/StillImage"/>
    <dc:date>2026-01-23T08:18:58.068051</dc:date>
    <dc:format>image/svg+xml</dc:format>
    <dc:creator>
     <cc:Agent>
      <dc:title>Matplotlib v3.10.7, https://matplotlib.org/</dc:title>
     </cc:Agent>
    </dc:creator>
   </cc:Work>
  </rdf:RDF>
 </metadata>
 <defs>
  <style type="text/css">*{stroke-linejoin: round; stroke-linecap: butt}</style>
 </defs>
 <g id="figure_1">
  <g id="patch_1">
   <path d="M 0 345.6 
L 460.8 345.6 
L 460.8 0 
L 0 0 
z
" style="fill: #ffffff"/>
  </g>
  <g id="axes_1">
   <g id="patch_2">
    <path d="M 47.81 303.64 
L 450 303.64 
L 450 25.44 
L 47.81 25.44 
z
" style="fill: #ffffff"/>
   </g>
   <g id="matplotlib.axis_1">
    <g id="xtick_1">
     <g id="line2d_1">
      <path d="M 65.72537 303.64 
L 65.72537 25.44 
" clip-path="url(#p95202d097c)" style="fill: none; stroke: #b0b0b0; stroke-opacity: 0.3; stroke-width: 0.8; stroke-linecap: square"/>
     </g>
     <g id="line2d_2">
      <defs>
       <path id="md5f75166c6" d="M 0 0 
L 0 3.5 
" style="stroke: #000000; stroke-width: 0.8"/>
      </defs>
      <g>
       <use xlink:href="#md5f75166c6" x="65.72537" y="303.64" style="stroke: #000000; stroke-width: 0.8"/>
      </g>
     </g>
     <g id="text_1">
      <!-- 0 -->
      <g transform="translate(62.54412 318.238437) scale(0.1 -0.1)">
       <defs>
        <path id="DejaVuSans-30" d="M 2034 4250 
Q 1547 4250 1301 3770 
Q 1056 3291 1056 2328 
Q 1056 1369 1301 889 
Q 1547 409 2034 409 
Q 2525 409 2770 889 
Q 3016 1369 3016 2328 
Q 3016 3291 2770 3770 
Q 2525 4250 2034 4250 
z
M 2034 4750 
Q 2819 4750 3233 4129 
Q 3647 3509 3647 2328 
Q 3647 1150 3233 529 
Q 2819 -91 2034 -91 
Q 1250 -91 836 529 
Q 422 1150 422 2328 
Q 422 3509 836 4129 
Q 1250 4750 2034 4750 
z
" transform="scale(0.015625)"/>
       </defs>
       <use xlink:href="#DejaVuSans-30"/>
      </g>
     </g>
    </g>
    <g id="xtick_2">
     <g id="line2d_3">
      <path d="M 138.924024 303.64 
L 138.924024 25.44 
" clip-path="url(#p95202d097c)" style="fill: none; stroke: #b0b0b0; stroke-opacity: 0.3; stroke-width: 0.8; stroke-linecap: square"/>
     </g>
     <g id="line2d_4">
      <g>
       <use xlink:href="#md5f75166c6" x="138.924024" y="303.64" style="stroke: #000000; stroke-width: 0.8"/>
      </g>
     </g>
     <g id="text_2">
      <!-- 200 -->
      <g transform="translate(129.380274 318.238437) scale(0.1 -0.1)">
       <defs>
        <path id="DejaVuSans-32" d="M 1228 531 
L 3431 531 
L 3431 0 
L 469 0 
L 469 531 
Q 828 903 1448 1529 
Q 2069 2156 2228 2338 
Q 2531 2678 2651 2914 
Q 2772 3150 2772 3378 
Q 2772 3750 2511 3984 
Q 2250 4219 1831 4219 
Q 1534 4219 1204 4116 
Q 875 4013 500 3803 
L 500 4441 
Q 881 4594 1212 4672 
Q 1544 4750 1819 4750 
Q 2544 4750 2975 4387 
Q 3406 4025 3406 3419 
Q 3406 3131 3298 2873 
Q 3191 2616 2906 2266 
Q 2828 2175 2409 1742 
Q 1991 1309 1228 531 
z
" transform="scale(0.015625)"/>
       </defs>
       <use xlink:href="#DejaVuSans-32"/>
       <use xlink:href="#DejaVuSans-30" transform="translate(63.623047 0)"/>
       <use xlink:href="#DejaVuSans-30" transform="translate(127.246094 0)"/>
      </g>
     </g>
    </g>
    <g id="xtick_3">
     <g id="line2d_5">
      <path d="M 212.122677 303.64 
L 212.122677 25.44 
" clip-path="url(#p95202d097c)" style="fill: none; stroke: #b0b0b0; stroke-opacity: 0.3; stroke-width: 0.8; stroke-linecap: square"/>
     </g>
     <g id="line2d_6">
      <g>
       <use xlink:href="#md5f75166c6" x="212.122677" y="303.64" style="stroke: #000000; stroke-width: 0.8"/>
      </g>
     </g>
     <g id="text_3">
      <!-- 400 -->
      <g transform="translate(202.578927 318.238437) scale(0.1 -0.1)">
       <defs>
        <path id="DejaVuSans-34" d="M 2419 4116 
L 825 1625 
L 2419 1625 
L 2419 4116 
z
M 2253 4666 
L 3047 4666 
L 3047 1625 
L 3713 1625 
L 3713 1100 
L 3047 1100 
L 3047 0 
L 2419 0 
L 2419 1100 
L 313 1100 
L 313 1709 
L 2253 4666 
z
" transform="scale(0.015625)"/>
       </defs>
       <use xlink:href="#DejaVuSans-34"/>
       <use xlink:href="#DejaVuSans-30" transform="translate(63.623047 0)"/>
       <use xlink:href="#DejaVuSans-30" transform="translate(127.246094 0)"/>
      </g>
     </g>
    </g>
    <g id="xtick_4">
     <g id="line2d_7">
      <path d="M 285.32133 303.64 
L 285.32133 25.44 
" clip-path="url(#p95202d097c)" style="fill: none; stroke: #b0b0b0; stroke-opacity: 0.3; stroke-width: 0.8; stroke-linecap: square"/>
     </g>
     <g id="line2d_8">
      <g>
       <use xlink:href="#md5f75166c6" x="285.32133" y="303.64" style="stroke: #000000; stroke-width: 0.8"/>
      </g>
     </g>
     <g id="text_4">
      <!-- 600 -->
      <g transform="translate(275.77758 318.238437) scale(0.1 -0.1)">
       <defs>
        <path id="DejaVuSans-36" d="M 2113 2584 
Q 1688 2584 1439 2293 
Q 1191 2003 1191 1497 
Q 1191 994 1439 701 
Q 1688 409 2113 409 
Q 2538 409 2786 701 
Q 3034 994 3034 1497 
Q 3034 2003 2786 2293 
Q 2538 2584 2113 2584 
z
M 3366 4563 
L 3366 3988 
Q 3128 4100 2886 4159 
Q 2644 4219 2406 4219 
Q 1781 4219 1451 3797 
Q 1122 3375 1075 2522 
Q 1259 2794 1537 2939 
Q 1816 3084 2150 3084 
Q 2853 3084 3261 2657 
Q 3669 2231 3669 1497 
Q 3669 778 3244 343 
Q 2819 -91 2113 -91 
Q 1303 -91 875 529 
Q 447 1150 447 2328 
Q 447 3434 972 4092 
Q 1497 4750 2381 4750 
Q 2619 4750 2861 4703 
Q 3103 4656 3366 4563 
z
" transform="scale(0.015625)"/>
       </defs>
       <use xlink:href="#DejaVuSans-36"/>
       <use xlink:href="#DejaVuSans-30" transform="translate(63.623047 0)"/>
       <use xlink:href="#DejaVuSans-30" transform="translate(127.246094 0)"/>
      </g>
     </g>
    </g>
    <g id="xtick_5">
     <g id="line2d_9">
      <path d="M 358.519983 303.64 
L 358.519983 25.44 
" clip-path="url(#p95202d097c)" style="fill: none; stroke: #b0b0b0; stroke-opacity: 0.3; stroke-width: 0.8; stroke-linecap: square"/>
     </g>
     <g id="line2d_10">
      <g>
       <use xlink:href="#md5f75166c6" x="358.519983" y="303.64" style="stroke: #000000; stroke-width: 0.8"/>
      </g>
     </g>
     <g id="text_5">
      <!-- 800 -->
      <g transform="translate(348.976233 318.238437) scale(0.1 -0.1)">
       <defs>
        <path id="DejaVuSans-38" d="M 2034 2216 
Q 1584 2216 1326 1975 
Q 1069 1734 1069 1313 
Q 1069 891 1326 650 
Q 1584 409 2034 409 
Q 2484 409 2743 651 
Q 3003 894 3003 1313 
Q 3003 1734 2745 1975 
Q 2488 2216 2034 2216 
z
M 1403 2484 
Q 997 2584 770 2862 
Q 544 3141 544 3541 
Q 544 4100 942 4425 
Q 1341 4750 2034 4750 
Q 2731 4750 3128 4425 
Q 3525 4100 3525 3541 
Q 3525 3141 3298 2862 
Q 3072 2584 2669 2484 
Q 3125 2378 3379 2068 
Q 3634 1759 3634 1313 
Q 3634 634 3220 271 
Q 2806 -91 2034 -91 
Q 1263 -91 848 271 
Q 434 634 434 1313 
Q 434 1759 690 2068 
Q 947 2378 1403 2484 
z
M 1172 3481 
Q 1172 3119 1398 2916 
Q 1625 2713 2034 2713 
Q 2441 2713 2670 2916 
Q 2900 3119 2900 3481 
Q 2900 3844 2670 4047 
Q 2441 4250 2034 4250 
Q 1625 4250 1398 4047 
Q 1172 3844 1172 3481 
z
" transform="scale(0.015625)"/>
       </defs>
       <use xlink:href="#DejaVuSans-38"/>
       <use xlink:href="#DejaVuSans-30" transform="translate(63.623047 0)"/>
       <use xlink:href="#DejaVuSans-30" transform="translate(127.246094 0)"/>
      </g>
     </g>
    </g>
    <g id="xtick_6">
     <g id="line2d_11">
      <path d="M 431.718636 303.64 
L 431.718636 25.44 
" clip-path="url(#p95202d097c)" style="fill: none; stroke: #b0b0b0; stroke-opacity: 0.3; stroke-width: 0.8; stroke-linecap: square"/>
     </g>
     <g id="line2d_12">
      <g>
       <use xlink:href="#md5f75166c6" x="431.718636" y="303.64" style="stroke: #000000; stroke-width: 0.8"/>
      </g>
     </g>
     <g id="text_6">
      <!-- 1000 -->
      <g transform="translate(418.993636 318.238437) scale(0.1 -0.1)">
       <defs>
        <path id="DejaVuSans-31" d="M 794 531 
L 1825 531 
L 1825 4091 
L 703 3866 
L 703 4441 
L 1819 4666 
L 2450 4666 
L 2450 531 
L 3481 531 
L 3481 0 
L 794 0 
L 794 531 
z
" transform="scale(0.015625)"/>
       </defs>
       <use xlink:href="#DejaVuSans-31"/>
       <use xlink:href="#DejaVuSans-30" transform="translate(63.623047 0)"/>
       <use xlink:href="#DejaVuSans-30" transform="translate(127.246094 0)"/>
       <use xlink:href="#DejaVuSans-30" transform="translate(190.869141 0)"/>
      </g>
     </g>
    </g>
    <g id="text_7">
     <!-- epoch -->
     <g transform="translate(233.676875 331.916562) scale(0.1 -0.1)">
      <defs>
       <path id="DejaVuSans-65" d="M 3597 1894 
L 3597 1613 
L 953 1613 
Q 991 1019 1311 708 
Q 1631 397 2203 397 
Q 2534 397 2845 478 
Q 3156 559 3463 722 
L 3463 178 
Q 3153 47 2828 -22 
Q 2503 -91 2169 -91 
Q 1331 -91 842 396 
Q 353 884 353 1716 
Q 353 2575 817 3079 
Q 1281 3584 2069 3584 
Q 2775 3584 3186 3129 
Q 3597 2675 3597 1894 
z
M 3022 2063 
Q 3016 2534 2758 2815 
Q 2500 3097 2075 3097 
Q 1594 3097 1305 2825 
Q 1016 2553 972 2059 
L 3022 2063 
z
" transform="scale(0.015625)"/>
       <path id="DejaVuSans-70" d="M 1159 525 
L 1159 -1331 
L 581 -1331 
L 581 3500 
L 1159 3500 
L 1159 2969 
Q 1341 3281 1617 3432 
Q 1894 3584 2278 3584 
Q 2916 3584 3314 3078 
Q 3713 2572 3713 1747 
Q 3713 922 3314 415 
Q 2916 -91 2278 -91 
Q 1894 -91 1617 61 
Q 1341 213 1159 525 
z
M 3116 1747 
Q 3116 2381 2855 2742 
Q 2594 3103 2138 3103 
Q 1681 3103 1420 2742 
Q 1159 2381 1159 1747 
Q 1159 1113 1420 752 
Q 1681 391 2138 391 
Q 2594 391 2855 752 
Q 3116 1113 3116 1747 
z
" transform="scale(0.015625)"/>
       <path id="DejaVuSans-6f" d="M 1959 3097 
Q 1497 3097 1228 2736 
Q 959 2375 959 1747 
Q 959 1119 1226 758 
Q 1494 397 1959 397 
Q 2419 397 2687 759 
Q 2956 1122 2956 1747 
Q 2956 2369 2687 2733 
Q 2419 3097 1959 3097 
z
M 1959 3584 
Q 2709 3584 3137 3096 
Q 3566 2609 3566 1747 
Q 3566 888 3137 398 
Q 2709 -91 1959 -91 
Q 1206 -91 779 398 
Q 353 888 353 1747 
Q 353 2609 779 3096 
Q 1206 3584 1959 3584 
z
" transform="scale(0.015625)"/>
       <path id="DejaVuSans-63" d="M 3122 3366 
L 3122 2828 
Q 2878 2963 2633 3030 
Q 2388 3097 2138 3097 
Q 1578 3097 1268 2742 
Q 959 2388 959 1747 
Q 959 1106 1268 751 
Q 1578 397 2138 397 
Q 2388 397 2633 464 
Q 2878 531 3122 666 
L 3122 134 
Q 2881 22 2623 -34 
Q 2366 -91 2075 -91 
Q 1284 -91 818 406 
Q 353 903 353 1747 
Q 353 2603 823 3093 
Q 1294 3584 2113 3584 
Q 2378 3584 2631 3529 
Q 2884 3475 3122 3366 
z
" transform="scale(0.015625)"/>
       <path id="DejaVuSans-68" d="M 3513 2113 
L 3513 0 
L 2938 0 
L 2938 2094 
Q 2938 2591 2744 2837 
Q 2550 3084 2163 3084 
Q 1697 3084 1428 2787 
Q 1159 2491 1159 1978 
L 1159 0 
L 581 0 
L 581 4863 
L 1159 4863 
L 1159 2956 
Q 1366 3272 1645 3428 
Q 1925 3584 2291 3584 
Q 2894 3584 3203 3211 
Q 3513 2838 3513 2113 
z
" transform="scale(0.015625)"/>
      </defs>
      <use xlink:href="#DejaVuSans-65"/>
      <use xlink:href="#DejaVuSans-70" transform="translate(61.523438 0)"/>
      <use xlink:href="#DejaVuSans-6f" transform="translate(125 0)"/>
      <use xlink:href="#DejaVuSans-63" transform="translate(186.181641 0)"/>
      <use xlink:href="#DejaVuSans-68" transform="translate(241.162109 0)"/>
     </g>
    </g>
   </g>
   <g id="matplotlib.axis_2">
    <g id="ytick_1">
     <g id="line2d_13">
      <path d="M 47.81 293.563453 
L 450 293.563453 
" clip-path="url(#p95202d097c)" style="fill: none; stroke: #b0b0b0; stroke-opacity: 0.3; stroke-width: 0.8; stroke-linecap: square"/>
     </g>
     <g id="line2d_14">
      <defs>
       <path id="m08ba583cc1" d="M 0 0 
L -3.5 0 
" style="stroke: #000000; stroke-width: 0.8"/>
      </defs>
      <g>
       <use xlink:href="#m08ba583cc1" x="47.81" y="293.563453" style="stroke: #000000; stroke-width: 0.8"/>
      </g>
     </g>
     <g id="text_8">
      <!-- 0.0 -->
      <g transform="translate(24.906875 297.362672) scale(0.1 -0.1)">
       <defs>
        <path id="DejaVuSans-2e" d="M 684 794 
L 1344 794 
L 1344 0 
L 684 0 
L 684 794 
z
" transform="scale(0.015625)"/>
       </defs>
       <use xlink:href="#DejaVuSans-30"/>
       <use xlink:href="#DejaVuSans-2e" transform="translate(63.623047 0)"/>
       <use xlink:href="#DejaVuSans-30" transform="translate(95.410156 0)"/>
      </g>
     </g>
    </g>
    <g id="ytick_2">
     <g id="line2d_15">
      <path d="M 47.81 238.149468 
L 450 238.149468 
" clip-path="url(#p95202d097c)" style="fill: none; stroke: #b0b0b0; stroke-opacity: 0.3; stroke-width: 0.8; stroke-linecap: square"/>
     </g>
     <g id="line2d_16">
      <g>
       <use xlink:href="#m08ba583cc1" x="47.81" y="238.149468" style="stroke: #000000; stroke-width: 0.8"/>
      </g>
     </g>
     <g id="text_9">
      <!-- 0.2 -->
      <g transform="translate(24.906875 241.948687) scale(0.1 -0.1)">
       <use xlink:href="#DejaVuSans-30"/>
       <use xlink:href="#DejaVuSans-2e" transform="translate(63.623047 0)"/>
       <use xlink:href="#DejaVuSans-32" transform="translate(95.410156 0)"/>
      </g>
     </g>
    </g>
    <g id="ytick_3">
     <g id="line2d_17">
      <path d="M 47.81 182.735484 
L 450 182.735484 
" clip-path="url(#p95202d097c)" style="fill: none; stroke: #b0b0b0; stroke-opacity: 0.3; stroke-width: 0.8; stroke-linecap: square"/>
     </g>
     <g id="line2d_18">
      <g>
       <use xlink:href="#m08ba583cc1" x="47.81" y="182.735484" style="stroke: #000000; stroke-width: 0.8"/>
      </g>
     </g>
     <g id="text_10">
      <!-- 0.4 -->
      <g transform="translate(24.906875 186.534702) scale(0.1 -0.1)">
       <use xlink:href="#DejaVuSans-30"/>
       <use xlink:href="#DejaVuSans-2e" transform="translate(63.623047 0)"/>
       <use xlink:href="#DejaVuSans-34" transform="translate(95.410156 0)"/>
      </g>
     </g>
    </g>
    <g id="ytick_4">
     <g id="line2d_19">
      <path d="M 47.81 127.321499 
L 450 127.321499 
" clip-path="url(#p95202d097c)" style="fill: none; stroke: #b0b0b0; stroke-opacity: 0.3; stroke-width: 0.8; stroke-linecap: square"/>
     </g>
     <g id="line2d_20">
      <g>
       <use xlink:href="#m08ba583cc1" x="47.81" y="127.321499" style="stroke: #000000; stroke-width: 0.8"/>
      </g>
     </g>
     <g id="text_11">
      <!-- 0.6 -->
      <g transform="translate(24.906875 131.120718) scale(0.1 -0.1)">
       <use xlink:href="#DejaVuSans-30"/>
       <use xlink:href="#DejaVuSans-2e" transform="translate(63.623047 0)"/>
       <use xlink:href="#DejaVuSans-36" transform="translate(95.410156 0)"/>
      </g>
     </g>
    </g>
    <g id="ytick_5">
     <g id="line2d_21">
      <path d="M 47.81 71.907515 
L 450 71.907515 
" clip-path="url(#p95202d097c)" style="fill: none; stroke: #b0b0b0; stroke-opacity: 0.3; stroke-width: 0.8; stroke-linecap: square"/>
     </g>
     <g id="line2d_22">
      <g>
       <use xlink:href="#m08ba583cc1" x="47.81" y="71.907515" style="stroke: #000000; stroke-width: 0.8"/>
      </g>
     </g>
     <g id="text_12">
      <!-- 0.8 -->
      <g transform="translate(24.906875 75.706733) scale(0.1 -0.1)">
       <use xlink:href="#DejaVuSans-30"/>
       <use xlink:href="#DejaVuSans-2e" transform="translate(63.623047 0)"/>
       <use xlink:href="#DejaVuSans-38" transform="translate(95.410156 0)"/>
      </g>
     </g>
    </g>
    <g id="text_13">
     <!-- total loss -->
     <g transform="translate(18.827187 187.219687) rotate(-90) scale(0.1 -0.1)">
      <defs>
       <path id="DejaVuSans-74" d="M 1172 4494 
L 1172 3500 
L 2356 3500 
L 2356 3053 
L 1172 3053 
L 1172 1153 
Q 1172 725 1289 603 
Q 1406 481 1766 481 
L 2356 481 
L 2356 0 
L 1766 0 
Q 1100 0 847 248 
Q 594 497 594 1153 
L 594 3053 
L 172 3053 
L 172 3500 
L 594 3500 
L 594 4494 
L 1172 4494 
z
" transform="scale(0.015625)"/>
       <path id="DejaVuSans-61" d="M 2194 1759 
Q 1497 1759 1228 1600 
Q 959 1441 959 1056 
Q 959 750 1161 570 
Q 1363 391 1709 391 
Q 2188 391 2477 730 
Q 2766 1069 2766 1631 
L 2766 1759 
L 2194 1759 
z
M 3341 1997 
L 3341 0 
L 2766 0 
L 2766 531 
Q 2569 213 2275 61 
Q 1981 -91 1556 -91 
Q 1019 -91 701 211 
Q 384 513 384 1019 
Q 384 1609 779 1909 
Q 1175 2209 1959 2209 
L 2766 2209 
L 2766 2266 
Q 2766 2663 2505 2880 
Q 2244 3097 1772 3097 
Q 1472 3097 1187 3025 
Q 903 2953 641 2809 
L 641 3341 
Q 956 3463 1253 3523 
Q 1550 3584 1831 3584 
Q 2591 3584 2966 3190 
Q 3341 2797 3341 1997 
z
" transform="scale(0.015625)"/>
       <path id="DejaVuSans-6c" d="M 603 4863 
L 1178 4863 
L 1178 0 
L 603 0 
L 603 4863 
z
" transform="scale(0.015625)"/>
       <path id="DejaVuSans-20" transform="scale(0.015625)"/>
       <path id="DejaVuSans-73" d="M 2834 3397 
L 2834 2853 
Q 2591 2978 2328 3040 
Q 2066 3103 1784 3103 
Q 1356 3103 1142 2972 
Q 928 2841 928 2578 
Q 928 2378 1081 2264 
Q 1234 2150 1697 2047 
L 1894 2003 
Q 2506 1872 2764 1633 
Q 3022 1394 3022 966 
Q 3022 478 2636 193 
Q 2250 -91 1575 -91 
Q 1294 -91 989 -36 
Q 684 19 347 128 
L 347 722 
Q 666 556 975 473 
Q 1284 391 1588 391 
Q 1994 391 2212 530 
Q 2431 669 2431 922 
Q 2431 1156 2273 1281 
Q 2116 1406 1581 1522 
L 1381 1569 
Q 847 1681 609 1914 
Q 372 2147 372 2553 
Q 372 3047 722 3315 
Q 1072 3584 1716 3584 
Q 2034 3584 2315 3537 
Q 2597 3491 2834 3397 
z
" transform="scale(0.015625)"/>
      </defs>
      <use xlink:href="#DejaVuSans-74"/>
      <use xlink:href="#DejaVuSans-6f" transform="translate(39.208984 0)"/>
      <use xlink:href="#DejaVuSans-74" transform="translate(100.390625 0)"/>
      <use xlink:href="#DejaVuSans-61" transform="translate(139.599609 0)"/>
      <use xlink:href="#DejaVuSans-6c" transform="translate(200.878906 0)"/>
      <use xlink:href="#DejaVuSans-20" transform="translate(228.662109 0)"/>
      <use xlink:href="#DejaVuSans-6c" transform="translate(260.449219 0)"/>
      <use xlink:href="#DejaVuSans-6f" transform="translate(288.232422 0)"/>
      <use xlink:href="#DejaVuSans-73" transform="translate(349.414062 0)"/>
      <use xlink:href="#DejaVuSans-73" transform="translate(401.513672 0)"/>
     </g>
    </g>
   </g>
   <g id="line2d_23">
    <path d="M 66.091364 38.085455 
L 66.82335 180.537337 
L 67.555337 215.541233 
L 67.92133 225.613835 
L 69.751296 258.548794 
L 70.11729 262.544131 
L 70.483283 265.219783 
L 70.849276 269.059901 
L 71.215269 270.974106 
L 71.581263 271.802528 
L 71.947256 273.666318 
L 73.411229 277.558212 
L 73.777222 277.955886 
L 74.875202 279.601533 
L 75.241195 280.840876 
L 75.607189 280.324972 
L 75.973182 280.605568 
L 76.339175 280.660002 
L 77.071162 281.718335 
L 77.437155 281.752822 
L 77.803148 282.130349 
L 78.169141 282.021872 
L 78.535135 281.669408 
L 79.633114 282.906428 
L 79.999108 282.870431 
L 80.365101 283.242776 
L 80.731094 283.335014 
L 81.097088 283.594746 
L 81.829074 283.299794 
L 82.195067 283.857148 
L 83.293047 284.337156 
L 83.65904 284.217179 
L 84.025034 284.268746 
L 84.391027 284.434269 
L 84.75702 284.782573 
L 85.123013 284.608744 
L 85.489007 284.78724 
L 85.855 284.829185 
L 86.220993 284.743245 
L 86.586987 284.821492 
L 86.95298 285.06391 
L 87.318973 284.978916 
L 87.684966 285.087223 
L 88.416953 285.126978 
L 89.148939 285.36124 
L 90.612912 285.379933 
L 90.978906 285.594571 
L 92.076886 285.391068 
L 92.442879 285.603209 
L 93.174865 285.738547 
L 93.540859 285.935915 
L 93.906852 285.912108 
L 94.272845 286.021349 
L 94.638838 285.786021 
L 95.004832 285.402229 
L 95.370825 285.222203 
L 95.736818 285.226873 
L 96.102811 285.885119 
L 97.932778 286.045247 
L 98.298771 286.29725 
L 99.030758 286.282048 
L 100.128737 286.354347 
L 101.958704 286.060732 
L 102.324697 286.292512 
L 102.69069 286.249663 
L 103.422677 286.51386 
L 104.88665 286.46132 
L 105.252643 286.326148 
L 107.814596 286.663533 
L 108.546582 286.710173 
L 108.912576 286.571836 
L 109.278569 286.69418 
L 109.644562 286.638237 
L 111.474529 286.887806 
L 111.840522 286.799466 
L 112.938502 286.824904 
L 114.402475 286.768757 
L 115.134461 286.851394 
L 115.866448 286.873041 
L 117.696414 287.029616 
L 118.062407 286.952803 
L 118.794394 287.041886 
L 119.52638 286.990308 
L 120.62436 287.031789 
L 121.356347 286.888895 
L 122.454327 287.130032 
L 124.284293 287.14886 
L 124.650286 286.788408 
L 125.748266 287.16216 
L 126.114259 286.918302 
L 127.212239 287.117429 
L 127.578232 287.009518 
L 127.944226 287.100785 
L 128.676212 287.154205 
L 129.042205 287.150159 
L 129.408199 287.266679 
L 130.506178 287.210955 
L 131.238165 287.109276 
L 131.970152 286.901205 
L 133.068131 286.967665 
L 133.800118 286.592285 
L 134.166111 286.504777 
L 134.898098 287.036076 
L 135.264091 287.259567 
L 138.55803 287.301383 
L 139.290017 287.403057 
L 140.022003 287.217175 
L 141.85197 287.136196 
L 142.217963 287.33392 
L 144.413923 287.396474 
L 146.243889 287.387863 
L 146.975875 287.461702 
L 149.903822 287.397092 
L 150.635808 287.435287 
L 151.001801 287.380619 
L 151.367795 287.146072 
L 152.099781 287.338676 
L 153.563754 287.505727 
L 154.661734 287.567562 
L 155.027727 287.486003 
L 155.393721 287.538974 
L 156.125707 287.467892 
L 156.857694 287.491274 
L 157.223687 287.177736 
L 157.58968 287.082507 
L 157.955673 287.404365 
L 158.68766 287.294899 
L 159.419646 287.483009 
L 159.78564 287.426023 
L 160.88362 287.57812 
L 161.981599 287.554019 
L 162.347593 287.331931 
L 163.079579 287.467972 
L 163.445572 287.482099 
L 163.811566 287.362209 
L 166.007525 287.558653 
L 166.373519 287.468053 
L 166.739512 287.249701 
L 167.105505 287.456647 
L 168.203485 287.199497 
L 168.569478 287.258867 
L 168.935471 287.555717 
L 170.033451 287.522798 
L 170.765438 287.53082 
L 171.497424 287.585145 
L 172.229411 287.073172 
L 173.693384 287.496095 
L 174.791364 287.568096 
L 175.889343 287.630464 
L 176.62133 287.598228 
L 176.987323 287.708183 
L 177.71931 287.640929 
L 178.81729 287.66143 
L 179.183283 287.737835 
L 181.013249 287.594083 
L 182.477222 287.606525 
L 183.209209 287.717117 
L 184.673182 287.445924 
L 185.039175 287.643854 
L 185.405168 287.469298 
L 187.601128 287.698112 
L 187.967121 287.501794 
L 189.431094 287.41821 
L 190.529074 287.595495 
L 192.35904 287.687972 
L 194.189007 287.668473 
L 194.920993 287.726638 
L 195.65298 287.683949 
L 197.116953 287.630215 
L 197.482946 287.751587 
L 198.214933 287.679216 
L 198.580926 287.750692 
L 199.312912 287.609659 
L 199.678906 287.654184 
L 200.776886 287.357493 
L 201.142879 287.583778 
L 201.508872 287.675608 
L 201.874865 287.622937 
L 202.606852 287.702113 
L 205.900791 287.619796 
L 206.266785 287.464441 
L 206.998771 287.524882 
L 208.828737 287.546173 
L 209.926717 287.676124 
L 210.29271 287.744011 
L 210.658704 287.60004 
L 211.39069 287.721759 
L 211.756684 287.552933 
L 212.122677 287.520426 
L 212.854663 287.712777 
L 213.952643 287.754246 
L 215.416616 287.719945 
L 216.148603 287.760141 
L 217.612576 287.675113 
L 218.344562 287.73298 
L 219.076549 287.638841 
L 219.808535 287.787453 
L 221.638502 287.764972 
L 222.370488 287.347507 
L 223.102475 287.549189 
L 223.468468 287.475635 
L 223.834461 287.709221 
L 224.932441 287.828058 
L 225.298434 287.683776 
L 226.030421 287.791246 
L 226.762407 287.745693 
L 227.860387 287.729501 
L 229.690354 287.799867 
L 230.42234 287.75386 
L 232.984293 287.744474 
L 234.448266 287.83291 
L 235.180253 287.663751 
L 236.278232 287.760217 
L 237.376212 287.749085 
L 237.742205 287.561548 
L 238.108199 287.725463 
L 238.474192 287.380286 
L 238.840185 287.208814 
L 239.206178 287.183825 
L 239.572172 287.403859 
L 239.938165 287.175345 
L 240.304158 287.542202 
L 240.670152 287.626742 
L 241.036145 287.553208 
L 242.134125 287.780219 
L 243.964091 287.826256 
L 247.624024 287.788432 
L 247.990017 287.700799 
L 249.819983 287.870709 
L 250.917963 287.719817 
L 255.309882 287.881954 
L 256.041869 287.657102 
L 257.139848 287.528359 
L 257.505842 287.275774 
L 258.237828 287.645316 
L 259.335808 287.832346 
L 260.799781 287.832902 
L 267.021667 287.82726 
L 268.48564 287.800074 
L 269.58362 287.72026 
L 270.315606 287.792547 
L 272.145572 287.800407 
L 274.341532 287.906428 
L 275.439512 287.80157 
L 275.805505 287.676781 
L 276.903485 287.847807 
L 278.001465 287.783096 
L 278.733451 287.480729 
L 279.831431 287.641627 
L 280.197424 287.589235 
L 280.929411 287.698673 
L 281.661397 287.862787 
L 282.393384 287.785844 
L 283.12537 287.887697 
L 283.857357 287.818224 
L 286.053316 287.79882 
L 286.41931 287.580723 
L 287.151296 287.798105 
L 287.883283 287.589656 
L 288.981263 287.864597 
L 290.079242 287.836134 
L 291.543215 287.861073 
L 296.301128 287.859919 
L 297.399108 287.722503 
L 298.131094 287.881466 
L 299.229074 287.833763 
L 301.425034 287.846584 
L 302.523013 287.776685 
L 302.889007 287.903799 
L 303.255 287.755931 
L 305.45096 287.875833 
L 306.182946 287.823046 
L 306.548939 287.647893 
L 310.208872 287.796323 
L 310.574865 287.745897 
L 311.306852 287.783392 
L 312.038838 287.840471 
L 312.404832 287.827893 
L 312.770825 287.690574 
L 316.064764 287.891874 
L 318.260724 287.779903 
L 318.626717 287.886894 
L 319.358704 287.804492 
L 319.724697 287.882244 
L 320.09069 287.674898 
L 320.456684 287.599129 
L 321.920657 287.881011 
L 322.652643 287.822252 
L 323.018636 287.902675 
L 324.116616 287.749286 
L 325.946582 287.83603 
L 327.410556 287.71942 
L 328.142542 287.63065 
L 328.874529 287.85783 
L 330.338502 287.900485 
L 333.266448 287.726112 
L 333.632441 287.814196 
L 333.998434 287.711518 
L 334.364428 287.837685 
L 335.462407 287.798942 
L 336.194394 287.874116 
L 338.02436 287.891683 
L 338.756347 287.92536 
L 339.854327 287.89376 
L 344.612239 287.844254 
L 344.978232 287.908417 
L 345.344226 287.752584 
L 346.442205 287.796635 
L 346.808199 287.731547 
L 347.906178 287.851906 
L 349.004158 287.897042 
L 350.468131 287.737539 
L 352.298098 287.819526 
L 354.494057 287.864457 
L 355.226044 287.619551 
L 355.592037 287.524836 
L 356.324024 287.780004 
L 357.422003 287.841015 
L 358.15399 287.817431 
L 359.25197 287.864907 
L 360.349949 287.910783 
L 365.473855 287.848031 
L 366.205842 287.924539 
L 368.767795 287.826881 
L 369.865774 287.957379 
L 370.597761 287.806319 
L 371.329747 287.853946 
L 371.695741 287.803119 
L 372.793721 287.925928 
L 373.525707 287.867592 
L 374.98968 287.892978 
L 375.721667 287.848921 
L 378.28362 287.902346 
L 382.675539 287.877594 
L 383.773519 287.706247 
L 384.139512 287.728331 
L 384.505505 287.569218 
L 384.871498 287.744131 
L 386.701465 287.923015 
L 388.897424 287.800622 
L 389.263418 287.72126 
L 389.995404 287.750785 
L 390.727391 287.669334 
L 391.093384 287.828983 
L 392.92335 287.871372 
L 394.02133 287.935523 
L 397.315269 287.920216 
L 398.413249 287.942251 
L 399.511229 287.900524 
L 400.243215 287.919102 
L 402.073182 287.632836 
L 402.439175 287.82645 
L 402.805168 287.790015 
L 403.537155 287.874528 
L 404.635135 287.8557 
L 406.099108 287.877352 
L 407.197088 287.846597 
L 407.563081 287.772532 
L 408.661061 287.893137 
L 409.75904 287.885615 
L 412.320993 287.768463 
L 412.686987 287.904325 
L 416.346919 287.896043 
L 416.712912 287.727096 
L 420.006852 287.914941 
L 425.496751 287.912155 
L 426.228737 287.859964 
L 426.960724 287.866961 
L 427.326717 287.678247 
L 431.352643 287.948433 
L 431.718636 287.897469 
L 431.718636 287.897469 
" clip-path="url(#p95202d097c)" style="fill: none; stroke: #1f77b4; stroke-width: 1.5; stroke-linecap: square"/>
   </g>
   <g id="line2d_24">
    <path d="M 66.091364 58.359711 
L 66.457357 158.472112 
L 66.82335 196.334248 
L 67.555337 224.713943 
L 68.287323 239.124594 
L 69.751296 259.628032 
L 70.11729 261.234351 
L 70.483283 265.265628 
L 70.849276 267.379174 
L 71.215269 267.793952 
L 71.581263 270.779586 
L 72.313249 272.922434 
L 72.679242 274.459153 
L 73.045236 275.125461 
L 73.411229 275.37062 
L 73.777222 276.007385 
L 74.143215 277.208177 
L 74.509209 277.672687 
L 74.875202 278.57431 
L 75.973182 280.044273 
L 76.339175 280.113906 
L 76.705168 280.773286 
L 77.071162 281.132423 
L 77.437155 281.723762 
L 77.803148 281.176965 
L 78.169141 282.065688 
L 78.535135 281.591134 
L 79.267121 283.211779 
L 79.633114 282.877666 
L 79.999108 283.441816 
L 80.731094 284.058799 
L 81.097088 283.975194 
L 81.463081 283.776175 
L 81.829074 284.484731 
L 82.561061 284.997945 
L 82.927054 285.243422 
L 83.65904 285.215819 
L 84.025034 285.567361 
L 84.391027 285.453202 
L 85.123013 285.91477 
L 85.489007 285.810542 
L 85.855 286.132318 
L 86.586987 285.929232 
L 86.95298 286.170156 
L 87.318973 286.568759 
L 87.684966 286.759632 
L 88.05096 286.6198 
L 88.782946 286.805542 
L 89.148939 286.630028 
L 89.880926 286.958903 
L 90.246919 286.7656 
L 90.978906 287.269687 
L 91.344899 286.934217 
L 92.076886 287.26031 
L 92.442879 287.210138 
L 93.174865 287.545905 
L 93.540859 287.523877 
L 93.906852 287.677389 
L 94.272845 287.649895 
L 95.004832 286.947193 
L 95.370825 287.456336 
L 95.736818 287.737465 
L 96.102811 287.678237 
L 96.468805 287.868031 
L 97.566785 287.974946 
L 97.932778 288.185783 
L 98.298771 287.984203 
L 99.396751 288.395766 
L 100.494731 288.157085 
L 101.226717 287.952272 
L 101.59271 288.3156 
L 101.958704 288.24133 
L 102.324697 288.561652 
L 102.69069 288.367534 
L 103.056684 288.64885 
L 103.422677 288.501567 
L 103.78867 288.648351 
L 104.154663 288.264406 
L 104.88665 288.710035 
L 105.252643 288.369881 
L 105.618636 288.587037 
L 105.98463 288.440792 
L 106.350623 288.841912 
L 107.082609 288.785596 
L 107.448603 288.927594 
L 107.814596 288.861345 
L 108.912576 288.995222 
L 109.278569 289.061091 
L 109.644562 288.885012 
L 110.010556 289.101598 
L 110.376549 288.990321 
L 111.108535 289.111394 
L 111.840522 289.117841 
L 112.206515 289.243024 
L 113.670488 289.252744 
L 114.036481 288.834125 
L 114.402475 289.290889 
L 115.134461 289.246313 
L 115.500455 289.408888 
L 115.866448 289.287711 
L 116.964428 289.507077 
L 117.330421 289.535187 
L 117.696414 289.355118 
L 118.428401 289.539095 
L 118.794394 289.489706 
L 119.160387 289.591141 
L 119.892374 289.495519 
L 120.258367 289.670373 
L 121.356347 289.453541 
L 122.088333 289.735702 
L 123.186313 289.584139 
L 123.552306 289.7619 
L 123.9183 289.77856 
L 124.284293 289.592723 
L 124.650286 289.600849 
L 125.016279 289.444191 
L 125.382273 289.816263 
L 126.114259 289.391502 
L 126.480253 289.535191 
L 126.846246 289.842338 
L 127.578232 289.71528 
L 128.310219 289.794602 
L 128.676212 289.533033 
L 129.042205 289.880251 
L 130.506178 289.93451 
L 130.872172 289.733525 
L 131.238165 289.661582 
L 131.970152 289.919023 
L 132.336145 289.759562 
L 132.702138 289.839628 
L 133.068131 289.705024 
L 133.434125 289.69331 
L 133.800118 289.541231 
L 134.532104 289.512275 
L 134.898098 289.850575 
L 135.996077 290.062308 
L 136.362071 289.90111 
L 137.460051 290.0979 
L 137.826044 290.036877 
L 138.192037 289.853073 
L 138.55803 290.126295 
L 139.65601 290.132533 
L 140.022003 289.923568 
L 141.119983 290.173594 
L 141.485976 289.927055 
L 141.85197 290.147986 
L 142.217963 290.00159 
L 143.315943 290.284097 
L 144.047929 290.116147 
L 144.413923 290.200116 
L 144.779916 290.101693 
L 146.243889 290.233365 
L 147.341869 290.225995 
L 147.707862 290.328781 
L 148.439848 290.103259 
L 149.171835 290.135882 
L 149.537828 290.288311 
L 149.903822 290.196521 
L 150.635808 290.29059 
L 151.367795 289.816932 
L 151.733788 290.179345 
L 152.099781 290.058098 
L 152.831768 290.223795 
L 153.563754 290.341649 
L 153.929747 290.429274 
L 154.661734 290.381861 
L 155.027727 290.452608 
L 155.759714 290.284412 
L 156.125707 290.43683 
L 156.857694 290.374885 
L 157.223687 290.007818 
L 157.955673 290.22964 
L 158.68766 290.074157 
L 159.053653 290.385159 
L 159.78564 290.315937 
L 161.249613 290.496135 
L 162.347593 290.261801 
L 163.445572 290.262318 
L 163.811566 290.446092 
L 164.543552 290.409236 
L 164.909545 290.531176 
L 165.275539 290.414452 
L 165.641532 290.48162 
L 166.007525 290.258392 
L 166.739512 290.200376 
L 167.105505 290.346086 
L 167.471498 290.15392 
L 167.837492 289.783341 
L 168.203485 290.222289 
L 168.569478 290.371593 
L 171.497424 290.448547 
L 171.863418 290.204875 
L 172.229411 290.333182 
L 172.595404 290.214744 
L 173.327391 290.483226 
L 173.693384 290.379241 
L 174.059377 290.452 
L 174.42537 290.286234 
L 174.791364 290.545869 
L 175.157357 290.38736 
L 175.52335 290.554723 
L 176.255337 290.443388 
L 176.987323 290.524509 
L 177.71931 290.51152 
L 180.281263 290.620199 
L 180.647256 290.412207 
L 181.379242 290.589962 
L 182.111229 290.306162 
L 182.843215 290.572096 
L 184.307189 290.213915 
L 184.673182 290.578174 
L 185.039175 290.340074 
L 185.405168 290.578779 
L 186.137155 290.314576 
L 186.503148 290.501419 
L 186.869141 290.457459 
L 187.235135 290.575944 
L 187.967121 290.382683 
L 188.333114 290.492852 
L 188.699108 290.145695 
L 189.065101 290.532924 
L 190.529074 290.250621 
L 190.895067 290.49199 
L 193.091027 290.459866 
L 193.45702 290.629702 
L 194.189007 290.500492 
L 194.920993 290.532907 
L 196.384966 290.453872 
L 196.75096 290.514098 
L 197.116953 290.405641 
L 197.482946 290.423678 
L 197.848939 290.621966 
L 198.214933 290.646494 
L 198.580926 290.519551 
L 198.946919 290.257608 
L 199.312912 290.581053 
L 200.044899 290.353592 
L 200.410892 290.459627 
L 200.776886 290.284895 
L 201.142879 290.509055 
L 201.874865 290.58419 
L 202.972845 290.433548 
L 203.338838 290.255999 
L 204.070825 290.430605 
L 204.802811 290.489355 
L 205.168805 290.583712 
L 205.900791 290.265085 
L 206.266785 290.421382 
L 206.632778 290.142098 
L 207.730758 290.214768 
L 208.096751 289.94035 
L 208.462744 290.446426 
L 208.828737 290.188244 
L 209.194731 290.511311 
L 209.560724 290.359841 
L 210.29271 290.552663 
L 210.658704 290.519063 
L 211.024697 290.614951 
L 211.39069 290.461151 
L 211.756684 290.488121 
L 212.122677 290.375511 
L 212.48867 290.493693 
L 213.220657 290.501973 
L 213.58665 290.6042 
L 215.050623 290.494539 
L 215.416616 290.667223 
L 215.782609 290.436955 
L 216.148603 290.522734 
L 217.246582 290.465962 
L 217.978569 290.589158 
L 219.076549 290.426576 
L 220.174529 290.710747 
L 221.272508 290.499698 
L 221.638502 290.491889 
L 222.004495 290.227088 
L 222.370488 290.241172 
L 222.736481 290.419647 
L 223.102475 290.284802 
L 223.468468 290.611886 
L 224.200455 290.484666 
L 224.566448 290.429245 
L 225.664428 290.631486 
L 226.396414 290.404933 
L 226.762407 290.61882 
L 229.690354 290.634618 
L 230.056347 290.454636 
L 230.42234 290.602264 
L 231.52032 290.56571 
L 231.886313 290.376574 
L 232.252306 290.563455 
L 232.6183 290.514777 
L 232.984293 290.703805 
L 233.350286 290.597767 
L 233.716279 290.654587 
L 234.082273 290.564326 
L 234.448266 290.658539 
L 234.814259 290.56321 
L 235.912239 290.748062 
L 236.278232 290.572425 
L 238.108199 290.332468 
L 238.474192 289.885439 
L 238.840185 290.069187 
L 239.206178 290.464275 
L 239.572172 290.135934 
L 239.938165 290.527347 
L 240.304158 290.289561 
L 241.036145 290.408656 
L 241.768131 290.517913 
L 242.500118 290.61667 
L 246.160051 290.59988 
L 246.892037 290.709946 
L 247.25803 290.678578 
L 247.624024 290.442785 
L 247.990017 290.387557 
L 248.722003 290.699098 
L 249.087997 290.562279 
L 249.45399 290.683955 
L 250.185976 290.609883 
L 250.917963 290.606042 
L 251.649949 290.341942 
L 252.015943 290.640177 
L 252.381936 290.582451 
L 252.747929 290.745564 
L 253.113923 290.604131 
L 253.479916 290.68175 
L 253.845909 290.621656 
L 254.211902 290.763529 
L 254.577896 290.58286 
L 255.309882 290.757417 
L 256.041869 290.680853 
L 256.407862 290.516153 
L 256.773855 290.628165 
L 257.139848 290.31629 
L 257.505842 290.295478 
L 257.871835 290.52411 
L 260.067795 290.595251 
L 260.433788 290.739101 
L 261.165774 290.492777 
L 261.531768 290.708609 
L 261.897761 290.590885 
L 262.263754 290.703576 
L 262.629747 290.544688 
L 263.361734 290.674582 
L 263.727727 290.47446 
L 264.093721 290.661695 
L 264.825707 290.551427 
L 266.28968 290.569129 
L 266.655673 290.690876 
L 267.38766 290.639623 
L 267.753653 290.672965 
L 268.48564 290.518317 
L 268.851633 290.723986 
L 269.217626 290.477248 
L 269.58362 290.643907 
L 271.413586 290.655943 
L 271.779579 290.461917 
L 272.145572 290.735101 
L 272.511566 290.616312 
L 272.877559 290.662352 
L 273.243552 290.586967 
L 273.609545 290.76363 
L 274.341532 290.679911 
L 274.707525 290.759976 
L 275.073519 290.576699 
L 275.439512 290.656392 
L 275.805505 290.559097 
L 276.903485 290.756721 
L 278.367458 290.49785 
L 278.733451 290.080766 
L 279.099444 290.49087 
L 279.465438 290.595154 
L 279.831431 290.34148 
L 280.197424 290.494522 
L 280.563418 290.388948 
L 281.661397 290.695669 
L 282.027391 290.629367 
L 282.393384 290.694088 
L 282.759377 290.626499 
L 283.491364 290.659851 
L 284.22335 290.704047 
L 284.955337 290.521807 
L 285.32133 290.699778 
L 285.687323 290.697248 
L 286.41931 290.4448 
L 286.785303 290.594703 
L 287.883283 290.394977 
L 288.249276 290.652865 
L 288.615269 290.686145 
L 288.981263 290.549095 
L 289.347256 290.709471 
L 290.445236 290.632243 
L 290.811229 290.734479 
L 291.177222 290.689253 
L 291.543215 290.793153 
L 291.909209 290.598491 
L 292.275202 290.721581 
L 292.641195 290.670396 
L 293.007189 290.80039 
L 293.373182 290.568046 
L 293.739175 290.769065 
L 294.105168 290.618367 
L 294.837155 290.823221 
L 295.203148 290.644864 
L 295.569141 290.640873 
L 295.935135 290.777157 
L 297.033114 290.618516 
L 298.497088 290.789208 
L 298.863081 290.611235 
L 299.229074 290.626359 
L 299.595067 290.770489 
L 300.693047 290.747376 
L 301.425034 290.572481 
L 302.15702 290.635822 
L 302.523013 290.586161 
L 303.255 290.71793 
L 303.620993 290.659183 
L 303.986987 290.808221 
L 304.35298 290.82542 
L 304.718973 290.707285 
L 305.45096 290.710601 
L 306.182946 290.728889 
L 306.914933 290.579612 
L 308.378906 290.715939 
L 308.744899 290.612996 
L 309.476886 290.634541 
L 309.842879 290.500876 
L 310.208872 290.683739 
L 311.306852 290.627918 
L 312.038838 290.694481 
L 312.404832 290.627916 
L 312.770825 290.351538 
L 313.136818 290.810509 
L 313.868805 290.793028 
L 314.600791 290.633696 
L 314.966785 290.749659 
L 319.724697 290.617726 
L 320.09069 290.465147 
L 320.456684 290.691651 
L 320.822677 290.521519 
L 321.18867 290.737254 
L 322.28665 290.67118 
L 322.652643 290.824881 
L 323.38463 290.661056 
L 323.750623 290.72903 
L 324.116616 290.578867 
L 324.482609 290.556695 
L 324.848603 290.75039 
L 325.214596 290.776035 
L 325.580589 290.608806 
L 325.946582 290.787686 
L 326.312576 290.727325 
L 326.678569 290.542998 
L 328.142542 290.491706 
L 328.874529 290.725497 
L 329.240522 290.785743 
L 329.606515 290.680671 
L 330.338502 290.805568 
L 330.704495 290.645054 
L 333.632441 290.641586 
L 333.998434 290.421058 
L 334.364428 290.701893 
L 337.292374 290.641643 
L 337.658367 290.605838 
L 338.02436 290.769056 
L 338.756347 290.785588 
L 339.12234 290.634938 
L 339.488333 290.771347 
L 342.782273 290.830156 
L 343.880253 290.700158 
L 344.246246 290.780538 
L 345.710219 290.597449 
L 346.076212 290.812736 
L 346.442205 290.608729 
L 347.174192 290.71941 
L 349.370152 290.716807 
L 350.102138 290.550652 
L 350.834125 290.722043 
L 351.200118 290.638724 
L 351.566111 290.854052 
L 352.298098 290.701734 
L 352.664091 290.890174 
L 353.030084 290.763272 
L 354.494057 290.819072 
L 354.860051 290.488907 
L 355.226044 290.366939 
L 355.95803 290.707008 
L 357.05601 290.742196 
L 357.787997 290.557 
L 358.15399 290.774164 
L 358.519983 290.642188 
L 359.25197 290.740205 
L 359.983956 290.809309 
L 360.715943 290.750904 
L 361.081936 290.806219 
L 361.447929 290.735997 
L 361.813923 290.792502 
L 362.179916 290.670529 
L 363.277896 290.832811 
L 363.643889 290.643443 
L 364.375875 290.822096 
L 364.741869 290.729443 
L 366.205842 290.911864 
L 366.571835 290.683207 
L 367.669815 290.763494 
L 368.401801 290.741657 
L 369.133788 290.808774 
L 369.499781 290.762233 
L 369.865774 290.844352 
L 370.597761 290.805094 
L 372.793721 290.832478 
L 373.525707 290.762549 
L 373.8917 290.859447 
L 374.257694 290.741375 
L 374.98968 290.77112 
L 376.453653 290.635385 
L 377.18564 290.604019 
L 377.551633 290.801165 
L 378.28362 290.771293 
L 380.113586 290.814329 
L 380.479579 290.74347 
L 380.845572 290.831756 
L 381.211566 290.759189 
L 382.675539 290.844606 
L 383.041532 290.756811 
L 383.407525 290.537656 
L 383.773519 290.780645 
L 384.871498 290.515555 
L 385.237492 290.684496 
L 387.067458 290.819594 
L 388.897424 290.652703 
L 389.995404 290.713398 
L 390.361397 290.651828 
L 390.727391 290.451011 
L 391.459377 290.809688 
L 392.557357 290.756645 
L 394.387323 290.748152 
L 394.753316 290.90394 
L 395.485303 290.799859 
L 400.243215 290.806981 
L 400.609209 290.699453 
L 400.975202 290.707804 
L 401.707189 290.440509 
L 402.073182 290.694908 
L 402.439175 290.614103 
L 402.805168 290.77226 
L 407.197088 290.795929 
L 407.563081 290.689514 
L 408.295067 290.823112 
L 408.661061 290.765614 
L 409.75904 290.859845 
L 410.125034 290.793386 
L 410.491027 290.915229 
L 411.223013 290.87198 
L 411.589007 290.609299 
L 414.15096 290.842185 
L 414.516953 290.68353 
L 415.248939 290.970412 
L 416.346919 290.739994 
L 416.712912 290.751189 
L 417.078906 290.622333 
L 418.176886 290.820028 
L 419.274865 290.808757 
L 420.372845 290.881801 
L 420.738838 290.890957 
L 421.104832 290.775239 
L 425.862744 290.862836 
L 426.960724 290.534957 
L 427.326717 290.822376 
L 428.058704 290.627045 
L 429.156684 290.994545 
L 430.620657 290.788012 
L 431.718636 290.803026 
L 431.718636 290.803026 
" clip-path="url(#p95202d097c)" style="fill: none; stroke: #ff7f0e; stroke-width: 1.5; stroke-linecap: square"/>
   </g>
   <g id="patch_3">
    <path d="M 47.81 303.64 
L 47.81 25.44 
" style="fill: none; stroke: #000000; stroke-width: 0.8; stroke-linejoin: miter; stroke-linecap: square"/>
   </g>
   <g id="patch_4">
    <path d="M 450 303.64 
L 450 25.44 
" style="fill: none; stroke: #000000; stroke-width: 0.8; stroke-linejoin: miter; stroke-linecap: square"/>
   </g>
   <g id="patch_5">
    <path d="M 47.81 303.64 
L 450 303.64 
" style="fill: none; stroke: #000000; stroke-width: 0.8; stroke-linejoin: miter; stroke-linecap: square"/>
   </g>
   <g id="patch_6">
    <path d="M 47.81 25.44 
L 450 25.44 
" style="fill: none; stroke: #000000; stroke-width: 0.8; stroke-linejoin: miter; stroke-linecap: square"/>
   </g>
   <g id="text_14">
    <!-- Total Loss -->
    <g transform="translate(219.825625 19.44) scale(0.12 -0.12)">
     <defs>
      <path id="DejaVuSans-54" d="M -19 4666 
L 3928 4666 
L 3928 4134 
L 2272 4134 
L 2272 0 
L 1638 0 
L 1638 4134 
L -19 4134 
L -19 4666 
z
" transform="scale(0.015625)"/>
      <path id="DejaVuSans-4c" d="M 628 4666 
L 1259 4666 
L 1259 531 
L 3531 531 
L 3531 0 
L 628 0 
L 628 4666 
z
" transform="scale(0.015625)"/>
     </defs>
     <use xlink:href="#DejaVuSans-54"/>
     <use xlink:href="#DejaVuSans-6f" transform="translate(44.083984 0)"/>
     <use xlink:href="#DejaVuSans-74" transform="translate(105.265625 0)"/>
     <use xlink:href="#DejaVuSans-61" transform="translate(144.474609 0)"/>
     <use xlink:href="#DejaVuSans-6c" transform="translate(205.753906 0)"/>
     <use xlink:href="#DejaVuSans-20" transform="translate(233.537109 0)"/>
     <use xlink:href="#DejaVuSans-4c" transform="translate(265.324219 0)"/>
     <use xlink:href="#DejaVuSans-6f" transform="translate(319.287109 0)"/>
     <use xlink:href="#DejaVuSans-73" transform="translate(380.46875 0)"/>
     <use xlink:href="#DejaVuSans-73" transform="translate(432.568359 0)"/>
    </g>
   </g>
   <g id="legend_1">
    <g id="patch_7">
     <path d="M 361.68125 62.79625 
L 443 62.79625 
Q 445 62.79625 445 60.79625 
L 445 32.44 
Q 445 30.44 443 30.44 
L 361.68125 30.44 
Q 359.68125 30.44 359.68125 32.44 
L 359.68125 60.79625 
Q 359.68125 62.79625 361.68125 62.79625 
z
" style="fill: #ffffff; opacity: 0.8; stroke: #cccccc; stroke-linejoin: miter"/>
    </g>
    <g id="line2d_25">
     <path d="M 363.68125 38.538437 
L 373.68125 38.538437 
L 383.68125 38.538437 
" style="fill: none; stroke: #1f77b4; stroke-width: 1.5; stroke-linecap: square"/>
    </g>
    <g id="text_15">
     <!-- train total -->
     <g transform="translate(391.68125 42.038437) scale(0.1 -0.1)">
      <defs>
       <path id="DejaVuSans-72" d="M 2631 2963 
Q 2534 3019 2420 3045 
Q 2306 3072 2169 3072 
Q 1681 3072 1420 2755 
Q 1159 2438 1159 1844 
L 1159 0 
L 581 0 
L 581 3500 
L 1159 3500 
L 1159 2956 
Q 1341 3275 1631 3429 
Q 1922 3584 2338 3584 
Q 2397 3584 2469 3576 
Q 2541 3569 2628 3553 
L 2631 2963 
z
" transform="scale(0.015625)"/>
       <path id="DejaVuSans-69" d="M 603 3500 
L 1178 3500 
L 1178 0 
L 603 0 
L 603 3500 
z
M 603 4863 
L 1178 4863 
L 1178 4134 
L 603 4134 
L 603 4863 
z
" transform="scale(0.015625)"/>
       <path id="DejaVuSans-6e" d="M 3513 2113 
L 3513 0 
L 2938 0 
L 2938 2094 
Q 2938 2591 2744 2837 
Q 2550 3084 2163 3084 
Q 1697 3084 1428 2787 
Q 1159 2491 1159 1978 
L 1159 0 
L 581 0 
L 581 3500 
L 1159 3500 
L 1159 2956 
Q 1366 3272 1645 3428 
Q 1925 3584 2291 3584 
Q 2894 3584 3203 3211 
Q 3513 2838 3513 2113 
z
" transform="scale(0.015625)"/>
      </defs>
      <use xlink:href="#DejaVuSans-74"/>
      <use xlink:href="#DejaVuSans-72" transform="translate(39.208984 0)"/>
      <use xlink:href="#DejaVuSans-61" transform="translate(80.322266 0)"/>
      <use xlink:href="#DejaVuSans-69" transform="translate(141.601562 0)"/>
      <use xlink:href="#DejaVuSans-6e" transform="translate(169.384766 0)"/>
      <use xlink:href="#DejaVuSans-20" transform="translate(232.763672 0)"/>
      <use xlink:href="#DejaVuSans-74" transform="translate(264.550781 0)"/>
      <use xlink:href="#DejaVuSans-6f" transform="translate(303.759766 0)"/>
      <use xlink:href="#DejaVuSans-74" transform="translate(364.941406 0)"/>
      <use xlink:href="#DejaVuSans-61" transform="translate(404.150391 0)"/>
      <use xlink:href="#DejaVuSans-6c" transform="translate(465.429688 0)"/>
     </g>
    </g>
    <g id="line2d_26">
     <path d="M 363.68125 53.216562 
L 373.68125 53.216562 
L 383.68125 53.216562 
" style="fill: none; stroke: #ff7f0e; stroke-width: 1.5; stroke-linecap: square"/>
    </g>
    <g id="text_16">
     <!-- val total -->
     <g transform="translate(391.68125 56.716562) scale(0.1 -0.1)">
      <defs>
       <path id="DejaVuSans-76" d="M 191 3500 
L 800 3500 
L 1894 563 
L 2988 3500 
L 3597 3500 
L 2284 0 
L 1503 0 
L 191 3500 
z
" transform="scale(0.015625)"/>
      </defs>
      <use xlink:href="#DejaVuSans-76"/>
      <use xlink:href="#DejaVuSans-61" transform="translate(59.179688 0)"/>
      <use xlink:href="#DejaVuSans-6c" transform="translate(120.458984 0)"/>
      <use xlink:href="#DejaVuSans-20" transform="translate(148.242188 0)"/>
      <use xlink:href="#DejaVuSans-74" transform="translate(180.029297 0)"/>
      <use xlink:href="#DejaVuSans-6f" transform="translate(219.238281 0)"/>
      <use xlink:href="#DejaVuSans-74" transform="translate(280.419922 0)"/>
      <use xlink:href="#DejaVuSans-61" transform="translate(319.628906 0)"/>
      <use xlink:href="#DejaVuSans-6c" transform="translate(380.908203 0)"/>
     </g>
    </g>
   </g>
  </g>
 </g>
 <defs>
  <clipPath id="p95202d097c">
   <rect x="47.81" y="25.44" width="402.19" height="278.2"/>
  </clipPath>
 </defs>
</svg>
